<svg width="64" height="64" viewBox="0 0 64 64" fill="none" xmlns="http://www.w3.org/2000/svg">
<g filter="url(#filter0_b_119_4106)">
<rect width="64" height="64" rx="32" fill="black"/>
<rect x="1" y="1" width="62" height="62" rx="31" stroke="black" stroke-width="2"/>
<path d="M33.1917 22.8241V16.4193C33.1917 16.1383 33.0801 15.8689 32.8815 15.6702C32.6828 15.4716 32.4134 15.36 32.1324 15.36C31.8515 15.36 31.582 15.4716 31.3834 15.6702C31.1847 15.8689 31.0731 16.1383 31.0731 16.4193V22.8241C28.0869 23.0968 25.3208 24.5101 23.35 26.7701C21.3793 29.0302 20.3556 31.963 20.4921 34.9585C20.6285 37.954 21.9145 40.7816 24.0826 42.8532C26.2506 44.9247 29.1338 46.0807 32.1324 46.0807C35.1311 46.0807 38.0142 44.9247 40.1823 42.8532C42.3503 40.7816 43.6363 37.954 43.7728 34.9585C43.9092 31.963 42.8856 29.0302 40.9149 26.7701C38.9441 24.5101 36.1779 23.0968 33.1917 22.8241ZM41.6053 33.3683H37.3985C37.1986 29.613 35.9698 26.9647 34.8244 25.2831C36.6237 25.8159 38.2263 26.8669 39.4322 28.3047C40.6381 29.7425 41.3939 31.5036 41.6053 33.3683ZM28.9863 35.4869H35.2786C35.0138 39.9254 33.1427 42.4982 32.1324 43.5747C31.1208 42.4955 29.2498 39.9241 28.9863 35.4869ZM28.9863 33.3683C29.2511 28.9297 31.1221 26.3569 32.1324 25.2804C33.1441 26.3596 35.0151 28.9311 35.2786 33.3683H28.9863ZM29.4405 25.2831C28.2924 26.9647 27.0663 29.613 26.8663 33.3683H22.6596C22.871 31.5036 23.6268 29.7425 24.8327 28.3047C26.0385 26.8669 27.6411 25.8159 29.4405 25.2831ZM22.6596 35.4869H26.8663C27.0663 39.2421 28.2951 41.8904 29.4405 43.5721C27.6411 43.0392 26.0385 41.9883 24.8327 40.5504C23.6268 39.1126 22.871 37.3515 22.6596 35.4869ZM34.8244 43.5721C35.9698 41.8904 37.1986 39.2421 37.3985 35.4869H41.6053C41.3939 37.3515 40.6381 39.1126 39.4322 40.5504C38.2263 41.9883 36.6237 43.0392 34.8244 43.5721ZM51.2 25.9531C51.2 26.234 51.0884 26.5035 50.8897 26.7021C50.6911 26.9008 50.4216 27.0124 50.1407 27.0124H49.0814V28.0717C49.0814 28.3527 48.9698 28.6221 48.7711 28.8208C48.5725 29.0194 48.303 29.131 48.0221 29.131C47.7411 29.131 47.4717 29.0194 47.273 28.8208C47.0744 28.6221 46.9628 28.3527 46.9628 28.0717V27.0124H45.9035C45.6225 27.0124 45.3531 26.9008 45.1544 26.7021C44.9558 26.5035 44.8442 26.234 44.8442 25.9531C44.8442 25.6721 44.9558 25.4027 45.1544 25.204C45.3531 25.0054 45.6225 24.8938 45.9035 24.8938H46.9628V23.8345C46.9628 23.5535 47.0744 23.2841 47.273 23.0854C47.4717 22.8868 47.7411 22.7752 48.0221 22.7752C48.303 22.7752 48.5725 22.8868 48.7711 23.0854C48.9698 23.2841 49.0814 23.5535 49.0814 23.8345V24.8938H50.1407C50.4216 24.8938 50.6911 25.0054 50.8897 25.204C51.0884 25.4027 51.2 25.6721 51.2 25.9531ZM37.429 19.5972C37.429 19.3163 37.5406 19.0468 37.7392 18.8482C37.9379 18.6495 38.2073 18.5379 38.4883 18.5379H40.6069V16.4193C40.6069 16.1383 40.7185 15.8689 40.9172 15.6702C41.1158 15.4716 41.3853 15.36 41.6662 15.36C41.9472 15.36 42.2166 15.4716 42.4153 15.6702C42.6139 15.8689 42.7255 16.1383 42.7255 16.4193V18.5379H44.8442C45.1251 18.5379 45.3945 18.6495 45.5932 18.8482C45.7919 19.0468 45.9035 19.3163 45.9035 19.5972C45.9035 19.8782 45.7919 20.1476 45.5932 20.3463C45.3945 20.5449 45.1251 20.6565 44.8442 20.6565H42.7255V22.7752C42.7255 23.0561 42.6139 23.3255 42.4153 23.5242C42.2166 23.7229 41.9472 23.8345 41.6662 23.8345C41.3853 23.8345 41.1158 23.7229 40.9172 23.5242C40.7185 23.3255 40.6069 23.0561 40.6069 22.7752V20.6565H38.4883C38.2073 20.6565 37.9379 20.5449 37.7392 20.3463C37.5406 20.1476 37.429 19.8782 37.429 19.5972Z" fill="white"/>
</g>
<defs>
<filter id="filter0_b_119_4106" x="-41.2572" y="-41.2572" width="146.514" height="146.514" filterUnits="userSpaceOnUse" color-interpolation-filters="sRGB">
<feFlood flood-opacity="0" result="BackgroundImageFix"/>
<feGaussianBlur in="BackgroundImageFix" stdDeviation="20.6286"/>
<feComposite in2="SourceAlpha" operator="in" result="effect1_backgroundBlur_119_4106"/>
<feBlend mode="normal" in="SourceGraphic" in2="effect1_backgroundBlur_119_4106" result="shape"/>
</filter>
</defs>
</svg>
