<svg width="64" height="64" viewBox="0 0 64 64" fill="none" xmlns="http://www.w3.org/2000/svg">
<g filter="url(#filter0_b_119_4096)">
<rect width="64" height="64" rx="32" fill="black"/>
<rect x="1" y="1" width="62" height="62" rx="31" stroke="black" stroke-width="2"/>
<path d="M32 20.48C28.6064 20.4839 25.353 21.8337 22.9534 24.2333C20.5537 26.6329 19.2039 29.8864 19.2 33.28V40.1723C19.2 40.9557 19.5112 41.707 20.0652 42.261C20.6191 42.8149 21.3704 43.1261 22.1539 43.1261C22.7814 43.1251 23.3924 42.9252 23.8991 42.5551C25.3945 41.4683 28.0123 40.1723 32 40.1723C35.9877 40.1723 38.6056 41.4671 40.0997 42.5538C40.5399 42.8765 41.0608 43.0709 41.6048 43.1156C42.1487 43.1602 42.6944 43.0532 43.1812 42.8065C43.6681 42.5598 44.0771 42.1831 44.3628 41.7181C44.6486 41.2531 44.7999 40.7181 44.8 40.1723V33.28C44.7961 29.8864 43.4463 26.6329 41.0467 24.2333C38.647 21.8337 35.3936 20.4839 32 20.48ZM42.8308 33.28V34.3717C41.2603 33.3999 39.5652 32.6455 37.792 32.1292C37.4111 28.7341 36.1898 25.4875 34.2388 22.6831C36.6674 23.1994 38.8454 24.5332 40.4091 26.4618C41.9728 28.3904 42.8276 30.7971 42.8308 33.28ZM32 22.9747C33.9661 25.4992 35.2541 28.4844 35.7416 31.6468C33.2657 31.1988 30.7294 31.1988 28.2536 31.6468C28.7469 28.4852 30.0361 25.501 32 22.9747ZM29.7612 22.6831C27.81 25.4879 26.5888 28.7349 26.208 32.1304C24.4348 32.6468 22.7398 33.4011 21.1692 34.3729V33.28C21.1724 30.7971 22.0272 28.3904 23.5909 26.4618C25.1547 24.5332 27.3326 23.1994 29.7612 22.6831ZM42.2966 41.0474C42.1329 41.1318 41.9487 41.1686 41.7651 41.1536C41.5815 41.1386 41.4057 41.0724 41.2579 40.9624C39.5274 39.7046 36.5169 38.2031 32 38.2031C27.4831 38.2031 24.4726 39.7046 22.7422 40.9624C22.5943 41.0724 22.4186 41.1386 22.2349 41.1536C22.0513 41.1686 21.8671 41.1318 21.7034 41.0474C21.5405 40.9673 21.4037 40.8424 21.3091 40.6875C21.2146 40.5325 21.166 40.3538 21.1692 40.1723V36.7348C24.3338 34.4878 28.1189 33.2807 32 33.2807C35.8812 33.2807 39.6662 34.4878 42.8308 36.7348V40.1723C42.834 40.3538 42.7855 40.5325 42.6909 40.6875C42.5963 40.8424 42.4595 40.9673 42.2966 41.0474Z" fill="white"/>
</g>
<defs>
<filter id="filter0_b_119_4096" x="-41.2572" y="-41.2572" width="146.514" height="146.514" filterUnits="userSpaceOnUse" color-interpolation-filters="sRGB">
<feFlood flood-opacity="0" result="BackgroundImageFix"/>
<feGaussianBlur in="BackgroundImageFix" stdDeviation="20.6286"/>
<feComposite in2="SourceAlpha" operator="in" result="effect1_backgroundBlur_119_4096"/>
<feBlend mode="normal" in="SourceGraphic" in2="effect1_backgroundBlur_119_4096" result="shape"/>
</filter>
</defs>
</svg>
