<svg width="64" height="64" viewBox="0 0 64 64" fill="none" xmlns="http://www.w3.org/2000/svg">
<g filter="url(#filter0_b_119_4101)">
<path d="M0 32C0 14.3269 14.3269 0 32 0C49.6731 0 64 14.3269 64 32C64 49.6731 49.6731 64 32 64C14.3269 64 0 49.6731 0 32Z" fill="black"/>
<path d="M1 32C1 14.8792 14.8792 1 32 1C49.1208 1 63 14.8792 63 32C63 49.1208 49.1208 63 32 63C14.8792 63 1 49.1208 1 32Z" stroke="black" stroke-width="2"/>
<path d="M26.7763 38.4514C26.884 38.5323 27.0065 38.5911 27.1369 38.6246C27.2673 38.6581 27.403 38.6656 27.5362 38.6465C27.6695 38.6275 27.7977 38.5824 27.9135 38.5138C28.0294 38.4451 28.1305 38.3544 28.2112 38.2466C28.8312 37.4199 29.6351 36.749 30.5594 36.2869C31.4836 35.8248 32.5027 35.5842 33.536 35.5842C34.5693 35.5842 35.5884 35.8248 36.5127 36.2869C37.4369 36.749 38.2408 37.4199 38.8608 38.2466C38.9415 38.3542 39.0426 38.4448 39.1583 38.5133C39.274 38.5818 39.4021 38.6269 39.5352 38.6459C39.6683 38.6649 39.8039 38.6575 39.9342 38.6242C40.0644 38.5908 40.1868 38.5321 40.2944 38.4514C40.402 38.3707 40.4926 38.2696 40.5611 38.1539C40.6297 38.0382 40.6747 37.9101 40.6937 37.777C40.7127 37.6439 40.7053 37.5083 40.672 37.3781C40.6386 37.2478 40.5799 37.1254 40.4992 37.0178C39.5925 35.8021 38.3833 34.845 36.992 34.2415C37.7545 33.5453 38.2887 32.6349 38.5245 31.6298C38.7603 30.6246 38.6867 29.5716 38.3134 28.609C37.9401 27.6464 37.2845 26.8191 36.4326 26.2358C35.5807 25.6525 34.5723 25.3403 33.5399 25.3403C32.5074 25.3403 31.499 25.6525 30.6471 26.2358C29.7953 26.8191 29.1396 27.6464 28.7663 28.609C28.393 29.5716 28.3194 30.6246 28.5552 31.6298C28.791 32.6349 29.3252 33.5453 30.0877 34.2415C28.6936 34.8438 27.4817 35.8011 26.5728 37.0178C26.4097 37.2349 26.3396 37.5079 26.3777 37.7767C26.4159 38.0456 26.5593 38.2883 26.7763 38.4514ZM30.464 30.4642C30.464 29.8566 30.6442 29.2627 30.9817 28.7575C31.3193 28.2523 31.7991 27.8585 32.3604 27.626C32.9217 27.3935 33.5394 27.3327 34.1353 27.4512C34.7312 27.5698 35.2786 27.8623 35.7082 28.292C36.1379 28.7216 36.4305 29.269 36.549 29.8649C36.6675 30.4608 36.6067 31.0785 36.3742 31.6398C36.1417 32.2011 35.7479 32.6809 35.2427 33.0185C34.7375 33.356 34.1436 33.5362 33.536 33.5362C32.7213 33.5362 31.9399 33.2125 31.3638 32.6364C30.7877 32.0603 30.464 31.2789 30.464 30.4642ZM42.752 19.2002H24.32C23.7768 19.2002 23.2559 19.416 22.8719 19.8C22.4878 20.1841 22.272 20.705 22.272 21.2482V24.3202H20.224C19.9524 24.3202 19.692 24.4281 19.4999 24.6201C19.3079 24.8122 19.2 25.0726 19.2 25.3442C19.2 25.6158 19.3079 25.8762 19.4999 26.0683C19.692 26.2603 19.9524 26.3682 20.224 26.3682H22.272V31.4882H20.224C19.9524 31.4882 19.692 31.5961 19.4999 31.7881C19.3079 31.9802 19.2 32.2406 19.2 32.5122C19.2 32.7838 19.3079 33.0442 19.4999 33.2363C19.692 33.4283 19.9524 33.5362 20.224 33.5362H22.272V38.6562H20.224C19.9524 38.6562 19.692 38.7641 19.4999 38.9561C19.3079 39.1482 19.2 39.4086 19.2 39.6802C19.2 39.9518 19.3079 40.2122 19.4999 40.4043C19.692 40.5963 19.9524 40.7042 20.224 40.7042H22.272V43.7762C22.272 44.3194 22.4878 44.8403 22.8719 45.2243C23.2559 45.6084 23.7768 45.8242 24.32 45.8242H42.752C43.2952 45.8242 43.8161 45.6084 44.2002 45.2243C44.5842 44.8403 44.8 44.3194 44.8 43.7762V21.2482C44.8 20.705 44.5842 20.1841 44.2002 19.8C43.8161 19.416 43.2952 19.2002 42.752 19.2002ZM42.752 43.7762H24.32V21.2482H42.752V43.7762Z" fill="white"/>
</g>
<defs>
<filter id="filter0_b_119_4101" x="-41.2572" y="-41.2572" width="146.514" height="146.514" filterUnits="userSpaceOnUse" color-interpolation-filters="sRGB">
<feFlood flood-opacity="0" result="BackgroundImageFix"/>
<feGaussianBlur in="BackgroundImageFix" stdDeviation="20.6286"/>
<feComposite in2="SourceAlpha" operator="in" result="effect1_backgroundBlur_119_4101"/>
<feBlend mode="normal" in="SourceGraphic" in2="effect1_backgroundBlur_119_4101" result="shape"/>
</filter>
</defs>
</svg>
