<svg width="25" height="25" viewBox="0 0 25 25" fill="none" xmlns="http://www.w3.org/2000/svg">
<path d="M22.2907 8.04032L10.2907 20.0403C10.221 20.1101 10.1383 20.1654 10.0473 20.2031C9.95622 20.2409 9.85862 20.2603 9.76006 20.2603C9.6615 20.2603 9.5639 20.2409 9.47286 20.2031C9.38181 20.1654 9.29909 20.1101 9.22943 20.0403L3.97944 14.7903C3.83871 14.6496 3.75964 14.4587 3.75964 14.2597C3.75964 14.0607 3.83871 13.8698 3.97944 13.7291C4.12017 13.5883 4.31104 13.5093 4.51006 13.5093C4.70908 13.5093 4.89996 13.5883 5.04069 13.7291L9.76006 18.4494L21.2294 6.97907C21.3702 6.83834 21.561 6.75928 21.7601 6.75928C21.9591 6.75928 22.15 6.83834 22.2907 6.97907C22.4314 7.1198 22.5105 7.31067 22.5105 7.50969C22.5105 7.70872 22.4314 7.89959 22.2907 8.04032Z" fill="white"/>
</svg>
