<svg width="420" height="474" viewBox="0 0 420 474" fill="none" xmlns="http://www.w3.org/2000/svg">
<g filter="url(#filter0_b_119_3951)">
<rect y="0.800781" width="419.2" height="223.4" rx="19.2" fill="white" fill-opacity="0.4"/>
<rect y="0.800781" width="419.2" height="223.4" rx="19.2" fill="url(#paint0_linear_119_3951)"/>
<rect x="1.01897" y="1.81975" width="417.162" height="221.362" rx="18.181" stroke="url(#paint1_linear_119_3951)" stroke-width="2.03795"/>
<path d="M63.4944 56.4568V69.8008H61.3056V60.6616L57.2352 69.8008H55.7184L51.6288 60.6616V69.8008H49.44V56.4568H51.8016L56.4864 66.9208L61.152 56.4568H63.4944ZM76.0673 64.252C76.0673 64.6488 76.0417 65.0072 75.9905 65.3272H67.9073C67.9713 66.172 68.2849 66.8504 68.8481 67.3624C69.4113 67.8744 70.1025 68.1304 70.9217 68.1304C72.0993 68.1304 72.9313 67.6376 73.4177 66.652H75.7793C75.4593 67.6248 74.8769 68.4248 74.0321 69.052C73.2001 69.6664 72.1633 69.9736 70.9217 69.9736C69.9105 69.9736 69.0017 69.7496 68.1953 69.3016C67.4017 68.8408 66.7745 68.2008 66.3137 67.3816C65.8657 66.5496 65.6417 65.5896 65.6417 64.5016C65.6417 63.4136 65.8593 62.46 66.2945 61.6408C66.7425 60.8088 67.3633 60.1688 68.1569 59.7208C68.9633 59.2728 69.8849 59.0488 70.9217 59.0488C71.9201 59.0488 72.8097 59.2664 73.5905 59.7016C74.3713 60.1368 74.9793 60.7512 75.4145 61.5448C75.8497 62.3256 76.0673 63.228 76.0673 64.252ZM73.7825 63.5608C73.7697 62.7544 73.4817 62.108 72.9185 61.6216C72.3553 61.1352 71.6577 60.892 70.8257 60.892C70.0705 60.892 69.4241 61.1352 68.8865 61.6216C68.3489 62.0952 68.0289 62.7416 67.9265 63.5608H73.7825ZM80.4101 60.7576C80.7301 60.22 81.1525 59.804 81.6773 59.5096C82.2149 59.2024 82.8485 59.0488 83.5781 59.0488V61.3144H83.0213C82.1637 61.3144 81.5109 61.532 81.0629 61.9672C80.6277 62.4024 80.4101 63.1576 80.4101 64.2328V69.8008H78.2213V59.2216H80.4101V60.7576ZM84.8604 64.5016C84.8604 63.4136 85.078 62.46 85.5132 61.6408C85.9612 60.8088 86.5756 60.1688 87.3564 59.7208C88.1372 59.2728 89.0332 59.0488 90.0444 59.0488C91.3244 59.0488 92.3804 59.356 93.2124 59.9704C94.0572 60.572 94.6268 61.436 94.9212 62.5624H92.5596C92.3676 62.0376 92.0604 61.628 91.638 61.3336C91.2156 61.0392 90.6844 60.892 90.0444 60.892C89.1484 60.892 88.4316 61.212 87.894 61.852C87.3692 62.4792 87.1068 63.3624 87.1068 64.5016C87.1068 65.6408 87.3692 66.5304 87.894 67.1704C88.4316 67.8104 89.1484 68.1304 90.0444 68.1304C91.3116 68.1304 92.15 67.5736 92.5596 66.46H94.9212C94.614 67.5352 94.038 68.3928 93.1932 69.0328C92.3484 69.66 91.2988 69.9736 90.0444 69.9736C89.0332 69.9736 88.1372 69.7496 87.3564 69.3016C86.5756 68.8408 85.9612 68.2008 85.5132 67.3816C85.078 66.5496 84.8604 65.5896 84.8604 64.5016ZM102.575 59.0488C103.381 59.0488 104.098 59.2216 104.725 59.5672C105.365 59.9128 105.864 60.4248 106.223 61.1032C106.594 61.7816 106.779 62.6008 106.779 63.5608V69.8008H104.61V63.8872C104.61 62.94 104.373 62.2168 103.899 61.7176C103.426 61.2056 102.779 60.9496 101.96 60.9496C101.141 60.9496 100.488 61.2056 100.002 61.7176C99.5281 62.2168 99.2913 62.94 99.2913 63.8872V69.8008H97.1025V55.5928H99.2913V60.4504C99.6625 60.0024 100.13 59.6568 100.693 59.4136C101.269 59.1704 101.896 59.0488 102.575 59.0488ZM108.842 64.4632C108.842 63.4008 109.059 62.46 109.494 61.6408C109.942 60.8216 110.544 60.188 111.299 59.74C112.067 59.2792 112.912 59.0488 113.834 59.0488C114.666 59.0488 115.389 59.2152 116.003 59.548C116.63 59.868 117.13 60.2712 117.501 60.7576V59.2216H119.709V69.8008H117.501V68.2264C117.13 68.7256 116.624 69.1416 115.984 69.4744C115.344 69.8072 114.614 69.9736 113.795 69.9736C112.886 69.9736 112.054 69.7432 111.299 69.2824C110.544 68.8088 109.942 68.156 109.494 67.324C109.059 66.4792 108.842 65.5256 108.842 64.4632ZM117.501 64.5016C117.501 63.772 117.347 63.1384 117.04 62.6008C116.746 62.0632 116.355 61.6536 115.869 61.372C115.382 61.0904 114.858 60.9496 114.294 60.9496C113.731 60.9496 113.206 61.0904 112.72 61.372C112.234 61.6408 111.837 62.044 111.53 62.5816C111.235 63.1064 111.088 63.7336 111.088 64.4632C111.088 65.1928 111.235 65.8328 111.53 66.3832C111.837 66.9336 112.234 67.356 112.72 67.6504C113.219 67.932 113.744 68.0728 114.294 68.0728C114.858 68.0728 115.382 67.932 115.869 67.6504C116.355 67.3688 116.746 66.9592 117.04 66.4216C117.347 65.8712 117.501 65.2312 117.501 64.5016ZM127.921 59.0488C128.753 59.0488 129.496 59.2216 130.149 59.5672C130.814 59.9128 131.333 60.4248 131.704 61.1032C132.075 61.7816 132.261 62.6008 132.261 63.5608V69.8008H130.091V63.8872C130.091 62.94 129.854 62.2168 129.381 61.7176C128.907 61.2056 128.261 60.9496 127.441 60.9496C126.622 60.9496 125.969 61.2056 125.483 61.7176C125.009 62.2168 124.773 62.94 124.773 63.8872V69.8008H122.584V59.2216H124.773V60.4312C125.131 59.996 125.585 59.6568 126.136 59.4136C126.699 59.1704 127.294 59.0488 127.921 59.0488ZM134.323 64.4632C134.323 63.4008 134.541 62.46 134.976 61.6408C135.424 60.8216 136.025 60.188 136.781 59.74C137.549 59.2792 138.4 59.0488 139.334 59.0488C140.025 59.0488 140.704 59.2024 141.369 59.5096C142.048 59.804 142.585 60.2008 142.982 60.7V55.5928H145.19V69.8008H142.982V68.2072C142.624 68.7192 142.125 69.1416 141.485 69.4744C140.857 69.8072 140.134 69.9736 139.315 69.9736C138.393 69.9736 137.549 69.7432 136.781 69.2824C136.025 68.8088 135.424 68.156 134.976 67.324C134.541 66.4792 134.323 65.5256 134.323 64.4632ZM142.982 64.5016C142.982 63.772 142.829 63.1384 142.521 62.6008C142.227 62.0632 141.837 61.6536 141.35 61.372C140.864 61.0904 140.339 60.9496 139.776 60.9496C139.213 60.9496 138.688 61.0904 138.201 61.372C137.715 61.6408 137.318 62.044 137.011 62.5816C136.717 63.1064 136.569 63.7336 136.569 64.4632C136.569 65.1928 136.717 65.8328 137.011 66.3832C137.318 66.9336 137.715 67.356 138.201 67.6504C138.701 67.932 139.225 68.0728 139.776 68.0728C140.339 68.0728 140.864 67.932 141.35 67.6504C141.837 67.3688 142.227 66.9592 142.521 66.4216C142.829 65.8712 142.982 65.2312 142.982 64.5016ZM149.179 57.82C148.782 57.82 148.449 57.6856 148.18 57.4168C147.911 57.148 147.777 56.8152 147.777 56.4184C147.777 56.0216 147.911 55.6888 148.18 55.42C148.449 55.1512 148.782 55.0168 149.179 55.0168C149.563 55.0168 149.889 55.1512 150.158 55.42C150.427 55.6888 150.561 56.0216 150.561 56.4184C150.561 56.8152 150.427 57.148 150.158 57.4168C149.889 57.6856 149.563 57.82 149.179 57.82ZM150.254 59.2216V69.8008H148.065V59.2216H150.254ZM156.968 69.9736C156.136 69.9736 155.387 69.8264 154.721 69.532C154.068 69.2248 153.55 68.8152 153.166 68.3032C152.782 67.7784 152.577 67.196 152.552 66.556H154.817C154.856 67.004 155.067 67.3816 155.451 67.6888C155.848 67.9832 156.34 68.1304 156.929 68.1304C157.544 68.1304 158.017 68.0152 158.35 67.7848C158.696 67.5416 158.868 67.2344 158.868 66.8632C158.868 66.4664 158.676 66.172 158.292 65.98C157.921 65.788 157.326 65.5768 156.507 65.3464C155.713 65.1288 155.067 64.9176 154.568 64.7128C154.068 64.508 153.633 64.1944 153.262 63.772C152.904 63.3496 152.724 62.7928 152.724 62.1016C152.724 61.5384 152.891 61.0264 153.224 60.5656C153.556 60.092 154.03 59.7208 154.644 59.452C155.272 59.1832 155.988 59.0488 156.795 59.0488C157.998 59.0488 158.964 59.356 159.694 59.9704C160.436 60.572 160.833 61.3976 160.884 62.4472H158.696C158.657 61.9736 158.465 61.596 158.12 61.3144C157.774 61.0328 157.307 60.892 156.718 60.892C156.142 60.892 155.7 61.0008 155.393 61.2184C155.086 61.436 154.932 61.724 154.932 62.0824C154.932 62.364 155.035 62.6008 155.24 62.7928C155.444 62.9848 155.694 63.1384 155.988 63.2536C156.283 63.356 156.718 63.4904 157.294 63.6568C158.062 63.8616 158.689 64.0728 159.176 64.2904C159.675 64.4952 160.104 64.8024 160.462 65.212C160.82 65.6216 161.006 66.1656 161.019 66.844C161.019 67.4456 160.852 67.9832 160.52 68.4568C160.187 68.9304 159.713 69.3016 159.099 69.5704C158.497 69.8392 157.787 69.9736 156.968 69.9736ZM173.08 64.252C173.08 64.6488 173.054 65.0072 173.003 65.3272H164.92C164.984 66.172 165.297 66.8504 165.861 67.3624C166.424 67.8744 167.115 68.1304 167.934 68.1304C169.112 68.1304 169.944 67.6376 170.43 66.652H172.792C172.472 67.6248 171.889 68.4248 171.045 69.052C170.213 69.6664 169.176 69.9736 167.934 69.9736C166.923 69.9736 166.014 69.7496 165.208 69.3016C164.414 68.8408 163.787 68.2008 163.326 67.3816C162.878 66.5496 162.654 65.5896 162.654 64.5016C162.654 63.4136 162.872 62.46 163.307 61.6408C163.755 60.8088 164.376 60.1688 165.169 59.7208C165.976 59.2728 166.897 59.0488 167.934 59.0488C168.933 59.0488 169.822 59.2664 170.603 59.7016C171.384 60.1368 171.992 60.7512 172.427 61.5448C172.862 62.3256 173.08 63.228 173.08 64.252ZM170.795 63.5608C170.782 62.7544 170.494 62.108 169.931 61.6216C169.368 61.1352 168.67 60.892 167.838 60.892C167.083 60.892 166.437 61.1352 165.899 61.6216C165.361 62.0952 165.041 62.7416 164.939 63.5608H170.795ZM179.492 64.5016C179.492 63.4136 179.709 62.46 180.144 61.6408C180.592 60.8088 181.207 60.1688 181.988 59.7208C182.768 59.2728 183.664 59.0488 184.676 59.0488C185.956 59.0488 187.012 59.356 187.844 59.9704C188.688 60.572 189.258 61.436 189.552 62.5624H187.191C186.999 62.0376 186.692 61.628 186.269 61.3336C185.847 61.0392 185.316 60.892 184.676 60.892C183.78 60.892 183.063 61.212 182.525 61.852C182 62.4792 181.738 63.3624 181.738 64.5016C181.738 65.6408 182 66.5304 182.525 67.1704C183.063 67.8104 183.78 68.1304 184.676 68.1304C185.943 68.1304 186.781 67.5736 187.191 66.46H189.552C189.245 67.5352 188.669 68.3928 187.824 69.0328C186.98 69.66 185.93 69.9736 184.676 69.9736C183.664 69.9736 182.768 69.7496 181.988 69.3016C181.207 68.8408 180.592 68.2008 180.144 67.3816C179.709 66.5496 179.492 65.5896 179.492 64.5016ZM191.004 64.4632C191.004 63.4008 191.222 62.46 191.657 61.6408C192.105 60.8216 192.707 60.188 193.462 59.74C194.23 59.2792 195.075 59.0488 195.996 59.0488C196.828 59.0488 197.551 59.2152 198.166 59.548C198.793 59.868 199.292 60.2712 199.663 60.7576V59.2216H201.871V69.8008H199.663V68.2264C199.292 68.7256 198.787 69.1416 198.147 69.4744C197.507 69.8072 196.777 69.9736 195.958 69.9736C195.049 69.9736 194.217 69.7432 193.462 69.2824C192.707 68.8088 192.105 68.156 191.657 67.324C191.222 66.4792 191.004 65.5256 191.004 64.4632ZM199.663 64.5016C199.663 63.772 199.51 63.1384 199.203 62.6008C198.908 62.0632 198.518 61.6536 198.031 61.372C197.545 61.0904 197.02 60.9496 196.457 60.9496C195.894 60.9496 195.369 61.0904 194.883 61.372C194.396 61.6408 193.999 62.044 193.692 62.5816C193.398 63.1064 193.251 63.7336 193.251 64.4632C193.251 65.1928 193.398 65.8328 193.692 66.3832C193.999 66.9336 194.396 67.356 194.883 67.6504C195.382 67.932 195.907 68.0728 196.457 68.0728C197.02 68.0728 197.545 67.932 198.031 67.6504C198.518 67.3688 198.908 66.9592 199.203 66.4216C199.51 65.8712 199.663 65.2312 199.663 64.5016ZM207.3 61.0072V66.8632C207.3 67.26 207.389 67.548 207.569 67.7272C207.761 67.8936 208.081 67.9768 208.529 67.9768H209.873V69.8008H208.145C207.159 69.8008 206.404 69.5704 205.879 69.1096C205.354 68.6488 205.092 67.9 205.092 66.8632V61.0072H203.844V59.2216H205.092V56.5912H207.3V59.2216H209.873V61.0072H207.3ZM221.586 64.252C221.586 64.6488 221.56 65.0072 221.509 65.3272H213.426C213.49 66.172 213.804 66.8504 214.367 67.3624C214.93 67.8744 215.621 68.1304 216.44 68.1304C217.618 68.1304 218.45 67.6376 218.936 66.652H221.298C220.978 67.6248 220.396 68.4248 219.551 69.052C218.719 69.6664 217.682 69.9736 216.44 69.9736C215.429 69.9736 214.52 69.7496 213.714 69.3016C212.92 68.8408 212.293 68.2008 211.832 67.3816C211.384 66.5496 211.16 65.5896 211.16 64.5016C211.16 63.4136 211.378 62.46 211.813 61.6408C212.261 60.8088 212.882 60.1688 213.676 59.7208C214.482 59.2728 215.404 59.0488 216.44 59.0488C217.439 59.0488 218.328 59.2664 219.109 59.7016C219.89 60.1368 220.498 60.7512 220.933 61.5448C221.368 62.3256 221.586 63.228 221.586 64.252ZM219.301 63.5608C219.288 62.7544 219 62.108 218.437 61.6216C217.874 61.1352 217.176 60.892 216.344 60.892C215.589 60.892 214.943 61.1352 214.405 61.6216C213.868 62.0952 213.548 62.7416 213.445 63.5608H219.301ZM228.002 59.0488C228.822 59.0488 229.545 59.2152 230.172 59.548C230.812 59.868 231.311 60.2712 231.67 60.7576V59.2216H233.878V69.9736C233.878 70.9464 233.673 71.8104 233.263 72.5656C232.854 73.3336 232.258 73.9352 231.478 74.3704C230.71 74.8056 229.788 75.0232 228.713 75.0232C227.279 75.0232 226.089 74.684 225.142 74.0056C224.194 73.34 223.657 72.4312 223.529 71.2792H225.698C225.865 71.8296 226.217 72.2712 226.754 72.604C227.305 72.9496 227.958 73.1224 228.713 73.1224C229.596 73.1224 230.306 72.8536 230.844 72.316C231.394 71.7784 231.67 70.9976 231.67 69.9736V68.2072C231.298 68.7064 230.793 69.1288 230.153 69.4744C229.526 69.8072 228.809 69.9736 228.002 69.9736C227.081 69.9736 226.236 69.7432 225.468 69.2824C224.713 68.8088 224.111 68.156 223.663 67.324C223.228 66.4792 223.01 65.5256 223.01 64.4632C223.01 63.4008 223.228 62.46 223.663 61.6408C224.111 60.8216 224.713 60.188 225.468 59.74C226.236 59.2792 227.081 59.0488 228.002 59.0488ZM231.67 64.5016C231.67 63.772 231.516 63.1384 231.209 62.6008C230.914 62.0632 230.524 61.6536 230.038 61.372C229.551 61.0904 229.026 60.9496 228.463 60.9496C227.9 60.9496 227.375 61.0904 226.889 61.372C226.402 61.6408 226.006 62.044 225.698 62.5816C225.404 63.1064 225.257 63.7336 225.257 64.4632C225.257 65.1928 225.404 65.8328 225.698 66.3832C226.006 66.9336 226.402 67.356 226.889 67.6504C227.388 67.932 227.913 68.0728 228.463 68.0728C229.026 68.0728 229.551 67.932 230.038 67.6504C230.524 67.3688 230.914 66.9592 231.209 66.4216C231.516 65.8712 231.67 65.2312 231.67 64.5016ZM241.341 69.9736C240.343 69.9736 239.441 69.7496 238.634 69.3016C237.828 68.8408 237.194 68.2008 236.733 67.3816C236.273 66.5496 236.042 65.5896 236.042 64.5016C236.042 63.4264 236.279 62.4728 236.753 61.6408C237.226 60.8088 237.873 60.1688 238.692 59.7208C239.511 59.2728 240.426 59.0488 241.437 59.0488C242.449 59.0488 243.364 59.2728 244.183 59.7208C245.002 60.1688 245.649 60.8088 246.122 61.6408C246.596 62.4728 246.833 63.4264 246.833 64.5016C246.833 65.5768 246.589 66.5304 246.103 67.3624C245.617 68.1944 244.951 68.8408 244.106 69.3016C243.274 69.7496 242.353 69.9736 241.341 69.9736ZM241.341 68.0728C241.905 68.0728 242.429 67.9384 242.916 67.6696C243.415 67.4008 243.818 66.9976 244.125 66.46C244.433 65.9224 244.586 65.2696 244.586 64.5016C244.586 63.7336 244.439 63.0872 244.145 62.5624C243.85 62.0248 243.46 61.6216 242.973 61.3528C242.487 61.084 241.962 60.9496 241.399 60.9496C240.836 60.9496 240.311 61.084 239.825 61.3528C239.351 61.6216 238.973 62.0248 238.692 62.5624C238.41 63.0872 238.269 63.7336 238.269 64.5016C238.269 65.6408 238.557 66.524 239.133 67.1512C239.722 67.7656 240.458 68.0728 241.341 68.0728ZM251.185 60.7576C251.505 60.22 251.927 59.804 252.452 59.5096C252.99 59.2024 253.623 59.0488 254.353 59.0488V61.3144H253.796C252.939 61.3144 252.286 61.532 251.838 61.9672C251.403 62.4024 251.185 63.1576 251.185 64.2328V69.8008H248.996V59.2216H251.185V60.7576ZM257.479 57.82C257.082 57.82 256.749 57.6856 256.48 57.4168C256.211 57.148 256.077 56.8152 256.077 56.4184C256.077 56.0216 256.211 55.6888 256.48 55.42C256.749 55.1512 257.082 55.0168 257.479 55.0168C257.863 55.0168 258.189 55.1512 258.458 55.42C258.727 55.6888 258.861 56.0216 258.861 56.4184C258.861 56.8152 258.727 57.148 258.458 57.4168C258.189 57.6856 257.863 57.82 257.479 57.82ZM258.554 59.2216V69.8008H256.365V59.2216H258.554ZM271.124 64.252C271.124 64.6488 271.098 65.0072 271.047 65.3272H262.964C263.028 66.172 263.341 66.8504 263.904 67.3624C264.468 67.8744 265.159 68.1304 265.978 68.1304C267.156 68.1304 267.988 67.6376 268.474 66.652H270.836C270.516 67.6248 269.933 68.4248 269.088 69.052C268.256 69.6664 267.22 69.9736 265.978 69.9736C264.967 69.9736 264.058 69.7496 263.252 69.3016C262.458 68.8408 261.831 68.2008 261.37 67.3816C260.922 66.5496 260.698 65.5896 260.698 64.5016C260.698 63.4136 260.916 62.46 261.351 61.6408C261.799 60.8088 262.42 60.1688 263.213 59.7208C264.02 59.2728 264.941 59.0488 265.978 59.0488C266.976 59.0488 267.866 59.2664 268.647 59.7016C269.428 60.1368 270.036 60.7512 270.471 61.5448C270.906 62.3256 271.124 63.228 271.124 64.252ZM268.839 63.5608C268.826 62.7544 268.538 62.108 267.975 61.6216C267.412 61.1352 266.714 60.892 265.882 60.892C265.127 60.892 264.48 61.1352 263.943 61.6216C263.405 62.0952 263.085 62.7416 262.983 63.5608H268.839ZM277.118 69.9736C276.286 69.9736 275.537 69.8264 274.871 69.532C274.218 69.2248 273.7 68.8152 273.316 68.3032C272.932 67.7784 272.727 67.196 272.702 66.556H274.967C275.006 67.004 275.217 67.3816 275.601 67.6888C275.998 67.9832 276.49 68.1304 277.079 68.1304C277.694 68.1304 278.167 68.0152 278.5 67.7848C278.846 67.5416 279.018 67.2344 279.018 66.8632C279.018 66.4664 278.826 66.172 278.442 65.98C278.071 65.788 277.476 65.5768 276.657 65.3464C275.863 65.1288 275.217 64.9176 274.718 64.7128C274.218 64.508 273.783 64.1944 273.412 63.772C273.054 63.3496 272.874 62.7928 272.874 62.1016C272.874 61.5384 273.041 61.0264 273.374 60.5656C273.706 60.092 274.18 59.7208 274.794 59.452C275.422 59.1832 276.138 59.0488 276.945 59.0488C278.148 59.0488 279.114 59.356 279.844 59.9704C280.586 60.572 280.983 61.3976 281.034 62.4472H278.846C278.807 61.9736 278.615 61.596 278.27 61.3144C277.924 61.0328 277.457 60.892 276.868 60.892C276.292 60.892 275.85 61.0008 275.543 61.2184C275.236 61.436 275.082 61.724 275.082 62.0824C275.082 62.364 275.185 62.6008 275.39 62.7928C275.594 62.9848 275.844 63.1384 276.138 63.2536C276.433 63.356 276.868 63.4904 277.444 63.6568C278.212 63.8616 278.839 64.0728 279.326 64.2904C279.825 64.4952 280.254 64.8024 280.612 65.212C280.97 65.6216 281.156 66.1656 281.169 66.844C281.169 67.4456 281.002 67.9832 280.67 68.4568C280.337 68.9304 279.863 69.3016 279.249 69.5704C278.647 69.8392 277.937 69.9736 277.118 69.9736Z" fill="#898CA9"/>
<path d="M51.696 118.875C51.9835 115.097 53.4413 112.14 56.0696 110.005C58.6979 107.869 62.1064 106.801 66.2952 106.801C69.0877 106.801 71.4901 107.315 73.5024 108.341C75.5557 109.327 77.0957 110.682 78.1224 112.407C79.1901 114.132 79.724 116.083 79.724 118.259C79.724 120.805 78.9848 123.002 77.5064 124.85C76.0691 126.698 74.18 127.889 71.8392 128.423V128.731C74.5085 129.388 76.6235 130.682 78.184 132.612C79.7445 134.542 80.5248 137.068 80.5248 140.189C80.5248 142.529 79.9909 144.644 78.9232 146.533C77.8555 148.381 76.2539 149.839 74.1184 150.907C71.9829 151.975 69.4163 152.509 66.4184 152.509C62.0653 152.509 58.4925 151.379 55.7 149.121C52.9075 146.821 51.3469 143.577 51.0184 139.388H56.4392C56.7267 141.852 57.7328 143.864 59.4576 145.425C61.1824 146.985 63.4821 147.765 66.3568 147.765C69.2315 147.765 71.408 147.026 72.8864 145.548C74.4059 144.028 75.1656 142.078 75.1656 139.696C75.1656 136.616 74.1389 134.398 72.0856 133.043C70.0323 131.688 66.9317 131.01 62.784 131.01H61.3672V126.329H62.8456C66.6237 126.288 69.4779 125.672 71.408 124.481C73.3381 123.249 74.3032 121.36 74.3032 118.813C74.3032 116.637 73.5845 114.892 72.1472 113.577C70.7509 112.263 68.7387 111.606 66.1104 111.606C63.5643 111.606 61.5109 112.263 59.9504 113.577C58.3899 114.892 57.4659 116.657 57.1784 118.875H51.696ZM88.3589 129.47C88.3589 122.407 89.5088 116.904 91.8085 112.961C94.1083 108.978 98.1328 106.986 103.882 106.986C109.59 106.986 113.594 108.978 115.894 112.961C118.194 116.904 119.344 122.407 119.344 129.47C119.344 136.657 118.194 142.242 115.894 146.225C113.594 150.209 109.59 152.201 103.882 152.201C98.1328 152.201 94.1083 150.209 91.8085 146.225C89.5088 142.242 88.3589 136.657 88.3589 129.47ZM113.8 129.47C113.8 125.897 113.553 122.879 113.061 120.415C112.609 117.91 111.644 115.898 110.165 114.378C108.728 112.859 106.634 112.099 103.882 112.099C101.09 112.099 98.9541 112.859 97.4757 114.378C96.0384 115.898 95.0733 117.91 94.5805 120.415C94.1288 122.879 93.9029 125.897 93.9029 129.47C93.9029 133.166 94.1288 136.267 94.5805 138.772C95.0733 141.277 96.0384 143.289 97.4757 144.809C98.9541 146.328 101.09 147.088 103.882 147.088C106.634 147.088 108.728 146.328 110.165 144.809C111.644 143.289 112.609 141.277 113.061 138.772C113.553 136.267 113.8 133.166 113.8 129.47ZM160.261 132.057H147.14V145.363H141.904V132.057H128.845V127.314H141.904V113.947H147.14V127.314H160.261V132.057Z" fill="#272830"/>
</g>
<g filter="url(#filter1_b_119_3951)">
<rect y="249.801" width="419.2" height="223.4" rx="19.2" fill="white" fill-opacity="0.4"/>
<rect y="249.801" width="419.2" height="223.4" rx="19.2" fill="url(#paint2_linear_119_3951)"/>
<rect x="1.01897" y="250.82" width="417.162" height="221.362" rx="18.181" stroke="url(#paint3_linear_119_3951)" stroke-width="2.03795"/>
<path d="M60.096 305.457V318.801H57.9072V312.964H51.6288V318.801H49.44V305.457H51.6288V311.178H57.9072V305.457H60.096ZM64.0911 306.82C63.6943 306.82 63.3615 306.686 63.0927 306.417C62.8239 306.148 62.6895 305.815 62.6895 305.418C62.6895 305.022 62.8239 304.689 63.0927 304.42C63.3615 304.151 63.6943 304.017 64.0911 304.017C64.4751 304.017 64.8015 304.151 65.0703 304.42C65.3391 304.689 65.4735 305.022 65.4735 305.418C65.4735 305.815 65.3391 306.148 65.0703 306.417C64.8015 306.686 64.4751 306.82 64.0911 306.82ZM65.1663 308.222V318.801H62.9775V308.222H65.1663ZM72.3024 308.049C73.1216 308.049 73.8448 308.215 74.472 308.548C75.112 308.868 75.6112 309.271 75.9696 309.758V308.222H78.1776V318.974C78.1776 319.946 77.9728 320.81 77.5632 321.566C77.1536 322.334 76.5584 322.935 75.7776 323.37C75.0096 323.806 74.088 324.023 73.0128 324.023C71.5792 324.023 70.3888 323.684 69.4416 323.006C68.4944 322.34 67.9568 321.431 67.8288 320.279H69.9984C70.1648 320.83 70.5168 321.271 71.0544 321.604C71.6048 321.95 72.2576 322.122 73.0128 322.122C73.896 322.122 74.6064 321.854 75.144 321.316C75.6944 320.778 75.9696 319.998 75.9696 318.974V317.207C75.5984 317.706 75.0928 318.129 74.4528 318.474C73.8256 318.807 73.1088 318.974 72.3024 318.974C71.3808 318.974 70.536 318.743 69.768 318.282C69.0128 317.809 68.4112 317.156 67.9632 316.324C67.528 315.479 67.3104 314.526 67.3104 313.463C67.3104 312.401 67.528 311.46 67.9632 310.641C68.4112 309.822 69.0128 309.188 69.768 308.74C70.536 308.279 71.3808 308.049 72.3024 308.049ZM75.9696 313.502C75.9696 312.772 75.816 312.138 75.5088 311.601C75.2144 311.063 74.824 310.654 74.3376 310.372C73.8512 310.09 73.3264 309.95 72.7632 309.95C72.2 309.95 71.6752 310.09 71.1888 310.372C70.7024 310.641 70.3056 311.044 69.9984 311.582C69.704 312.106 69.5568 312.734 69.5568 313.463C69.5568 314.193 69.704 314.833 69.9984 315.383C70.3056 315.934 70.7024 316.356 71.1888 316.65C71.688 316.932 72.2128 317.073 72.7632 317.073C73.3264 317.073 73.8512 316.932 74.3376 316.65C74.824 316.369 75.2144 315.959 75.5088 315.422C75.816 314.871 75.9696 314.231 75.9696 313.502ZM86.5245 308.049C87.3309 308.049 88.0477 308.222 88.6749 308.567C89.3149 308.913 89.8141 309.425 90.1725 310.103C90.5437 310.782 90.7293 311.601 90.7293 312.561V318.801H88.5597V312.887C88.5597 311.94 88.3229 311.217 87.8493 310.718C87.3757 310.206 86.7293 309.95 85.9101 309.95C85.0909 309.95 84.4381 310.206 83.9517 310.718C83.4781 311.217 83.2413 311.94 83.2413 312.887V318.801H81.0525V304.593H83.2413V309.45C83.6125 309.002 84.0797 308.657 84.6429 308.414C85.2189 308.17 85.8461 308.049 86.5245 308.049ZM101.643 310.929V312.772H93.7517V310.929H101.643ZM104.023 313.463C104.023 312.401 104.241 311.46 104.676 310.641C105.124 309.822 105.725 309.188 106.481 308.74C107.249 308.279 108.1 308.049 109.034 308.049C109.853 308.049 110.577 308.215 111.204 308.548C111.844 308.881 112.337 309.284 112.682 309.758V308.222H114.89V323.831H112.682V317.265C112.337 317.738 111.837 318.142 111.185 318.474C110.532 318.807 109.789 318.974 108.957 318.974C108.049 318.974 107.217 318.743 106.461 318.282C105.719 317.809 105.124 317.156 104.676 316.324C104.241 315.479 104.023 314.526 104.023 313.463ZM112.682 313.502C112.682 312.772 112.529 312.138 112.221 311.601C111.927 311.063 111.537 310.654 111.05 310.372C110.564 310.09 110.039 309.95 109.476 309.95C108.913 309.95 108.388 310.09 107.901 310.372C107.415 310.641 107.018 311.044 106.711 311.582C106.417 312.106 106.269 312.734 106.269 313.463C106.269 314.193 106.417 314.833 106.711 315.383C107.018 315.934 107.415 316.356 107.901 316.65C108.401 316.932 108.925 317.073 109.476 317.073C110.039 317.073 110.564 316.932 111.05 316.65C111.537 316.369 111.927 315.959 112.221 315.422C112.529 314.871 112.682 314.231 112.682 313.502ZM127.346 308.222V318.801H125.157V317.553C124.811 317.988 124.357 318.334 123.794 318.59C123.243 318.833 122.655 318.954 122.027 318.954C121.195 318.954 120.447 318.782 119.781 318.436C119.128 318.09 118.61 317.578 118.226 316.9C117.855 316.222 117.669 315.402 117.669 314.442V308.222H119.839V314.116C119.839 315.063 120.075 315.793 120.549 316.305C121.023 316.804 121.669 317.054 122.488 317.054C123.307 317.054 123.954 316.804 124.427 316.305C124.914 315.793 125.157 315.063 125.157 314.116V308.222H127.346ZM129.504 313.463C129.504 312.401 129.722 311.46 130.157 310.641C130.605 309.822 131.207 309.188 131.962 308.74C132.73 308.279 133.575 308.049 134.496 308.049C135.328 308.049 136.051 308.215 136.666 308.548C137.293 308.868 137.792 309.271 138.163 309.758V308.222H140.371V318.801H138.163V317.226C137.792 317.726 137.287 318.142 136.647 318.474C136.007 318.807 135.277 318.974 134.458 318.974C133.549 318.974 132.717 318.743 131.962 318.282C131.207 317.809 130.605 317.156 130.157 316.324C129.722 315.479 129.504 314.526 129.504 313.463ZM138.163 313.502C138.163 312.772 138.01 312.138 137.703 311.601C137.408 311.063 137.018 310.654 136.531 310.372C136.045 310.09 135.52 309.95 134.957 309.95C134.394 309.95 133.869 310.09 133.383 310.372C132.896 310.641 132.499 311.044 132.192 311.582C131.898 312.106 131.751 312.734 131.751 313.463C131.751 314.193 131.898 314.833 132.192 315.383C132.499 315.934 132.896 316.356 133.383 316.65C133.882 316.932 134.407 317.073 134.957 317.073C135.52 317.073 136.045 316.932 136.531 316.65C137.018 316.369 137.408 315.959 137.703 315.422C138.01 314.871 138.163 314.231 138.163 313.502ZM145.435 304.593V318.801H143.246V304.593H145.435ZM149.422 306.82C149.026 306.82 148.693 306.686 148.424 306.417C148.155 306.148 148.021 305.815 148.021 305.418C148.021 305.022 148.155 304.689 148.424 304.42C148.693 304.151 149.026 304.017 149.422 304.017C149.806 304.017 150.133 304.151 150.402 304.42C150.67 304.689 150.805 305.022 150.805 305.418C150.805 305.815 150.67 306.148 150.402 306.417C150.133 306.686 149.806 306.82 149.422 306.82ZM150.498 308.222V318.801H148.309V308.222H150.498ZM155.925 310.007V315.863C155.925 316.26 156.014 316.548 156.194 316.727C156.386 316.894 156.706 316.977 157.154 316.977H158.498V318.801H156.77C155.784 318.801 155.029 318.57 154.504 318.11C153.979 317.649 153.717 316.9 153.717 315.863V310.007H152.469V308.222H153.717V305.591H155.925V308.222H158.498V310.007H155.925ZM170.038 308.222L163.549 323.774H161.283L163.433 318.628L159.267 308.222H161.705L164.681 316.286L167.773 308.222H170.038ZM180.518 318.974C179.686 318.974 178.937 318.826 178.271 318.532C177.618 318.225 177.1 317.815 176.716 317.303C176.332 316.778 176.127 316.196 176.102 315.556H178.367C178.406 316.004 178.617 316.382 179.001 316.689C179.398 316.983 179.89 317.13 180.479 317.13C181.094 317.13 181.567 317.015 181.9 316.785C182.246 316.542 182.418 316.234 182.418 315.863C182.418 315.466 182.226 315.172 181.842 314.98C181.471 314.788 180.876 314.577 180.057 314.346C179.263 314.129 178.617 313.918 178.118 313.713C177.618 313.508 177.183 313.194 176.812 312.772C176.454 312.35 176.274 311.793 176.274 311.102C176.274 310.538 176.441 310.026 176.774 309.566C177.106 309.092 177.58 308.721 178.194 308.452C178.822 308.183 179.538 308.049 180.345 308.049C181.548 308.049 182.514 308.356 183.244 308.97C183.986 309.572 184.383 310.398 184.434 311.447H182.246C182.207 310.974 182.015 310.596 181.67 310.314C181.324 310.033 180.857 309.892 180.268 309.892C179.692 309.892 179.25 310.001 178.943 310.218C178.636 310.436 178.482 310.724 178.482 311.082C178.482 311.364 178.585 311.601 178.79 311.793C178.994 311.985 179.244 312.138 179.538 312.254C179.833 312.356 180.268 312.49 180.844 312.657C181.612 312.862 182.239 313.073 182.726 313.29C183.225 313.495 183.654 313.802 184.012 314.212C184.37 314.622 184.556 315.166 184.569 315.844C184.569 316.446 184.402 316.983 184.07 317.457C183.737 317.93 183.263 318.302 182.649 318.57C182.047 318.839 181.337 318.974 180.518 318.974ZM196.515 308.222V318.801H194.326V317.553C193.98 317.988 193.526 318.334 192.963 318.59C192.412 318.833 191.823 318.954 191.196 318.954C190.364 318.954 189.615 318.782 188.95 318.436C188.297 318.09 187.779 317.578 187.395 316.9C187.023 316.222 186.838 315.402 186.838 314.442V308.222H189.007V314.116C189.007 315.063 189.244 315.793 189.718 316.305C190.191 316.804 190.838 317.054 191.657 317.054C192.476 317.054 193.123 316.804 193.596 316.305C194.083 315.793 194.326 315.063 194.326 314.116V308.222H196.515ZM201.591 309.777C201.963 309.29 202.468 308.881 203.108 308.548C203.748 308.215 204.471 308.049 205.278 308.049C206.199 308.049 207.038 308.279 207.793 308.74C208.561 309.188 209.163 309.822 209.598 310.641C210.033 311.46 210.251 312.401 210.251 313.463C210.251 314.526 210.033 315.479 209.598 316.324C209.163 317.156 208.561 317.809 207.793 318.282C207.038 318.743 206.199 318.974 205.278 318.974C204.471 318.974 203.755 318.814 203.127 318.494C202.5 318.161 201.988 317.751 201.591 317.265V323.831H199.403V308.222H201.591V309.777ZM208.023 313.463C208.023 312.734 207.87 312.106 207.563 311.582C207.268 311.044 206.871 310.641 206.372 310.372C205.886 310.09 205.361 309.95 204.798 309.95C204.247 309.95 203.723 310.09 203.223 310.372C202.737 310.654 202.34 311.063 202.033 311.601C201.739 312.138 201.591 312.772 201.591 313.502C201.591 314.231 201.739 314.871 202.033 315.422C202.34 315.959 202.737 316.369 203.223 316.65C203.723 316.932 204.247 317.073 204.798 317.073C205.361 317.073 205.886 316.932 206.372 316.65C206.871 316.356 207.268 315.934 207.563 315.383C207.87 314.833 208.023 314.193 208.023 313.463ZM214.604 309.777C214.975 309.29 215.481 308.881 216.121 308.548C216.761 308.215 217.484 308.049 218.29 308.049C219.212 308.049 220.05 308.279 220.805 308.74C221.573 309.188 222.175 309.822 222.61 310.641C223.045 311.46 223.263 312.401 223.263 313.463C223.263 314.526 223.045 315.479 222.61 316.324C222.175 317.156 221.573 317.809 220.805 318.282C220.05 318.743 219.212 318.974 218.29 318.974C217.484 318.974 216.767 318.814 216.14 318.494C215.513 318.161 215.001 317.751 214.604 317.265V323.831H212.415V308.222H214.604V309.777ZM221.036 313.463C221.036 312.734 220.882 312.106 220.575 311.582C220.281 311.044 219.884 310.641 219.385 310.372C218.898 310.09 218.373 309.95 217.81 309.95C217.26 309.95 216.735 310.09 216.236 310.372C215.749 310.654 215.353 311.063 215.045 311.601C214.751 312.138 214.604 312.772 214.604 313.502C214.604 314.231 214.751 314.871 215.045 315.422C215.353 315.959 215.749 316.369 216.236 316.65C216.735 316.932 217.26 317.073 217.81 317.073C218.373 317.073 218.898 316.932 219.385 316.65C219.884 316.356 220.281 315.934 220.575 315.383C220.882 314.833 221.036 314.193 221.036 313.463ZM227.616 304.593V318.801H225.428V304.593H227.616ZM240.013 308.222L233.524 323.774H231.258L233.408 318.628L229.242 308.222H231.68L234.656 316.286L237.748 308.222H240.013ZM240.935 313.502C240.935 312.414 241.153 311.46 241.588 310.641C242.036 309.809 242.651 309.169 243.431 308.721C244.212 308.273 245.108 308.049 246.119 308.049C247.399 308.049 248.455 308.356 249.287 308.97C250.132 309.572 250.702 310.436 250.996 311.562H248.635C248.443 311.038 248.135 310.628 247.713 310.334C247.291 310.039 246.759 309.892 246.119 309.892C245.223 309.892 244.507 310.212 243.969 310.852C243.444 311.479 243.182 312.362 243.182 313.502C243.182 314.641 243.444 315.53 243.969 316.17C244.507 316.81 245.223 317.13 246.119 317.13C247.387 317.13 248.225 316.574 248.635 315.46H250.996C250.689 316.535 250.113 317.393 249.268 318.033C248.423 318.66 247.374 318.974 246.119 318.974C245.108 318.974 244.212 318.75 243.431 318.302C242.651 317.841 242.036 317.201 241.588 316.382C241.153 315.55 240.935 314.59 240.935 313.502ZM258.65 308.049C259.456 308.049 260.173 308.222 260.8 308.567C261.44 308.913 261.939 309.425 262.298 310.103C262.669 310.782 262.854 311.601 262.854 312.561V318.801H260.685V312.887C260.685 311.94 260.448 311.217 259.974 310.718C259.501 310.206 258.854 309.95 258.035 309.95C257.216 309.95 256.563 310.206 256.077 310.718C255.603 311.217 255.366 311.94 255.366 312.887V318.801H253.178V304.593H255.366V309.45C255.738 309.002 256.205 308.657 256.768 308.414C257.344 308.17 257.971 308.049 258.65 308.049ZM264.917 313.463C264.917 312.401 265.134 311.46 265.569 310.641C266.017 309.822 266.619 309.188 267.374 308.74C268.142 308.279 268.987 308.049 269.909 308.049C270.741 308.049 271.464 308.215 272.078 308.548C272.705 308.868 273.205 309.271 273.576 309.758V308.222H275.784V318.801H273.576V317.226C273.205 317.726 272.699 318.142 272.059 318.474C271.419 318.807 270.689 318.974 269.87 318.974C268.961 318.974 268.129 318.743 267.374 318.282C266.619 317.809 266.017 317.156 265.569 316.324C265.134 315.479 264.917 314.526 264.917 313.463ZM273.576 313.502C273.576 312.772 273.422 312.138 273.115 311.601C272.821 311.063 272.43 310.654 271.944 310.372C271.457 310.09 270.933 309.95 270.369 309.95C269.806 309.95 269.281 310.09 268.795 310.372C268.309 310.641 267.912 311.044 267.605 311.582C267.31 312.106 267.163 312.734 267.163 313.463C267.163 314.193 267.31 314.833 267.605 315.383C267.912 315.934 268.309 316.356 268.795 316.65C269.294 316.932 269.819 317.073 270.369 317.073C270.933 317.073 271.457 316.932 271.944 316.65C272.43 316.369 272.821 315.959 273.115 315.422C273.422 314.871 273.576 314.231 273.576 313.502ZM279.772 306.82C279.376 306.82 279.043 306.686 278.774 306.417C278.505 306.148 278.371 305.815 278.371 305.418C278.371 305.022 278.505 304.689 278.774 304.42C279.043 304.151 279.376 304.017 279.772 304.017C280.156 304.017 280.483 304.151 280.752 304.42C281.02 304.689 281.155 305.022 281.155 305.418C281.155 305.815 281.02 306.148 280.752 306.417C280.483 306.686 280.156 306.82 279.772 306.82ZM280.848 308.222V318.801H278.659V308.222H280.848ZM289.059 308.049C289.891 308.049 290.633 308.222 291.286 308.567C291.952 308.913 292.47 309.425 292.841 310.103C293.212 310.782 293.398 311.601 293.398 312.561V318.801H291.228V312.887C291.228 311.94 290.992 311.217 290.518 310.718C290.044 310.206 289.398 309.95 288.579 309.95C287.76 309.95 287.107 310.206 286.62 310.718C286.147 311.217 285.91 311.94 285.91 312.887V318.801H283.721V308.222H285.91V309.431C286.268 308.996 286.723 308.657 287.273 308.414C287.836 308.17 288.432 308.049 289.059 308.049Z" fill="#898CA9"/>
<path d="M80.2168 361.53H58.5952V375.575C59.5397 374.261 60.936 373.193 62.784 372.372C64.632 371.509 66.6237 371.078 68.7592 371.078C72.1677 371.078 74.9397 371.797 77.0752 373.234C79.2107 374.631 80.7301 376.458 81.6336 378.717C82.5781 380.934 83.0504 383.296 83.0504 385.801C83.0504 388.757 82.496 391.406 81.3872 393.747C80.2784 396.088 78.5741 397.936 76.2744 399.291C74.0157 400.646 71.2027 401.324 67.8352 401.324C63.5232 401.324 60.0325 400.215 57.3632 397.997C54.6939 395.78 53.0717 392.823 52.4968 389.127H57.9792C58.5131 391.468 59.6424 393.295 61.3672 394.609C63.092 395.924 65.2685 396.581 67.8968 396.581C71.1411 396.581 73.5845 395.616 75.2272 393.685C76.8699 391.714 77.6912 389.127 77.6912 385.924C77.6912 382.721 76.8699 380.257 75.2272 378.532C73.5845 376.766 71.1616 375.883 67.9584 375.883C65.7819 375.883 63.8723 376.417 62.2296 377.485C60.628 378.511 59.4576 379.928 58.7184 381.735H53.4208V356.602H80.2168V361.53ZM90.7652 378.47C90.7652 371.407 91.9151 365.904 94.2148 361.961C96.5145 357.978 100.539 355.986 106.288 355.986C111.997 355.986 116.001 357.978 118.3 361.961C120.6 365.904 121.75 371.407 121.75 378.47C121.75 385.657 120.6 391.242 118.3 395.225C116.001 399.209 111.997 401.201 106.288 401.201C100.539 401.201 96.5145 399.209 94.2148 395.225C91.9151 391.242 90.7652 385.657 90.7652 378.47ZM116.206 378.47C116.206 374.897 115.96 371.879 115.467 369.415C115.015 366.91 114.05 364.898 112.572 363.378C111.134 361.859 109.04 361.099 106.288 361.099C103.496 361.099 101.36 361.859 99.882 363.378C98.4447 364.898 97.4796 366.91 96.9868 369.415C96.5351 371.879 96.3092 374.897 96.3092 378.47C96.3092 382.166 96.5351 385.267 96.9868 387.772C97.4796 390.277 98.4447 392.289 99.882 393.809C101.36 395.328 103.496 396.088 106.288 396.088C109.04 396.088 111.134 395.328 112.572 393.809C114.05 392.289 115.015 390.277 115.467 387.772C115.96 385.267 116.206 382.166 116.206 378.47ZM162.667 381.057H149.546V394.363H144.31V381.057H131.251V376.314H144.31V362.947H149.546V376.314H162.667V381.057Z" fill="#272830"/>
</g>
<defs>
<filter id="filter0_b_119_3951" x="-4.07589" y="-3.27511" width="427.352" height="231.552" filterUnits="userSpaceOnUse" color-interpolation-filters="sRGB">
<feFlood flood-opacity="0" result="BackgroundImageFix"/>
<feGaussianBlur in="BackgroundImageFix" stdDeviation="2.03795"/>
<feComposite in2="SourceAlpha" operator="in" result="effect1_backgroundBlur_119_3951"/>
<feBlend mode="normal" in="SourceGraphic" in2="effect1_backgroundBlur_119_3951" result="shape"/>
</filter>
<filter id="filter1_b_119_3951" x="-4.07589" y="245.725" width="427.352" height="231.552" filterUnits="userSpaceOnUse" color-interpolation-filters="sRGB">
<feFlood flood-opacity="0" result="BackgroundImageFix"/>
<feGaussianBlur in="BackgroundImageFix" stdDeviation="2.03795"/>
<feComposite in2="SourceAlpha" operator="in" result="effect1_backgroundBlur_119_3951"/>
<feBlend mode="normal" in="SourceGraphic" in2="effect1_backgroundBlur_119_3951" result="shape"/>
</filter>
<linearGradient id="paint0_linear_119_3951" x1="209.6" y1="0.800781" x2="209.6" y2="224.201" gradientUnits="userSpaceOnUse">
<stop stop-color="white" stop-opacity="0.2"/>
<stop offset="1" stop-color="white" stop-opacity="0"/>
</linearGradient>
<linearGradient id="paint1_linear_119_3951" x1="-88.3115" y1="-15.2939" x2="-50.0914" y2="260.072" gradientUnits="userSpaceOnUse">
<stop stop-color="white"/>
<stop offset="1" stop-color="white" stop-opacity="0"/>
</linearGradient>
<linearGradient id="paint2_linear_119_3951" x1="209.6" y1="249.801" x2="209.6" y2="473.201" gradientUnits="userSpaceOnUse">
<stop stop-color="white" stop-opacity="0.2"/>
<stop offset="1" stop-color="white" stop-opacity="0"/>
</linearGradient>
<linearGradient id="paint3_linear_119_3951" x1="-88.3115" y1="233.706" x2="-50.0914" y2="509.072" gradientUnits="userSpaceOnUse">
<stop stop-color="white"/>
<stop offset="1" stop-color="white" stop-opacity="0"/>
</linearGradient>
</defs>
</svg>
