<svg width="392" height="722" viewBox="0 0 392 722" fill="none" xmlns="http://www.w3.org/2000/svg">
<g filter="url(#filter0_b_119_3954)">
<rect x="0.799805" width="419.2" height="223.4" rx="19.2" fill="white" fill-opacity="0.4"/>
<rect x="0.799805" width="419.2" height="223.4" rx="19.2" fill="url(#paint0_linear_119_3954)"/>
<rect x="1.81878" y="1.01897" width="417.162" height="221.362" rx="18.181" stroke="url(#paint1_linear_119_3954)" stroke-width="2.03795"/>
<path d="M59.8974 59.496C59.5518 58.8304 59.0718 58.3312 58.4574 57.9984C57.843 57.6528 57.1326 57.48 56.3262 57.48C55.443 57.48 54.6558 57.6784 53.9646 58.0752C53.2734 58.472 52.7294 59.0352 52.3326 59.7648C51.9486 60.4944 51.7566 61.3392 51.7566 62.2992C51.7566 63.2592 51.9486 64.1104 52.3326 64.8528C52.7294 65.5824 53.2734 66.1456 53.9646 66.5424C54.6558 66.9392 55.443 67.1376 56.3262 67.1376C57.5166 67.1376 58.483 66.8048 59.2254 66.1392C59.9678 65.4736 60.4222 64.5712 60.5886 63.432H55.5774V61.6848H62.931V63.3936C62.7902 64.4304 62.419 65.384 61.8174 66.2544C61.2286 67.1248 60.4542 67.8224 59.4942 68.3472C58.547 68.8592 57.491 69.1152 56.3262 69.1152C55.0718 69.1152 53.9262 68.8272 52.8894 68.2512C51.8526 67.6624 51.027 66.8496 50.4126 65.8128C49.811 64.776 49.5102 63.6048 49.5102 62.2992C49.5102 60.9936 49.811 59.8224 50.4126 58.7856C51.027 57.7488 51.8526 56.9424 52.8894 56.3664C53.939 55.7776 55.0846 55.4832 56.3262 55.4832C57.747 55.4832 59.0078 55.8352 60.1086 56.5392C61.2222 57.2304 62.0286 58.216 62.5278 59.496H59.8974ZM67.2786 54.792V69H65.0898V54.792H67.2786ZM74.7411 69.1728C73.7427 69.1728 72.8403 68.9488 72.0339 68.5008C71.2275 68.04 70.5939 67.4 70.1331 66.5808C69.6723 65.7488 69.4419 64.7888 69.4419 63.7008C69.4419 62.6256 69.6787 61.672 70.1523 60.84C70.6259 60.008 71.2723 59.368 72.0915 58.92C72.9107 58.472 73.8259 58.248 74.8371 58.248C75.8483 58.248 76.7635 58.472 77.5827 58.92C78.4019 59.368 79.0483 60.008 79.5219 60.84C79.9955 61.672 80.2323 62.6256 80.2323 63.7008C80.2323 64.776 79.9891 65.7296 79.5027 66.5616C79.0163 67.3936 78.3507 68.04 77.5059 68.5008C76.6739 68.9488 75.7523 69.1728 74.7411 69.1728ZM74.7411 67.272C75.3043 67.272 75.8291 67.1376 76.3155 66.8688C76.8147 66.6 77.2179 66.1968 77.5251 65.6592C77.8323 65.1216 77.9859 64.4688 77.9859 63.7008C77.9859 62.9328 77.8387 62.2864 77.5443 61.7616C77.2499 61.224 76.8595 60.8208 76.3731 60.552C75.8867 60.2832 75.3619 60.1488 74.7987 60.1488C74.2355 60.1488 73.7107 60.2832 73.2243 60.552C72.7507 60.8208 72.3731 61.224 72.0915 61.7616C71.8099 62.2864 71.6691 62.9328 71.6691 63.7008C71.6691 64.84 71.9571 65.7232 72.5331 66.3504C73.1219 66.9648 73.8579 67.272 74.7411 67.272ZM84.5849 59.9952C84.9561 59.4832 85.4617 59.0672 86.1017 58.7472C86.7545 58.4144 87.4777 58.248 88.2713 58.248C89.2057 58.248 90.0505 58.472 90.8057 58.92C91.5609 59.368 92.1561 60.008 92.5913 60.84C93.0265 61.6592 93.2441 62.6 93.2441 63.6624C93.2441 64.7248 93.0265 65.6784 92.5913 66.5232C92.1561 67.3552 91.5545 68.008 90.7865 68.4816C90.0313 68.9424 89.1929 69.1728 88.2713 69.1728C87.4521 69.1728 86.7225 69.0128 86.0825 68.6928C85.4553 68.3728 84.9561 67.9632 84.5849 67.464V69H82.3961V54.792H84.5849V59.9952ZM91.0169 63.6624C91.0169 62.9328 90.8633 62.3056 90.5561 61.7808C90.2617 61.2432 89.8649 60.84 89.3657 60.5712C88.8793 60.2896 88.3545 60.1488 87.7913 60.1488C87.2409 60.1488 86.7161 60.2896 86.2169 60.5712C85.7305 60.8528 85.3337 61.2624 85.0265 61.8C84.7321 62.3376 84.5849 62.9712 84.5849 63.7008C84.5849 64.4304 84.7321 65.0704 85.0265 65.6208C85.3337 66.1584 85.7305 66.568 86.2169 66.8496C86.7161 67.1312 87.2409 67.272 87.7913 67.272C88.3545 67.272 88.8793 67.1312 89.3657 66.8496C89.8649 66.5552 90.2617 66.1328 90.5561 65.5824C90.8633 65.032 91.0169 64.392 91.0169 63.6624ZM94.679 63.6624C94.679 62.6 94.8966 61.6592 95.3318 60.84C95.7798 60.0208 96.3814 59.3872 97.1366 58.9392C97.9046 58.4784 98.7494 58.248 99.671 58.248C100.503 58.248 101.226 58.4144 101.841 58.7472C102.468 59.0672 102.967 59.4704 103.338 59.9568V58.4208H105.546V69H103.338V67.4256C102.967 67.9248 102.461 68.3408 101.821 68.6736C101.181 69.0064 100.452 69.1728 99.6326 69.1728C98.7238 69.1728 97.8918 68.9424 97.1366 68.4816C96.3814 68.008 95.7798 67.3552 95.3318 66.5232C94.8966 65.6784 94.679 64.7248 94.679 63.6624ZM103.338 63.7008C103.338 62.9712 103.185 62.3376 102.877 61.8C102.583 61.2624 102.193 60.8528 101.706 60.5712C101.22 60.2896 100.695 60.1488 100.132 60.1488C99.5686 60.1488 99.0438 60.2896 98.5574 60.5712C98.071 60.84 97.6742 61.2432 97.367 61.7808C97.0726 62.3056 96.9254 62.9328 96.9254 63.6624C96.9254 64.392 97.0726 65.032 97.367 65.5824C97.6742 66.1328 98.071 66.5552 98.5574 66.8496C99.0566 67.1312 99.5814 67.272 100.132 67.272C100.695 67.272 101.22 67.1312 101.706 66.8496C102.193 66.568 102.583 66.1584 102.877 65.6208C103.185 65.0704 103.338 64.4304 103.338 63.7008ZM110.61 54.792V69H108.421V54.792H110.61ZM135.847 55.656L131.892 69H129.415L126.612 58.9008L123.636 69L121.178 69.0192L117.396 55.656H119.719L122.484 66.5232L125.479 55.656H127.937L130.721 66.4656L133.505 55.656H135.847ZM136.923 63.6624C136.923 62.6 137.14 61.6592 137.576 60.84C138.024 60.0208 138.625 59.3872 139.38 58.9392C140.148 58.4784 140.993 58.248 141.915 58.248C142.747 58.248 143.47 58.4144 144.084 58.7472C144.712 59.0672 145.211 59.4704 145.582 59.9568V58.4208H147.79V69H145.582V67.4256C145.211 67.9248 144.705 68.3408 144.065 68.6736C143.425 69.0064 142.696 69.1728 141.876 69.1728C140.968 69.1728 140.136 68.9424 139.38 68.4816C138.625 68.008 138.024 67.3552 137.576 66.5232C137.14 65.6784 136.923 64.7248 136.923 63.6624ZM145.582 63.7008C145.582 62.9712 145.428 62.3376 145.121 61.8C144.827 61.2624 144.436 60.8528 143.95 60.5712C143.464 60.2896 142.939 60.1488 142.376 60.1488C141.812 60.1488 141.288 60.2896 140.801 60.5712C140.315 60.84 139.918 61.2432 139.611 61.7808C139.316 62.3056 139.169 62.9328 139.169 63.6624C139.169 64.392 139.316 65.032 139.611 65.5824C139.918 66.1328 140.315 66.5552 140.801 66.8496C141.3 67.1312 141.825 67.272 142.376 67.272C142.939 67.272 143.464 67.1312 143.95 66.8496C144.436 66.568 144.827 66.1584 145.121 65.6208C145.428 65.0704 145.582 64.4304 145.582 63.7008ZM152.854 59.9568C153.174 59.4192 153.596 59.0032 154.121 58.7088C154.658 58.4016 155.292 58.248 156.022 58.248V60.5136H155.465C154.607 60.5136 153.954 60.7312 153.506 61.1664C153.071 61.6016 152.854 62.3568 152.854 63.432V69H150.665V58.4208H152.854V59.9568ZM167.73 63.4512C167.73 63.848 167.704 64.2064 167.653 64.5264H159.57C159.634 65.3712 159.947 66.0496 160.51 66.5616C161.074 67.0736 161.765 67.3296 162.584 67.3296C163.762 67.3296 164.594 66.8368 165.08 65.8512H167.442C167.122 66.824 166.539 67.624 165.694 68.2512C164.862 68.8656 163.826 69.1728 162.584 69.1728C161.573 69.1728 160.664 68.9488 159.858 68.5008C159.064 68.04 158.437 67.4 157.976 66.5808C157.528 65.7488 157.304 64.7888 157.304 63.7008C157.304 62.6128 157.522 61.6592 157.957 60.84C158.405 60.008 159.026 59.368 159.819 58.92C160.626 58.472 161.547 58.248 162.584 58.248C163.582 58.248 164.472 58.4656 165.253 58.9008C166.034 59.336 166.642 59.9504 167.077 60.744C167.512 61.5248 167.73 62.4272 167.73 63.4512ZM165.445 62.76C165.432 61.9536 165.144 61.3072 164.581 60.8208C164.018 60.3344 163.32 60.0912 162.488 60.0912C161.733 60.0912 161.086 60.3344 160.549 60.8208C160.011 61.2944 159.691 61.9408 159.589 62.76H165.445ZM175.356 58.248C176.162 58.248 176.879 58.4208 177.506 58.7664C178.146 59.112 178.645 59.624 179.004 60.3024C179.375 60.9808 179.56 61.8 179.56 62.76V69H177.391V63.0864C177.391 62.1392 177.154 61.416 176.68 60.9168C176.207 60.4048 175.56 60.1488 174.741 60.1488C173.922 60.1488 173.269 60.4048 172.783 60.9168C172.309 61.416 172.072 62.1392 172.072 63.0864V69H169.884V54.792H172.072V59.6496C172.444 59.2016 172.911 58.856 173.474 58.6128C174.05 58.3696 174.677 58.248 175.356 58.248ZM186.941 69.1728C185.943 69.1728 185.04 68.9488 184.234 68.5008C183.428 68.04 182.794 67.4 182.333 66.5808C181.872 65.7488 181.642 64.7888 181.642 63.7008C181.642 62.6256 181.879 61.672 182.352 60.84C182.826 60.008 183.472 59.368 184.292 58.92C185.111 58.472 186.026 58.248 187.037 58.248C188.048 58.248 188.964 58.472 189.783 58.92C190.602 59.368 191.248 60.008 191.722 60.84C192.196 61.672 192.432 62.6256 192.432 63.7008C192.432 64.776 192.189 65.7296 191.703 66.5616C191.216 67.3936 190.551 68.04 189.706 68.5008C188.874 68.9488 187.952 69.1728 186.941 69.1728ZM186.941 67.272C187.504 67.272 188.029 67.1376 188.516 66.8688C189.015 66.6 189.418 66.1968 189.725 65.6592C190.032 65.1216 190.186 64.4688 190.186 63.7008C190.186 62.9328 190.039 62.2864 189.744 61.7616C189.45 61.224 189.06 60.8208 188.573 60.552C188.087 60.2832 187.562 60.1488 186.999 60.1488C186.436 60.1488 185.911 60.2832 185.424 60.552C184.951 60.8208 184.573 61.224 184.292 61.7616C184.01 62.2864 183.869 62.9328 183.869 63.7008C183.869 64.84 184.157 65.7232 184.733 66.3504C185.322 66.9648 186.058 67.272 186.941 67.272ZM204.177 58.4208V69H201.988V67.752C201.642 68.1872 201.188 68.5328 200.625 68.7888C200.074 69.032 199.486 69.1536 198.858 69.1536C198.026 69.1536 197.278 68.9808 196.612 68.6352C195.959 68.2896 195.441 67.7776 195.057 67.0992C194.686 66.4208 194.5 65.6016 194.5 64.6416V58.4208H196.67V64.3152C196.67 65.2624 196.906 65.992 197.38 66.504C197.854 67.0032 198.5 67.2528 199.319 67.2528C200.138 67.2528 200.785 67.0032 201.258 66.504C201.745 65.992 201.988 65.2624 201.988 64.3152V58.4208H204.177ZM210.905 69.1728C210.073 69.1728 209.324 69.0256 208.658 68.7312C208.006 68.424 207.487 68.0144 207.103 67.5024C206.719 66.9776 206.514 66.3952 206.489 65.7552H208.754C208.793 66.2032 209.004 66.5808 209.388 66.888C209.785 67.1824 210.278 67.3296 210.866 67.3296C211.481 67.3296 211.954 67.2144 212.287 66.984C212.633 66.7408 212.806 66.4336 212.806 66.0624C212.806 65.6656 212.614 65.3712 212.23 65.1792C211.858 64.9872 211.263 64.776 210.444 64.5456C209.65 64.328 209.004 64.1168 208.505 63.912C208.006 63.7072 207.57 63.3936 207.199 62.9712C206.841 62.5488 206.662 61.992 206.662 61.3008C206.662 60.7376 206.828 60.2256 207.161 59.7648C207.494 59.2912 207.967 58.92 208.582 58.6512C209.209 58.3824 209.926 58.248 210.732 58.248C211.935 58.248 212.902 58.5552 213.631 59.1696C214.374 59.7712 214.77 60.5968 214.822 61.6464H212.633C212.594 61.1728 212.402 60.7952 212.057 60.5136C211.711 60.232 211.244 60.0912 210.655 60.0912C210.079 60.0912 209.638 60.2 209.33 60.4176C209.023 60.6352 208.87 60.9232 208.87 61.2816C208.87 61.5632 208.972 61.8 209.177 61.992C209.382 62.184 209.631 62.3376 209.926 62.4528C210.22 62.5552 210.655 62.6896 211.231 62.856C211.999 63.0608 212.626 63.272 213.113 63.4896C213.612 63.6944 214.041 64.0016 214.399 64.4112C214.758 64.8208 214.943 65.3648 214.956 66.0432C214.956 66.6448 214.79 67.1824 214.457 67.656C214.124 68.1296 213.65 68.5008 213.036 68.7696C212.434 69.0384 211.724 69.1728 210.905 69.1728ZM227.017 63.4512C227.017 63.848 226.991 64.2064 226.94 64.5264H218.857C218.921 65.3712 219.235 66.0496 219.798 66.5616C220.361 67.0736 221.052 67.3296 221.871 67.3296C223.049 67.3296 223.881 66.8368 224.367 65.8512H226.729C226.409 66.824 225.827 67.624 224.982 68.2512C224.15 68.8656 223.113 69.1728 221.871 69.1728C220.86 69.1728 219.951 68.9488 219.145 68.5008C218.351 68.04 217.724 67.4 217.263 66.5808C216.815 65.7488 216.591 64.7888 216.591 63.7008C216.591 62.6128 216.809 61.6592 217.244 60.84C217.692 60.008 218.313 59.368 219.107 58.92C219.913 58.472 220.835 58.248 221.871 58.248C222.87 58.248 223.759 58.4656 224.54 58.9008C225.321 59.336 225.929 59.9504 226.364 60.744C226.799 61.5248 227.017 62.4272 227.017 63.4512ZM224.732 62.76C224.719 61.9536 224.431 61.3072 223.868 60.8208C223.305 60.3344 222.607 60.0912 221.775 60.0912C221.02 60.0912 220.374 60.3344 219.836 60.8208C219.299 61.2944 218.979 61.9408 218.876 62.76H224.732ZM233.011 69.1728C232.179 69.1728 231.43 69.0256 230.765 68.7312C230.112 68.424 229.593 68.0144 229.209 67.5024C228.825 66.9776 228.621 66.3952 228.595 65.7552H230.861C230.899 66.2032 231.11 66.5808 231.494 66.888C231.891 67.1824 232.384 67.3296 232.973 67.3296C233.587 67.3296 234.061 67.2144 234.393 66.984C234.739 66.7408 234.912 66.4336 234.912 66.0624C234.912 65.6656 234.72 65.3712 234.336 65.1792C233.965 64.9872 233.369 64.776 232.55 64.5456C231.757 64.328 231.11 64.1168 230.611 63.912C230.112 63.7072 229.677 63.3936 229.305 62.9712C228.947 62.5488 228.768 61.992 228.768 61.3008C228.768 60.7376 228.934 60.2256 229.267 59.7648C229.6 59.2912 230.073 58.92 230.688 58.6512C231.315 58.3824 232.032 58.248 232.838 58.248C234.041 58.248 235.008 58.5552 235.737 59.1696C236.48 59.7712 236.877 60.5968 236.928 61.6464H234.739C234.701 61.1728 234.509 60.7952 234.163 60.5136C233.817 60.232 233.35 60.0912 232.761 60.0912C232.185 60.0912 231.744 60.2 231.437 60.4176C231.129 60.6352 230.976 60.9232 230.976 61.2816C230.976 61.5632 231.078 61.8 231.283 61.992C231.488 62.184 231.737 62.3376 232.032 62.4528C232.326 62.5552 232.761 62.6896 233.337 62.856C234.105 63.0608 234.733 63.272 235.219 63.4896C235.718 63.6944 236.147 64.0016 236.505 64.4112C236.864 64.8208 237.049 65.3648 237.062 66.0432C237.062 66.6448 236.896 67.1824 236.563 67.656C236.23 68.1296 235.757 68.5008 235.142 68.7696C234.541 69.0384 233.83 69.1728 233.011 69.1728Z" fill="#898CA9"/>
<path d="M51.1406 111.976V106.863H62.7214V151.4H57.0542V111.976H51.1406ZM72.6158 128.67C72.6158 121.606 73.7656 116.103 76.0654 112.161C78.3651 108.177 82.3896 106.185 88.139 106.185C93.8472 106.185 97.8512 108.177 100.151 112.161C102.451 116.103 103.601 121.606 103.601 128.67C103.601 135.856 102.451 141.441 100.151 145.425C97.8512 149.408 93.8472 151.4 88.139 151.4C82.3896 151.4 78.3651 149.408 76.0654 145.425C73.7656 141.441 72.6158 135.856 72.6158 128.67ZM98.0566 128.67C98.0566 125.097 97.8102 122.078 97.3174 119.614C96.8656 117.109 95.9006 115.097 94.4222 113.577C92.9848 112.058 90.8904 111.298 88.139 111.298C85.3464 111.298 83.211 112.058 81.7326 113.577C80.2952 115.097 79.3302 117.109 78.8374 119.614C78.3856 122.078 78.1598 125.097 78.1598 128.67C78.1598 132.366 78.3856 135.466 78.8374 137.971C79.3302 140.476 80.2952 142.488 81.7326 144.008C83.211 145.527 85.3464 146.287 88.139 146.287C90.8904 146.287 92.9848 145.527 94.4222 144.008C95.9006 142.488 96.8656 140.476 97.3174 137.971C97.8102 135.466 98.0566 132.366 98.0566 128.67ZM111.562 128.67C111.562 121.606 112.712 116.103 115.011 112.161C117.311 108.177 121.336 106.185 127.085 106.185C132.793 106.185 136.797 108.177 139.097 112.161C141.397 116.103 142.547 121.606 142.547 128.67C142.547 135.856 141.397 141.441 139.097 145.425C136.797 149.408 132.793 151.4 127.085 151.4C121.336 151.4 117.311 149.408 115.011 145.425C112.712 141.441 111.562 135.856 111.562 128.67ZM137.003 128.67C137.003 125.097 136.756 122.078 136.263 119.614C135.812 117.109 134.847 115.097 133.368 113.577C131.931 112.058 129.836 111.298 127.085 111.298C124.292 111.298 122.157 112.058 120.679 113.577C119.241 115.097 118.276 117.109 117.783 119.614C117.332 122.078 117.106 125.097 117.106 128.67C117.106 132.366 117.332 135.466 117.783 137.971C118.276 140.476 119.241 142.488 120.679 144.008C122.157 145.527 124.292 146.287 127.085 146.287C129.836 146.287 131.931 145.527 133.368 144.008C134.847 142.488 135.812 140.476 136.263 137.971C136.756 135.466 137.003 132.366 137.003 128.67ZM183.464 131.257H170.343V144.562H165.107V131.257H152.048V126.514H165.107V113.146H170.343V126.514H183.464V131.257Z" fill="#272830"/>
</g>
<g filter="url(#filter1_b_119_3954)">
<rect x="0.799805" y="249" width="419.2" height="223.4" rx="19.2" fill="white" fill-opacity="0.4"/>
<rect x="0.799805" y="249" width="419.2" height="223.4" rx="19.2" fill="url(#paint2_linear_119_3954)"/>
<rect x="1.81878" y="250.019" width="417.162" height="221.362" rx="18.181" stroke="url(#paint3_linear_119_3954)" stroke-width="2.03795"/>
<path d="M49.5102 311.299C49.5102 309.994 49.811 308.822 50.4126 307.786C51.027 306.749 51.8526 305.942 52.8894 305.366C53.939 304.778 55.0846 304.483 56.3262 304.483C57.747 304.483 59.0078 304.835 60.1086 305.539C61.2222 306.23 62.0286 307.216 62.5278 308.496H59.8974C59.5518 307.792 59.0718 307.267 58.4574 306.922C57.843 306.576 57.1326 306.403 56.3262 306.403C55.443 306.403 54.6558 306.602 53.9646 306.998C53.2734 307.395 52.7294 307.965 52.3326 308.707C51.9486 309.45 51.7566 310.314 51.7566 311.299C51.7566 312.285 51.9486 313.149 52.3326 313.891C52.7294 314.634 53.2734 315.21 53.9646 315.619C54.6558 316.016 55.443 316.214 56.3262 316.214C57.1326 316.214 57.843 316.042 58.4574 315.696C59.0718 315.35 59.5518 314.826 59.8974 314.122H62.5278C62.0286 315.402 61.2222 316.387 60.1086 317.078C59.0078 317.77 57.747 318.115 56.3262 318.115C55.0718 318.115 53.9262 317.827 52.8894 317.251C51.8526 316.662 51.027 315.85 50.4126 314.813C49.811 313.776 49.5102 312.605 49.5102 311.299ZM66.2034 306.019C65.8066 306.019 65.4738 305.885 65.205 305.616C64.9362 305.347 64.8018 305.014 64.8018 304.618C64.8018 304.221 64.9362 303.888 65.205 303.619C65.4738 303.35 65.8066 303.216 66.2034 303.216C66.5874 303.216 66.9138 303.35 67.1826 303.619C67.4514 303.888 67.5858 304.221 67.5858 304.618C67.5858 305.014 67.4514 305.347 67.1826 305.616C66.9138 305.885 66.5874 306.019 66.2034 306.019ZM67.2786 307.421V318H65.0898V307.421H67.2786ZM72.7059 309.206V315.062C72.7059 315.459 72.7955 315.747 72.9747 315.926C73.1667 316.093 73.4867 316.176 73.9347 316.176H75.2787V318H73.5507C72.5651 318 71.8099 317.77 71.2851 317.309C70.7603 316.848 70.4979 316.099 70.4979 315.062V309.206H69.2499V307.421H70.4979V304.79H72.7059V307.421H75.2787V309.206H72.7059ZM78.4097 306.019C78.0129 306.019 77.6801 305.885 77.4113 305.616C77.1425 305.347 77.0081 305.014 77.0081 304.618C77.0081 304.221 77.1425 303.888 77.4113 303.619C77.6801 303.35 78.0129 303.216 78.4097 303.216C78.7937 303.216 79.1201 303.35 79.3889 303.619C79.6577 303.888 79.7921 304.221 79.7921 304.618C79.7921 305.014 79.6577 305.347 79.3889 305.616C79.1201 305.885 78.7937 306.019 78.4097 306.019ZM79.4849 307.421V318H77.2961V307.421H79.4849ZM92.0546 312.451C92.0546 312.848 92.029 313.206 91.9778 313.526H83.8946C83.9586 314.371 84.2722 315.05 84.8354 315.562C85.3986 316.074 86.0898 316.33 86.909 316.33C88.0866 316.33 88.9186 315.837 89.405 314.851H91.7666C91.4466 315.824 90.8642 316.624 90.0194 317.251C89.1874 317.866 88.1506 318.173 86.909 318.173C85.8978 318.173 84.989 317.949 84.1826 317.501C83.389 317.04 82.7618 316.4 82.301 315.581C81.853 314.749 81.629 313.789 81.629 312.701C81.629 311.613 81.8466 310.659 82.2818 309.84C82.7298 309.008 83.3506 308.368 84.1442 307.92C84.9506 307.472 85.8722 307.248 86.909 307.248C87.9074 307.248 88.797 307.466 89.5778 307.901C90.3586 308.336 90.9666 308.95 91.4018 309.744C91.837 310.525 92.0546 311.427 92.0546 312.451ZM89.7698 311.76C89.757 310.954 89.469 310.307 88.9058 309.821C88.3426 309.334 87.645 309.091 86.813 309.091C86.0578 309.091 85.4114 309.334 84.8738 309.821C84.3362 310.294 84.0162 310.941 83.9138 311.76H89.7698ZM98.0486 318.173C97.2166 318.173 96.4678 318.026 95.8022 317.731C95.1494 317.424 94.631 317.014 94.247 316.502C93.863 315.978 93.6582 315.395 93.6326 314.755H95.8982C95.9366 315.203 96.1478 315.581 96.5318 315.888C96.9286 316.182 97.4214 316.33 98.0102 316.33C98.6246 316.33 99.0982 316.214 99.431 315.984C99.7766 315.741 99.9494 315.434 99.9494 315.062C99.9494 314.666 99.7574 314.371 99.3734 314.179C99.0022 313.987 98.407 313.776 97.5878 313.546C96.7942 313.328 96.1478 313.117 95.6486 312.912C95.1494 312.707 94.7142 312.394 94.343 311.971C93.9846 311.549 93.8054 310.992 93.8054 310.301C93.8054 309.738 93.9718 309.226 94.3046 308.765C94.6374 308.291 95.111 307.92 95.7254 307.651C96.3526 307.382 97.0694 307.248 97.8758 307.248C99.079 307.248 100.045 307.555 100.775 308.17C101.517 308.771 101.914 309.597 101.965 310.646H99.7766C99.7382 310.173 99.5462 309.795 99.2006 309.514C98.855 309.232 98.3878 309.091 97.799 309.091C97.223 309.091 96.7814 309.2 96.4742 309.418C96.167 309.635 96.0134 309.923 96.0134 310.282C96.0134 310.563 96.1158 310.8 96.3206 310.992C96.5254 311.184 96.775 311.338 97.0694 311.453C97.3638 311.555 97.799 311.69 98.375 311.856C99.143 312.061 99.7702 312.272 100.257 312.49C100.756 312.694 101.185 313.002 101.543 313.411C101.901 313.821 102.087 314.365 102.1 315.043C102.1 315.645 101.933 316.182 101.601 316.656C101.268 317.13 100.794 317.501 100.18 317.77C99.5782 318.038 98.8678 318.173 98.0486 318.173ZM108.723 312.701C108.723 311.613 108.94 310.659 109.376 309.84C109.824 309.008 110.438 308.368 111.219 307.92C112 307.472 112.896 307.248 113.907 307.248C115.187 307.248 116.243 307.555 117.075 308.17C117.92 308.771 118.489 309.635 118.784 310.762H116.422C116.23 310.237 115.923 309.827 115.5 309.533C115.078 309.238 114.547 309.091 113.907 309.091C113.011 309.091 112.294 309.411 111.756 310.051C111.232 310.678 110.969 311.562 110.969 312.701C110.969 313.84 111.232 314.73 111.756 315.37C112.294 316.01 113.011 316.33 113.907 316.33C115.174 316.33 116.012 315.773 116.422 314.659H118.784C118.476 315.734 117.9 316.592 117.056 317.232C116.211 317.859 115.161 318.173 113.907 318.173C112.896 318.173 112 317.949 111.219 317.501C110.438 317.04 109.824 316.4 109.376 315.581C108.94 314.749 108.723 313.789 108.723 312.701ZM125.554 318.173C124.555 318.173 123.653 317.949 122.846 317.501C122.04 317.04 121.406 316.4 120.946 315.581C120.485 314.749 120.254 313.789 120.254 312.701C120.254 311.626 120.491 310.672 120.965 309.84C121.438 309.008 122.085 308.368 122.904 307.92C123.723 307.472 124.638 307.248 125.65 307.248C126.661 307.248 127.576 307.472 128.395 307.92C129.214 308.368 129.861 309.008 130.334 309.84C130.808 310.672 131.045 311.626 131.045 312.701C131.045 313.776 130.802 314.73 130.315 315.562C129.829 316.394 129.163 317.04 128.318 317.501C127.486 317.949 126.565 318.173 125.554 318.173ZM125.554 316.272C126.117 316.272 126.642 316.138 127.128 315.869C127.627 315.6 128.03 315.197 128.338 314.659C128.645 314.122 128.798 313.469 128.798 312.701C128.798 311.933 128.651 311.286 128.357 310.762C128.062 310.224 127.672 309.821 127.186 309.552C126.699 309.283 126.174 309.149 125.611 309.149C125.048 309.149 124.523 309.283 124.037 309.552C123.563 309.821 123.186 310.224 122.904 310.762C122.622 311.286 122.482 311.933 122.482 312.701C122.482 313.84 122.77 314.723 123.346 315.35C123.934 315.965 124.67 316.272 125.554 316.272ZM137.298 316.042L140.293 307.421H142.617L138.585 318H135.973L131.961 307.421H134.303L137.298 316.042ZM153.967 312.451C153.967 312.848 153.941 313.206 153.89 313.526H145.807C145.871 314.371 146.185 315.05 146.748 315.562C147.311 316.074 148.002 316.33 148.821 316.33C149.999 316.33 150.831 315.837 151.317 314.851H153.679C153.359 315.824 152.777 316.624 151.932 317.251C151.1 317.866 150.063 318.173 148.821 318.173C147.81 318.173 146.901 317.949 146.095 317.501C145.301 317.04 144.674 316.4 144.213 315.581C143.765 314.749 143.541 313.789 143.541 312.701C143.541 311.613 143.759 310.659 144.194 309.84C144.642 309.008 145.263 308.368 146.057 307.92C146.863 307.472 147.785 307.248 148.821 307.248C149.82 307.248 150.709 307.466 151.49 307.901C152.271 308.336 152.879 308.95 153.314 309.744C153.749 310.525 153.967 311.427 153.967 312.451ZM151.682 311.76C151.669 310.954 151.381 310.307 150.818 309.821C150.255 309.334 149.557 309.091 148.725 309.091C147.97 309.091 147.324 309.334 146.786 309.821C146.249 310.294 145.929 310.941 145.826 311.76H151.682ZM158.31 308.957C158.63 308.419 159.052 308.003 159.577 307.709C160.115 307.402 160.748 307.248 161.478 307.248V309.514H160.921C160.063 309.514 159.411 309.731 158.963 310.166C158.527 310.602 158.31 311.357 158.31 312.432V318H156.121V307.421H158.31V308.957ZM173.186 312.451C173.186 312.848 173.16 313.206 173.109 313.526H165.026C165.09 314.371 165.403 315.05 165.967 315.562C166.53 316.074 167.221 316.33 168.04 316.33C169.218 316.33 170.05 315.837 170.536 314.851H172.898C172.578 315.824 171.995 316.624 171.151 317.251C170.319 317.866 169.282 318.173 168.04 318.173C167.029 318.173 166.12 317.949 165.314 317.501C164.52 317.04 163.893 316.4 163.432 315.581C162.984 314.749 162.76 313.789 162.76 312.701C162.76 311.613 162.978 310.659 163.413 309.84C163.861 309.008 164.482 308.368 165.275 307.92C166.082 307.472 167.003 307.248 168.04 307.248C169.039 307.248 169.928 307.466 170.709 307.901C171.49 308.336 172.098 308.95 172.533 309.744C172.968 310.525 173.186 311.427 173.186 312.451ZM170.901 311.76C170.888 310.954 170.6 310.307 170.037 309.821C169.474 309.334 168.776 309.091 167.944 309.091C167.189 309.091 166.543 309.334 166.005 309.821C165.467 310.294 165.147 310.941 165.045 311.76H170.901ZM174.61 312.662C174.61 311.6 174.828 310.659 175.263 309.84C175.711 309.021 176.313 308.387 177.068 307.939C177.836 307.478 178.687 307.248 179.621 307.248C180.313 307.248 180.991 307.402 181.657 307.709C182.335 308.003 182.873 308.4 183.269 308.899V303.792H185.477V318H183.269V316.406C182.911 316.918 182.412 317.341 181.772 317.674C181.145 318.006 180.421 318.173 179.602 318.173C178.681 318.173 177.836 317.942 177.068 317.482C176.313 317.008 175.711 316.355 175.263 315.523C174.828 314.678 174.61 313.725 174.61 312.662ZM183.269 312.701C183.269 311.971 183.116 311.338 182.809 310.8C182.514 310.262 182.124 309.853 181.637 309.571C181.151 309.29 180.626 309.149 180.063 309.149C179.5 309.149 178.975 309.29 178.489 309.571C178.002 309.84 177.605 310.243 177.298 310.781C177.004 311.306 176.857 311.933 176.857 312.662C176.857 313.392 177.004 314.032 177.298 314.582C177.605 315.133 178.002 315.555 178.489 315.85C178.988 316.131 179.513 316.272 180.063 316.272C180.626 316.272 181.151 316.131 181.637 315.85C182.124 315.568 182.514 315.158 182.809 314.621C183.116 314.07 183.269 313.43 183.269 312.701ZM207.548 307.421L204.265 318H201.961L199.829 310.186L197.698 318H195.394L192.092 307.421H194.319L196.527 315.926L198.773 307.421H201.058L203.209 315.888L205.397 307.421H207.548ZM210.297 306.019C209.9 306.019 209.568 305.885 209.299 305.616C209.03 305.347 208.896 305.014 208.896 304.618C208.896 304.221 209.03 303.888 209.299 303.619C209.568 303.35 209.9 303.216 210.297 303.216C210.681 303.216 211.008 303.35 211.276 303.619C211.545 303.888 211.68 304.221 211.68 304.618C211.68 305.014 211.545 305.347 211.276 305.616C211.008 305.885 210.681 306.019 210.297 306.019ZM211.372 307.421V318H209.184V307.421H211.372ZM216.8 309.206V315.062C216.8 315.459 216.889 315.747 217.068 315.926C217.26 316.093 217.58 316.176 218.028 316.176H219.372V318H217.644C216.659 318 215.904 317.77 215.379 317.309C214.854 316.848 214.592 316.099 214.592 315.062V309.206H213.344V307.421H214.592V304.79H216.8V307.421H219.372V309.206H216.8ZM226.862 307.248C227.668 307.248 228.385 307.421 229.012 307.766C229.652 308.112 230.151 308.624 230.51 309.302C230.881 309.981 231.067 310.8 231.067 311.76V318H228.897V312.086C228.897 311.139 228.66 310.416 228.187 309.917C227.713 309.405 227.067 309.149 226.247 309.149C225.428 309.149 224.775 309.405 224.289 309.917C223.815 310.416 223.579 311.139 223.579 312.086V318H221.39V303.792H223.579V308.65C223.95 308.202 224.417 307.856 224.98 307.613C225.556 307.37 226.183 307.248 226.862 307.248ZM243.435 318.173C242.436 318.173 241.534 317.949 240.728 317.501C239.921 317.04 239.288 316.4 238.827 315.581C238.366 314.749 238.136 313.789 238.136 312.701C238.136 311.626 238.372 310.672 238.846 309.84C239.32 309.008 239.966 308.368 240.785 307.92C241.604 307.472 242.52 307.248 243.531 307.248C244.542 307.248 245.457 307.472 246.276 307.92C247.096 308.368 247.742 309.008 248.216 309.84C248.689 310.672 248.926 311.626 248.926 312.701C248.926 313.776 248.683 314.73 248.196 315.562C247.71 316.394 247.044 317.04 246.2 317.501C245.368 317.949 244.446 318.173 243.435 318.173ZM243.435 316.272C243.998 316.272 244.523 316.138 245.009 315.869C245.508 315.6 245.912 315.197 246.219 314.659C246.526 314.122 246.68 313.469 246.68 312.701C246.68 311.933 246.532 311.286 246.238 310.762C245.944 310.224 245.553 309.821 245.067 309.552C244.58 309.283 244.056 309.149 243.492 309.149C242.929 309.149 242.404 309.283 241.918 309.552C241.444 309.821 241.067 310.224 240.785 310.762C240.504 311.286 240.363 311.933 240.363 312.701C240.363 313.84 240.651 314.723 241.227 315.35C241.816 315.965 242.552 316.272 243.435 316.272ZM260.671 307.421V318H258.482V316.752C258.136 317.187 257.682 317.533 257.119 317.789C256.568 318.032 255.979 318.154 255.352 318.154C254.52 318.154 253.771 317.981 253.106 317.635C252.453 317.29 251.935 316.778 251.551 316.099C251.179 315.421 250.994 314.602 250.994 313.642V307.421H253.163V313.315C253.163 314.262 253.4 314.992 253.874 315.504C254.347 316.003 254.994 316.253 255.813 316.253C256.632 316.253 257.279 316.003 257.752 315.504C258.239 314.992 258.482 314.262 258.482 313.315V307.421H260.671ZM265.747 308.957C266.067 308.419 266.49 308.003 267.015 307.709C267.552 307.402 268.186 307.248 268.915 307.248V309.514H268.359C267.501 309.514 266.848 309.731 266.4 310.166C265.965 310.602 265.747 311.357 265.747 312.432V318H263.559V307.421H265.747V308.957ZM279.755 318.173C278.923 318.173 278.174 318.026 277.508 317.731C276.856 317.424 276.337 317.014 275.953 316.502C275.569 315.978 275.364 315.395 275.339 314.755H277.604C277.643 315.203 277.854 315.581 278.238 315.888C278.635 316.182 279.128 316.33 279.716 316.33C280.331 316.33 280.804 316.214 281.137 315.984C281.483 315.741 281.656 315.434 281.656 315.062C281.656 314.666 281.464 314.371 281.08 314.179C280.708 313.987 280.113 313.776 279.294 313.546C278.5 313.328 277.854 313.117 277.355 312.912C276.856 312.707 276.42 312.394 276.049 311.971C275.691 311.549 275.512 310.992 275.512 310.301C275.512 309.738 275.678 309.226 276.011 308.765C276.344 308.291 276.817 307.92 277.432 307.651C278.059 307.382 278.776 307.248 279.582 307.248C280.785 307.248 281.752 307.555 282.481 308.17C283.224 308.771 283.62 309.597 283.672 310.646H281.483C281.444 310.173 281.252 309.795 280.907 309.514C280.561 309.232 280.094 309.091 279.505 309.091C278.929 309.091 278.488 309.2 278.18 309.418C277.873 309.635 277.72 309.923 277.72 310.282C277.72 310.563 277.822 310.8 278.027 310.992C278.232 311.184 278.481 311.338 278.776 311.453C279.07 311.555 279.505 311.69 280.081 311.856C280.849 312.061 281.476 312.272 281.963 312.49C282.462 312.694 282.891 313.002 283.249 313.411C283.608 313.821 283.793 314.365 283.806 315.043C283.806 315.645 283.64 316.182 283.307 316.656C282.974 317.13 282.5 317.501 281.886 317.77C281.284 318.038 280.574 318.173 279.755 318.173ZM295.867 312.451C295.867 312.848 295.841 313.206 295.79 313.526H287.707C287.771 314.371 288.085 315.05 288.648 315.562C289.211 316.074 289.902 316.33 290.721 316.33C291.899 316.33 292.731 315.837 293.217 314.851H295.579C295.259 315.824 294.677 316.624 293.832 317.251C293 317.866 291.963 318.173 290.721 318.173C289.71 318.173 288.801 317.949 287.995 317.501C287.201 317.04 286.574 316.4 286.113 315.581C285.665 314.749 285.441 313.789 285.441 312.701C285.441 311.613 285.659 310.659 286.094 309.84C286.542 309.008 287.163 308.368 287.957 307.92C288.763 307.472 289.685 307.248 290.721 307.248C291.72 307.248 292.609 307.466 293.39 307.901C294.171 308.336 294.779 308.95 295.214 309.744C295.649 310.525 295.867 311.427 295.867 312.451ZM293.582 311.76C293.569 310.954 293.281 310.307 292.718 309.821C292.155 309.334 291.457 309.091 290.625 309.091C289.87 309.091 289.224 309.334 288.686 309.821C288.149 310.294 287.829 310.941 287.726 311.76H293.582ZM300.21 308.957C300.53 308.419 300.952 308.003 301.477 307.709C302.015 307.402 302.648 307.248 303.378 307.248V309.514H302.821C301.963 309.514 301.311 309.731 300.863 310.166C300.427 310.602 300.21 311.357 300.21 312.432V318H298.021V307.421H300.21V308.957ZM309.479 316.042L312.475 307.421H314.798L310.766 318H308.155L304.142 307.421H306.484L309.479 316.042ZM317.566 306.019C317.169 306.019 316.836 305.885 316.568 305.616C316.299 305.347 316.164 305.014 316.164 304.618C316.164 304.221 316.299 303.888 316.568 303.619C316.836 303.35 317.169 303.216 317.566 303.216C317.95 303.216 318.276 303.35 318.545 303.619C318.814 303.888 318.948 304.221 318.948 304.618C318.948 305.014 318.814 305.347 318.545 305.616C318.276 305.885 317.95 306.019 317.566 306.019ZM318.641 307.421V318H316.452V307.421H318.641ZM320.785 312.701C320.785 311.613 321.003 310.659 321.438 309.84C321.886 309.008 322.5 308.368 323.281 307.92C324.062 307.472 324.958 307.248 325.969 307.248C327.249 307.248 328.305 307.555 329.137 308.17C329.982 308.771 330.552 309.635 330.846 310.762H328.484C328.292 310.237 327.985 309.827 327.563 309.533C327.14 309.238 326.609 309.091 325.969 309.091C325.073 309.091 324.356 309.411 323.819 310.051C323.294 310.678 323.032 311.562 323.032 312.701C323.032 313.84 323.294 314.73 323.819 315.37C324.356 316.01 325.073 316.33 325.969 316.33C327.236 316.33 328.075 315.773 328.484 314.659H330.846C330.539 315.734 329.963 316.592 329.118 317.232C328.273 317.859 327.224 318.173 325.969 318.173C324.958 318.173 324.062 317.949 323.281 317.501C322.5 317.04 321.886 316.4 321.438 315.581C321.003 314.749 320.785 313.789 320.785 312.701ZM342.723 312.451C342.723 312.848 342.698 313.206 342.647 313.526H334.563C334.627 314.371 334.941 315.05 335.504 315.562C336.067 316.074 336.759 316.33 337.578 316.33C338.755 316.33 339.587 315.837 340.074 314.851H342.435C342.115 315.824 341.533 316.624 340.688 317.251C339.856 317.866 338.819 318.173 337.578 318.173C336.567 318.173 335.658 317.949 334.851 317.501C334.058 317.04 333.431 316.4 332.97 315.581C332.522 314.749 332.298 313.789 332.298 312.701C332.298 311.613 332.515 310.659 332.951 309.84C333.399 309.008 334.019 308.368 334.813 307.92C335.619 307.472 336.541 307.248 337.578 307.248C338.576 307.248 339.466 307.466 340.247 307.901C341.027 308.336 341.635 308.95 342.071 309.744C342.506 310.525 342.723 311.427 342.723 312.451ZM340.439 311.76C340.426 310.954 340.138 310.307 339.575 309.821C339.011 309.334 338.314 309.091 337.482 309.091C336.727 309.091 336.08 309.334 335.543 309.821C335.005 310.294 334.685 310.941 334.583 311.76H340.439Z" fill="#898CA9"/>
<path d="M51.1406 360.976V355.863H62.7214V400.4H57.0542V360.976H51.1406ZM101.013 360.729H79.3918V374.774C80.3363 373.46 81.7326 372.392 83.5806 371.571C85.4286 370.709 87.4203 370.277 89.5558 370.277C92.9643 370.277 95.7363 370.996 97.8718 372.433C100.007 373.83 101.527 375.657 102.43 377.916C103.375 380.134 103.847 382.495 103.847 385C103.847 387.957 103.293 390.606 102.184 392.946C101.075 395.287 99.3707 397.135 97.071 398.49C94.8123 399.846 91.9992 400.523 88.6318 400.523C84.3198 400.523 80.8291 399.414 78.1598 397.197C75.4904 394.979 73.8683 392.022 73.2934 388.326H78.7758C79.3096 390.667 80.439 392.495 82.1638 393.809C83.8886 395.123 86.0651 395.78 88.6934 395.78C91.9376 395.78 94.3811 394.815 96.0238 392.885C97.6664 390.914 98.4878 388.326 98.4878 385.123C98.4878 381.92 97.6664 379.456 96.0238 377.731C94.3811 375.965 91.9582 375.082 88.755 375.082C86.5784 375.082 84.6688 375.616 83.0262 376.684C81.4246 377.711 80.2542 379.127 79.515 380.934H74.2174V355.801H101.013V360.729ZM111.562 377.67C111.562 370.606 112.712 365.103 115.011 361.161C117.311 357.177 121.336 355.185 127.085 355.185C132.793 355.185 136.797 357.177 139.097 361.161C141.397 365.103 142.547 370.606 142.547 377.67C142.547 384.856 141.397 390.441 139.097 394.425C136.797 398.408 132.793 400.4 127.085 400.4C121.336 400.4 117.311 398.408 115.011 394.425C112.712 390.441 111.562 384.856 111.562 377.67ZM137.003 377.67C137.003 374.097 136.756 371.078 136.263 368.614C135.812 366.109 134.847 364.097 133.368 362.577C131.931 361.058 129.836 360.298 127.085 360.298C124.292 360.298 122.157 361.058 120.679 362.577C119.241 364.097 118.276 366.109 117.783 368.614C117.332 371.078 117.106 374.097 117.106 377.67C117.106 381.366 117.332 384.466 117.783 386.971C118.276 389.476 119.241 391.488 120.679 393.008C122.157 394.527 124.292 395.287 127.085 395.287C129.836 395.287 131.931 394.527 133.368 393.008C134.847 391.488 135.812 389.476 136.263 386.971C136.756 384.466 137.003 381.366 137.003 377.67ZM183.464 380.257H170.343V393.562H165.107V380.257H152.048V375.514H165.107V362.146H170.343V375.514H183.464V380.257Z" fill="#272830"/>
</g>
<g filter="url(#filter2_b_119_3954)">
<rect x="0.799805" y="498" width="419.2" height="223.4" rx="19.2" fill="white" fill-opacity="0.4"/>
<rect x="0.799805" y="498" width="419.2" height="223.4" rx="19.2" fill="url(#paint4_linear_119_3954)"/>
<rect x="1.81878" y="499.019" width="417.162" height="221.362" rx="18.181" stroke="url(#paint5_linear_119_3954)" stroke-width="2.03795"/>
<path d="M58.9758 554.885H52.5438V558.706C52.8126 558.347 53.2094 558.046 53.7342 557.803C54.2718 557.56 54.8414 557.438 55.443 557.438C56.5182 557.438 57.3886 557.669 58.0542 558.13C58.7326 558.59 59.2126 559.173 59.4942 559.877C59.7886 560.581 59.9358 561.323 59.9358 562.104C59.9358 563.051 59.7502 563.896 59.379 564.638C59.0206 565.368 58.4766 565.944 57.747 566.366C57.0302 566.789 56.147 567 55.0974 567C53.7022 567 52.5822 566.654 51.7374 565.963C50.8926 565.272 50.387 564.357 50.2206 563.218H52.3518C52.4926 563.819 52.8062 564.299 53.2926 564.658C53.779 565.003 54.387 565.176 55.1166 565.176C56.0254 565.176 56.7038 564.901 57.1518 564.35C57.6126 563.8 57.843 563.07 57.843 562.162C57.843 561.24 57.6126 560.536 57.1518 560.05C56.691 559.55 56.0126 559.301 55.1166 559.301C54.4894 559.301 53.9582 559.461 53.523 559.781C53.1006 560.088 52.7934 560.51 52.6014 561.048H50.5278V552.965H58.9758V554.885ZM70.6239 559.128V560.971H62.7327V559.128H70.6239ZM77.5736 567.173C76.7416 567.173 75.9928 567.026 75.3272 566.731C74.6744 566.424 74.156 566.014 73.772 565.502C73.388 564.978 73.1832 564.395 73.1576 563.755H75.4232C75.4616 564.203 75.6728 564.581 76.0568 564.888C76.4536 565.182 76.9464 565.33 77.5352 565.33C78.1496 565.33 78.6232 565.214 78.956 564.984C79.3016 564.741 79.4744 564.434 79.4744 564.062C79.4744 563.666 79.2824 563.371 78.8984 563.179C78.5272 562.987 77.932 562.776 77.1128 562.546C76.3192 562.328 75.6728 562.117 75.1736 561.912C74.6744 561.707 74.2392 561.394 73.868 560.971C73.5096 560.549 73.3304 559.992 73.3304 559.301C73.3304 558.738 73.4968 558.226 73.8296 557.765C74.1624 557.291 74.636 556.92 75.2504 556.651C75.8776 556.382 76.5944 556.248 77.4008 556.248C78.604 556.248 79.5704 556.555 80.3 557.17C81.0424 557.771 81.4392 558.597 81.4904 559.646H79.3016C79.2632 559.173 79.0712 558.795 78.7256 558.514C78.38 558.232 77.9128 558.091 77.324 558.091C76.748 558.091 76.3064 558.2 75.9992 558.418C75.692 558.635 75.5384 558.923 75.5384 559.282C75.5384 559.563 75.6408 559.8 75.8456 559.992C76.0504 560.184 76.3 560.338 76.5944 560.453C76.8888 560.555 77.324 560.69 77.9 560.856C78.668 561.061 79.2952 561.272 79.7816 561.49C80.2808 561.694 80.7096 562.002 81.068 562.411C81.4264 562.821 81.612 563.365 81.6248 564.043C81.6248 564.645 81.4584 565.182 81.1256 565.656C80.7928 566.13 80.3192 566.501 79.7048 566.77C79.1032 567.038 78.3928 567.173 77.5736 567.173ZM86.5434 558.206V564.062C86.5434 564.459 86.633 564.747 86.8122 564.926C87.0042 565.093 87.3242 565.176 87.7722 565.176H89.1162V567H87.3882C86.4026 567 85.6474 566.77 85.1226 566.309C84.5978 565.848 84.3354 565.099 84.3354 564.062V558.206H83.0874V556.421H84.3354V553.79H86.5434V556.421H89.1162V558.206H86.5434ZM90.404 561.662C90.404 560.6 90.6216 559.659 91.0568 558.84C91.5048 558.021 92.1064 557.387 92.8616 556.939C93.6296 556.478 94.4744 556.248 95.396 556.248C96.228 556.248 96.9512 556.414 97.5656 556.747C98.1928 557.067 98.692 557.47 99.0632 557.957V556.421H101.271V567H99.0632V565.426C98.692 565.925 98.1864 566.341 97.5464 566.674C96.9064 567.006 96.1768 567.173 95.3576 567.173C94.4488 567.173 93.6168 566.942 92.8616 566.482C92.1064 566.008 91.5048 565.355 91.0568 564.523C90.6216 563.678 90.404 562.725 90.404 561.662ZM99.0632 561.701C99.0632 560.971 98.9096 560.338 98.6024 559.8C98.308 559.262 97.9176 558.853 97.4312 558.571C96.9448 558.29 96.42 558.149 95.8568 558.149C95.2936 558.149 94.7688 558.29 94.2824 558.571C93.796 558.84 93.3992 559.243 93.092 559.781C92.7976 560.306 92.6504 560.933 92.6504 561.662C92.6504 562.392 92.7976 563.032 93.092 563.582C93.3992 564.133 93.796 564.555 94.2824 564.85C94.7816 565.131 95.3064 565.272 95.8568 565.272C96.42 565.272 96.9448 565.131 97.4312 564.85C97.9176 564.568 98.308 564.158 98.6024 563.621C98.9096 563.07 99.0632 562.43 99.0632 561.701ZM106.335 557.957C106.655 557.419 107.077 557.003 107.602 556.709C108.14 556.402 108.773 556.248 109.503 556.248V558.514H108.946C108.088 558.514 107.436 558.731 106.988 559.166C106.552 559.602 106.335 560.357 106.335 561.432V567H104.146V556.421H106.335V557.957ZM118.691 557.957C119.011 557.419 119.434 557.003 119.958 556.709C120.496 556.402 121.13 556.248 121.859 556.248V558.514H121.302C120.445 558.514 119.792 558.731 119.344 559.166C118.909 559.602 118.691 560.357 118.691 561.432V567H116.502V556.421H118.691V557.957ZM133.567 561.451C133.567 561.848 133.541 562.206 133.49 562.526H125.407C125.471 563.371 125.785 564.05 126.348 564.562C126.911 565.074 127.602 565.33 128.421 565.33C129.599 565.33 130.431 564.837 130.917 563.851H133.279C132.959 564.824 132.377 565.624 131.532 566.251C130.7 566.866 129.663 567.173 128.421 567.173C127.41 567.173 126.501 566.949 125.695 566.501C124.901 566.04 124.274 565.4 123.813 564.581C123.365 563.749 123.141 562.789 123.141 561.701C123.141 560.613 123.359 559.659 123.794 558.84C124.242 558.008 124.863 557.368 125.657 556.92C126.463 556.472 127.385 556.248 128.421 556.248C129.42 556.248 130.309 556.466 131.09 556.901C131.871 557.336 132.479 557.95 132.914 558.744C133.349 559.525 133.567 560.427 133.567 561.451ZM131.282 560.76C131.269 559.954 130.981 559.307 130.418 558.821C129.855 558.334 129.157 558.091 128.325 558.091C127.57 558.091 126.924 558.334 126.386 558.821C125.849 559.294 125.529 559.941 125.426 560.76H131.282ZM139.811 565.042L142.806 556.421H145.129L141.097 567H138.486L134.473 556.421H136.815L139.811 565.042ZM147.897 555.019C147.5 555.019 147.168 554.885 146.899 554.616C146.63 554.347 146.496 554.014 146.496 553.618C146.496 553.221 146.63 552.888 146.899 552.619C147.168 552.35 147.5 552.216 147.897 552.216C148.281 552.216 148.608 552.35 148.876 552.619C149.145 552.888 149.28 553.221 149.28 553.618C149.28 554.014 149.145 554.347 148.876 554.616C148.608 554.885 148.281 555.019 147.897 555.019ZM148.972 556.421V567H146.784V556.421H148.972ZM161.542 561.451C161.542 561.848 161.516 562.206 161.465 562.526H153.382C153.446 563.371 153.76 564.05 154.323 564.562C154.886 565.074 155.577 565.33 156.396 565.33C157.574 565.33 158.406 564.837 158.892 563.851H161.254C160.934 564.824 160.352 565.624 159.507 566.251C158.675 566.866 157.638 567.173 156.396 567.173C155.385 567.173 154.476 566.949 153.67 566.501C152.876 566.04 152.249 565.4 151.788 564.581C151.34 563.749 151.116 562.789 151.116 561.701C151.116 560.613 151.334 559.659 151.769 558.84C152.217 558.008 152.838 557.368 153.632 556.92C154.438 556.472 155.36 556.248 156.396 556.248C157.395 556.248 158.284 556.466 159.065 556.901C159.846 557.336 160.454 557.95 160.889 558.744C161.324 559.525 161.542 560.427 161.542 561.451ZM159.257 560.76C159.244 559.954 158.956 559.307 158.393 558.821C157.83 558.334 157.132 558.091 156.3 558.091C155.545 558.091 154.899 558.334 154.361 558.821C153.824 559.294 153.504 559.941 153.401 560.76H159.257ZM177.904 556.421L174.621 567H172.317L170.186 559.186L168.054 567H165.75L162.448 556.421H164.675L166.883 564.926L169.13 556.421H171.414L173.565 564.888L175.754 556.421H177.904ZM183.38 567.173C182.548 567.173 181.799 567.026 181.133 566.731C180.481 566.424 179.962 566.014 179.578 565.502C179.194 564.978 178.989 564.395 178.964 563.755H181.229C181.268 564.203 181.479 564.581 181.863 564.888C182.26 565.182 182.753 565.33 183.341 565.33C183.956 565.33 184.429 565.214 184.762 564.984C185.108 564.741 185.281 564.434 185.281 564.062C185.281 563.666 185.089 563.371 184.705 563.179C184.333 562.987 183.738 562.776 182.919 562.546C182.125 562.328 181.479 562.117 180.98 561.912C180.481 561.707 180.045 561.394 179.674 560.971C179.316 560.549 179.137 559.992 179.137 559.301C179.137 558.738 179.303 558.226 179.636 557.765C179.969 557.291 180.442 556.92 181.057 556.651C181.684 556.382 182.401 556.248 183.207 556.248C184.41 556.248 185.377 556.555 186.106 557.17C186.849 557.771 187.245 558.597 187.297 559.646H185.108C185.069 559.173 184.877 558.795 184.532 558.514C184.186 558.232 183.719 558.091 183.13 558.091C182.554 558.091 182.113 558.2 181.805 558.418C181.498 558.635 181.345 558.923 181.345 559.282C181.345 559.563 181.447 559.8 181.652 559.992C181.857 560.184 182.106 560.338 182.401 560.453C182.695 560.555 183.13 560.69 183.706 560.856C184.474 561.061 185.101 561.272 185.588 561.49C186.087 561.694 186.516 562.002 186.874 562.411C187.233 562.821 187.418 563.365 187.431 564.043C187.431 564.645 187.265 565.182 186.932 565.656C186.599 566.13 186.125 566.501 185.511 566.77C184.909 567.038 184.199 567.173 183.38 567.173Z" fill="#898CA9"/>
<path d="M52.4958 616.074C52.7833 612.296 54.2411 609.339 56.8694 607.204C59.4977 605.068 62.9062 604.001 67.095 604.001C69.8875 604.001 72.2899 604.514 74.3022 605.541C76.3555 606.526 77.8955 607.881 78.9222 609.606C79.9899 611.331 80.5238 613.282 80.5238 615.458C80.5238 618.004 79.7846 620.201 78.3062 622.049C76.8689 623.897 74.9798 625.088 72.639 625.622V625.93C75.3083 626.587 77.4233 627.881 78.9838 629.811C80.5443 631.741 81.3246 634.267 81.3246 637.388C81.3246 639.729 80.7907 641.844 79.723 643.733C78.6553 645.581 77.0537 647.039 74.9182 648.106C72.7827 649.174 70.2161 649.708 67.2182 649.708C62.8651 649.708 59.2923 648.579 56.4998 646.32C53.7073 644.02 52.1467 640.776 51.8182 636.587H57.239C57.5265 639.051 58.5326 641.063 60.2574 642.624C61.9822 644.184 64.2819 644.965 67.1566 644.965C70.0313 644.965 72.2078 644.226 73.6862 642.747C75.2057 641.228 75.9654 639.277 75.9654 636.895C75.9654 633.815 74.9387 631.598 72.8854 630.242C70.8321 628.887 67.7315 628.21 63.5838 628.21H62.167V623.528H63.6454C67.4235 623.487 70.2777 622.871 72.2078 621.68C74.1379 620.448 75.103 618.559 75.103 616.013C75.103 613.836 74.3843 612.091 72.947 610.777C71.5507 609.463 69.5385 608.805 66.9102 608.805C64.3641 608.805 62.3107 609.463 60.7502 610.777C59.1897 612.091 58.2657 613.857 57.9782 616.074H52.4958ZM89.1587 626.67C89.1587 619.606 90.3086 614.103 92.6083 610.161C94.9081 606.177 98.9326 604.185 104.682 604.185C110.39 604.185 114.394 606.177 116.694 610.161C118.994 614.103 120.144 619.606 120.144 626.67C120.144 633.856 118.994 639.441 116.694 643.425C114.394 647.408 110.39 649.4 104.682 649.4C98.9326 649.4 94.9081 647.408 92.6083 643.425C90.3086 639.441 89.1587 633.856 89.1587 626.67ZM114.6 626.67C114.6 623.097 114.353 620.078 113.86 617.614C113.409 615.109 112.444 613.097 110.965 611.577C109.528 610.058 107.433 609.298 104.682 609.298C101.889 609.298 99.7539 610.058 98.2755 611.577C96.8382 613.097 95.8731 615.109 95.3803 617.614C94.9286 620.078 94.7027 623.097 94.7027 626.67C94.7027 630.366 94.9286 633.466 95.3803 635.971C95.8731 638.476 96.8382 640.488 98.2755 642.008C99.7539 643.527 101.889 644.287 104.682 644.287C107.433 644.287 109.528 643.527 110.965 642.008C112.444 640.488 113.409 638.476 113.86 635.971C114.353 633.466 114.6 630.366 114.6 626.67ZM161.061 629.257H147.94V642.562H142.704V629.257H129.645V624.514H142.704V611.146H147.94V624.514H161.061V629.257Z" fill="#272830"/>
</g>
<defs>
<filter id="filter0_b_119_3954" x="-3.27609" y="-4.07589" width="427.352" height="231.552" filterUnits="userSpaceOnUse" color-interpolation-filters="sRGB">
<feFlood flood-opacity="0" result="BackgroundImageFix"/>
<feGaussianBlur in="BackgroundImageFix" stdDeviation="2.03795"/>
<feComposite in2="SourceAlpha" operator="in" result="effect1_backgroundBlur_119_3954"/>
<feBlend mode="normal" in="SourceGraphic" in2="effect1_backgroundBlur_119_3954" result="shape"/>
</filter>
<filter id="filter1_b_119_3954" x="-3.27609" y="244.924" width="427.352" height="231.552" filterUnits="userSpaceOnUse" color-interpolation-filters="sRGB">
<feFlood flood-opacity="0" result="BackgroundImageFix"/>
<feGaussianBlur in="BackgroundImageFix" stdDeviation="2.03795"/>
<feComposite in2="SourceAlpha" operator="in" result="effect1_backgroundBlur_119_3954"/>
<feBlend mode="normal" in="SourceGraphic" in2="effect1_backgroundBlur_119_3954" result="shape"/>
</filter>
<filter id="filter2_b_119_3954" x="-3.27609" y="493.924" width="427.352" height="231.552" filterUnits="userSpaceOnUse" color-interpolation-filters="sRGB">
<feFlood flood-opacity="0" result="BackgroundImageFix"/>
<feGaussianBlur in="BackgroundImageFix" stdDeviation="2.03795"/>
<feComposite in2="SourceAlpha" operator="in" result="effect1_backgroundBlur_119_3954"/>
<feBlend mode="normal" in="SourceGraphic" in2="effect1_backgroundBlur_119_3954" result="shape"/>
</filter>
<linearGradient id="paint0_linear_119_3954" x1="210.4" y1="0" x2="210.4" y2="223.4" gradientUnits="userSpaceOnUse">
<stop stop-color="white" stop-opacity="0.2"/>
<stop offset="1" stop-color="white" stop-opacity="0"/>
</linearGradient>
<linearGradient id="paint1_linear_119_3954" x1="-87.5117" y1="-16.0947" x2="-49.2916" y2="259.272" gradientUnits="userSpaceOnUse">
<stop stop-color="white"/>
<stop offset="1" stop-color="white" stop-opacity="0"/>
</linearGradient>
<linearGradient id="paint2_linear_119_3954" x1="210.4" y1="249" x2="210.4" y2="472.4" gradientUnits="userSpaceOnUse">
<stop stop-color="white" stop-opacity="0.2"/>
<stop offset="1" stop-color="white" stop-opacity="0"/>
</linearGradient>
<linearGradient id="paint3_linear_119_3954" x1="-87.5117" y1="232.905" x2="-49.2916" y2="508.272" gradientUnits="userSpaceOnUse">
<stop stop-color="white"/>
<stop offset="1" stop-color="white" stop-opacity="0"/>
</linearGradient>
<linearGradient id="paint4_linear_119_3954" x1="210.4" y1="498" x2="210.4" y2="721.4" gradientUnits="userSpaceOnUse">
<stop stop-color="white" stop-opacity="0.2"/>
<stop offset="1" stop-color="white" stop-opacity="0"/>
</linearGradient>
<linearGradient id="paint5_linear_119_3954" x1="-87.5117" y1="481.905" x2="-49.2916" y2="757.272" gradientUnits="userSpaceOnUse">
<stop stop-color="white"/>
<stop offset="1" stop-color="white" stop-opacity="0"/>
</linearGradient>
</defs>
</svg>
