<svg width="80" height="88" viewBox="0 0 80 88" fill="none" xmlns="http://www.w3.org/2000/svg">
<g filter="url(#filter0_b_119_4152)">
<path d="M0 47.8954C0 25.8618 17.9664 8 40 8C62.0336 8 80 25.8618 80 47.8954C80 69.929 62.0336 87.7908 40 87.7908C17.9664 87.7908 0 69.929 0 47.8954Z" fill="url(#paint0_radial_119_4152)"/>
<path d="M0.5 47.8954C0.5 26.1396 18.2408 8.5 40 8.5C61.7592 8.5 79.5 26.1396 79.5 47.8954C79.5 69.6512 61.7592 87.2908 40 87.2908C18.2408 87.2908 0.5 69.6512 0.5 47.8954Z" stroke="url(#paint1_radial_119_4152)"/>
<path d="M0.5 47.8954C0.5 26.1396 18.2408 8.5 40 8.5C61.7592 8.5 79.5 26.1396 79.5 47.8954C79.5 69.6512 61.7592 87.2908 40 87.2908C18.2408 87.2908 0.5 69.6512 0.5 47.8954Z" stroke="url(#paint2_radial_119_4152)"/>
<path d="M0.5 47.8954C0.5 26.1396 18.2408 8.5 40 8.5C61.7592 8.5 79.5 26.1396 79.5 47.8954C79.5 69.6512 61.7592 87.2908 40 87.2908C18.2408 87.2908 0.5 69.6512 0.5 47.8954Z" stroke="url(#paint3_radial_119_4152)"/>
</g>
<g filter="url(#filter1_f_119_4152)">
<ellipse cx="39.7435" cy="29.4821" rx="25.3846" ry="16.3673" fill="url(#paint4_radial_119_4152)" fill-opacity="0.2"/>
</g>
<path d="M56.4607 46.4768C56.4039 46.2363 56.2886 46.0137 56.125 45.8285C55.9615 45.6434 55.7548 45.5015 55.5232 45.4155L44.7213 41.3636L47.4701 27.6143C47.5323 27.2948 47.489 26.9638 47.3465 26.6711C47.2041 26.3784 46.9704 26.14 46.6806 25.9919C46.3909 25.8437 46.0607 25.7938 45.7401 25.8497C45.4195 25.9056 45.1257 26.0643 44.9032 26.3018L23.9032 48.8018C23.7326 48.9815 23.6092 49.2006 23.5441 49.4397C23.4789 49.6787 23.4739 49.9302 23.5296 50.1716C23.5853 50.413 23.7 50.6369 23.8633 50.8232C24.0267 51.0095 24.2336 51.1525 24.4657 51.2393L35.2713 55.2911L32.5301 69.0255C32.4678 69.345 32.5112 69.676 32.6536 69.9687C32.796 70.2613 33.0297 70.4997 33.3195 70.6479C33.6093 70.7961 33.9394 70.846 34.26 70.7901C34.5806 70.7342 34.8744 70.5755 35.0969 70.338L56.0969 47.838C56.2644 47.6582 56.3852 47.4401 56.4486 47.2027C56.512 46.9654 56.5162 46.7161 56.4607 46.4768ZM36.5069 64.4449L38.4701 54.6236C38.5403 54.2753 38.4846 53.9134 38.313 53.6023C38.1413 53.2912 37.8647 53.0511 37.5326 52.9249L27.6251 49.203L43.4913 32.2043L41.5301 42.0255C41.4598 42.3738 41.5155 42.7358 41.6872 43.0469C41.8589 43.358 42.1354 43.598 42.4676 43.7243L52.3676 47.4368L36.5069 64.4449Z" fill="white"/>
<defs>
<filter id="filter0_b_119_4152" x="-5" y="3" width="90" height="89.7908" filterUnits="userSpaceOnUse" color-interpolation-filters="sRGB">
<feFlood flood-opacity="0" result="BackgroundImageFix"/>
<feGaussianBlur in="BackgroundImageFix" stdDeviation="2.5"/>
<feComposite in2="SourceAlpha" operator="in" result="effect1_backgroundBlur_119_4152"/>
<feBlend mode="normal" in="SourceGraphic" in2="effect1_backgroundBlur_119_4152" result="shape"/>
</filter>
<filter id="filter1_f_119_4152" x="1.40435" y="0.160212" width="76.6784" height="58.6437" filterUnits="userSpaceOnUse" color-interpolation-filters="sRGB">
<feFlood flood-opacity="0" result="BackgroundImageFix"/>
<feBlend mode="normal" in="SourceGraphic" in2="BackgroundImageFix" result="shape"/>
<feGaussianBlur stdDeviation="6.47727" result="effect1_foregroundBlur_119_4152"/>
</filter>
<radialGradient id="paint0_radial_119_4152" cx="0" cy="0" r="1" gradientUnits="userSpaceOnUse" gradientTransform="translate(6.69204 8) rotate(47.9449) scale(119.431 86.7751)">
<stop stop-color="white" stop-opacity="0.36"/>
<stop offset="1" stop-color="white" stop-opacity="0"/>
</radialGradient>
<radialGradient id="paint1_radial_119_4152" cx="0" cy="0" r="1" gradientUnits="userSpaceOnUse" gradientTransform="translate(-42.5965 16.1628) rotate(35.0407) scale(92.1512 54.3882)">
<stop stop-color="white"/>
<stop offset="1" stop-color="white" stop-opacity="0.06"/>
</radialGradient>
<radialGradient id="paint2_radial_119_4152" cx="0" cy="0" r="1" gradientUnits="userSpaceOnUse" gradientTransform="translate(103.421 61.4008) rotate(161.385) scale(66.8428 45.1784)">
<stop stop-color="#8470FF"/>
<stop offset="1" stop-color="#865CFF" stop-opacity="0"/>
</radialGradient>
<radialGradient id="paint3_radial_119_4152" cx="0" cy="0" r="1" gradientUnits="userSpaceOnUse" gradientTransform="translate(40.871 -10.2359) rotate(47.2149) scale(44.643 32.0879)">
<stop/>
<stop offset="1" stop-color="white" stop-opacity="0"/>
</radialGradient>
<radialGradient id="paint4_radial_119_4152" cx="0" cy="0" r="1" gradientUnits="userSpaceOnUse" gradientTransform="translate(39.7435 13.1147) rotate(90) scale(24.2566 37.625)">
<stop stop-color="white"/>
<stop offset="1" stop-color="white" stop-opacity="0"/>
</radialGradient>
</defs>
</svg>
