<svg width="80" height="88" viewBox="0 0 80 88" fill="none" xmlns="http://www.w3.org/2000/svg">
<g filter="url(#filter0_b_213_1847)">
<path d="M0.00012207 47.8754C0.00012207 25.8418 17.9665 7.97998 40.0001 7.97998C62.0337 7.97998 80.0001 25.8418 80.0001 47.8754C80.0001 69.909 62.0337 87.7708 40.0001 87.7708C17.9665 87.7708 0.00012207 69.909 0.00012207 47.8754Z" fill="url(#paint0_radial_213_1847)"/>
<path d="M0.500122 47.8754C0.500122 26.1196 18.2409 8.47998 40.0001 8.47998C61.7593 8.47998 79.5001 26.1196 79.5001 47.8754C79.5001 69.6312 61.7593 87.2708 40.0001 87.2708C18.2409 87.2708 0.500122 69.6312 0.500122 47.8754Z" stroke="url(#paint1_radial_213_1847)"/>
<path d="M0.500122 47.8754C0.500122 26.1196 18.2409 8.47998 40.0001 8.47998C61.7593 8.47998 79.5001 26.1196 79.5001 47.8754C79.5001 69.6312 61.7593 87.2708 40.0001 87.2708C18.2409 87.2708 0.500122 69.6312 0.500122 47.8754Z" stroke="url(#paint2_radial_213_1847)"/>
<path d="M0.500122 47.8754C0.500122 26.1196 18.2409 8.47998 40.0001 8.47998C61.7593 8.47998 79.5001 26.1196 79.5001 47.8754C79.5001 69.6312 61.7593 87.2708 40.0001 87.2708C18.2409 87.2708 0.500122 69.6312 0.500122 47.8754Z" stroke="url(#paint3_radial_213_1847)"/>
</g>
<g filter="url(#filter1_f_213_1847)">
<ellipse cx="39.7436" cy="29.4621" rx="25.3846" ry="16.3673" fill="url(#paint4_radial_213_1847)" fill-opacity="0.2"/>
</g>
<g clip-path="url(#clip0_213_1847)">
<path d="M56.8777 44.2894C56.4993 44.3527 56.1616 44.5637 55.9389 44.876C55.7161 45.1883 55.6265 45.5762 55.6898 45.9546C55.8366 46.8317 55.9104 47.7195 55.9104 48.6088C55.9138 52.5036 54.4823 56.2633 51.8893 59.1695C50.2761 56.8319 48.0078 55.0233 45.3695 53.9714C46.7867 52.8552 47.8208 51.3251 48.328 49.594C48.8353 47.8628 48.7905 46.0166 48.1998 44.3121C47.6092 42.6075 46.502 41.1294 45.0324 40.0833C43.5627 39.0372 41.8036 38.475 39.9996 38.475C38.1957 38.475 36.4366 39.0372 34.9669 40.0833C33.4972 41.1294 32.3901 42.6075 31.7994 44.3121C31.2088 46.0166 31.164 47.8628 31.6712 49.594C32.1785 51.3251 33.2126 52.8552 34.6298 53.9714C31.9915 55.0233 29.7232 56.8319 28.11 59.1695C26.0754 56.8769 24.7465 54.0453 24.2828 51.0153C23.8192 47.9854 24.2407 44.886 25.4965 42.0898C26.7524 39.2937 28.7893 36.9198 31.3621 35.2537C33.935 33.5876 36.9344 32.7001 39.9996 32.6981C40.889 32.6979 41.7767 32.7717 42.6538 32.9186C43.0305 32.9781 43.4153 32.8864 43.7247 32.6635C44.0341 32.4406 44.243 32.1046 44.3059 31.7286C44.3688 31.3525 44.2807 30.9668 44.0607 30.6554C43.8407 30.3439 43.5066 30.132 43.1312 30.0656C39.2031 29.4047 35.1667 30.0094 31.6046 31.7922C28.0426 33.575 25.1393 36.4437 23.314 39.9841C21.4886 43.5245 20.8356 47.5534 21.4493 51.4891C22.063 55.4248 23.9116 59.0636 26.7282 61.8802C29.5448 64.6968 33.1836 66.5454 37.1193 67.1591C41.055 67.7728 45.0839 67.1198 48.6243 65.2944C52.1647 63.4691 55.0334 60.5658 56.8162 57.0038C58.599 53.4418 59.2037 49.4053 58.5429 45.4773C58.4795 45.0989 58.2685 44.7612 57.9563 44.5385C57.644 44.3157 57.256 44.2261 56.8777 44.2894ZM34.2139 47.1623C34.2139 46.018 34.5533 44.8994 35.189 43.948C35.8247 42.9965 36.7283 42.2549 37.7855 41.817C38.8427 41.3791 40.0061 41.2646 41.1284 41.4878C42.2507 41.711 43.2816 42.2621 44.0908 43.0712C44.8999 43.8804 45.4509 44.9113 45.6742 46.0336C45.8974 47.1559 45.7828 48.3192 45.3449 49.3764C44.907 50.4336 44.1655 51.3372 43.214 51.973C42.2626 52.6087 41.1439 52.9481 39.9996 52.9481C38.4652 52.9481 36.9936 52.3385 35.9085 51.2535C34.8235 50.1684 34.2139 48.6968 34.2139 47.1623ZM30.2507 61.1746C31.2971 59.5381 32.7386 58.1914 34.4423 57.2585C36.1461 56.3256 38.0572 55.8367 39.9996 55.8367C41.9421 55.8367 43.8532 56.3256 45.557 57.2585C47.2607 58.1914 48.7022 59.5381 49.7486 61.1746C46.9612 63.3424 43.5308 64.5194 39.9996 64.5194C36.4685 64.5194 33.0381 63.3424 30.2507 61.1746ZM59.8266 33.7214L54.0408 39.5071C53.9065 39.6416 53.747 39.7483 53.5714 39.8211C53.3958 39.8939 53.2076 39.9313 53.0175 39.9313C52.8274 39.9313 52.6392 39.8939 52.4636 39.8211C52.288 39.7483 52.1285 39.6416 51.9941 39.5071L49.1013 36.6143C48.9669 36.4799 48.8603 36.3203 48.7876 36.1447C48.7148 35.9692 48.6774 35.781 48.6774 35.5909C48.6774 35.4009 48.7148 35.2127 48.7876 35.0371C48.8603 34.8615 48.9669 34.702 49.1013 34.5676C49.3727 34.2962 49.7408 34.1437 50.1246 34.1437C50.3147 34.1437 50.5029 34.1811 50.6785 34.2538C50.8541 34.3266 51.0136 34.4332 51.148 34.5676L53.0175 36.4389L57.7799 31.6747C57.9142 31.5403 58.0738 31.4337 58.2494 31.361C58.425 31.2883 58.6132 31.2508 58.8032 31.2508C58.9933 31.2508 59.1815 31.2883 59.357 31.361C59.5326 31.4337 59.6922 31.5403 59.8266 31.6747C59.9609 31.8091 60.0675 31.9686 60.1403 32.1442C60.213 32.3198 60.2504 32.508 60.2504 32.6981C60.2504 32.8881 60.213 33.0763 60.1403 33.2519C60.0675 33.4275 59.9609 33.587 59.8266 33.7214Z" fill="white"/>
</g>
<defs>
<filter id="filter0_b_213_1847" x="-4.99988" y="2.97998" width="90" height="89.7908" filterUnits="userSpaceOnUse" color-interpolation-filters="sRGB">
<feFlood flood-opacity="0" result="BackgroundImageFix"/>
<feGaussianBlur in="BackgroundImageFix" stdDeviation="2.5"/>
<feComposite in2="SourceAlpha" operator="in" result="effect1_backgroundBlur_213_1847"/>
<feBlend mode="normal" in="SourceGraphic" in2="effect1_backgroundBlur_213_1847" result="shape"/>
</filter>
<filter id="filter1_f_213_1847" x="1.40447" y="0.140192" width="76.6784" height="58.6437" filterUnits="userSpaceOnUse" color-interpolation-filters="sRGB">
<feFlood flood-opacity="0" result="BackgroundImageFix"/>
<feBlend mode="normal" in="SourceGraphic" in2="BackgroundImageFix" result="shape"/>
<feGaussianBlur stdDeviation="6.47727" result="effect1_foregroundBlur_213_1847"/>
</filter>
<radialGradient id="paint0_radial_213_1847" cx="0" cy="0" r="1" gradientUnits="userSpaceOnUse" gradientTransform="translate(6.69216 7.97998) rotate(47.9449) scale(119.431 86.7751)">
<stop stop-color="white" stop-opacity="0.36"/>
<stop offset="1" stop-color="white" stop-opacity="0"/>
</radialGradient>
<radialGradient id="paint1_radial_213_1847" cx="0" cy="0" r="1" gradientUnits="userSpaceOnUse" gradientTransform="translate(-42.5964 16.1428) rotate(35.0407) scale(92.1512 54.3882)">
<stop stop-color="white"/>
<stop offset="1" stop-color="white" stop-opacity="0.06"/>
</radialGradient>
<radialGradient id="paint2_radial_213_1847" cx="0" cy="0" r="1" gradientUnits="userSpaceOnUse" gradientTransform="translate(103.421 61.3807) rotate(161.385) scale(66.8428 45.1784)">
<stop stop-color="#8470FF"/>
<stop offset="1" stop-color="#865CFF" stop-opacity="0"/>
</radialGradient>
<radialGradient id="paint3_radial_213_1847" cx="0" cy="0" r="1" gradientUnits="userSpaceOnUse" gradientTransform="translate(40.8711 -10.2559) rotate(47.2149) scale(44.643 32.0879)">
<stop/>
<stop offset="1" stop-color="white" stop-opacity="0"/>
</radialGradient>
<radialGradient id="paint4_radial_213_1847" cx="0" cy="0" r="1" gradientUnits="userSpaceOnUse" gradientTransform="translate(39.7436 13.0947) rotate(90) scale(24.2566 37.625)">
<stop stop-color="white"/>
<stop offset="1" stop-color="white" stop-opacity="0"/>
</radialGradient>
<clipPath id="clip0_213_1847">
<rect width="48" height="48" fill="white" transform="translate(15.9999 24.3)"/>
</clipPath>
</defs>
</svg>
