<svg width="80" height="89" viewBox="0 0 80 89" fill="none" xmlns="http://www.w3.org/2000/svg">
<g filter="url(#filter0_b_119_3831)">
<path d="M0 48.6552C0 26.6216 17.9664 8.75977 40 8.75977C62.0336 8.75977 80 26.6216 80 48.6552C80 70.6888 62.0336 88.5506 40 88.5506C17.9664 88.5506 0 70.6888 0 48.6552Z" fill="url(#paint0_radial_119_3831)"/>
<path d="M0.5 48.6552C0.5 26.8994 18.2408 9.25977 40 9.25977C61.7592 9.25977 79.5 26.8994 79.5 48.6552C79.5 70.4109 61.7592 88.0506 40 88.0506C18.2408 88.0506 0.5 70.4109 0.5 48.6552Z" stroke="url(#paint1_radial_119_3831)"/>
<path d="M0.5 48.6552C0.5 26.8994 18.2408 9.25977 40 9.25977C61.7592 9.25977 79.5 26.8994 79.5 48.6552C79.5 70.4109 61.7592 88.0506 40 88.0506C18.2408 88.0506 0.5 70.4109 0.5 48.6552Z" stroke="url(#paint2_radial_119_3831)"/>
<path d="M0.5 48.6552C0.5 26.8994 18.2408 9.25977 40 9.25977C61.7592 9.25977 79.5 26.8994 79.5 48.6552C79.5 70.4109 61.7592 88.0506 40 88.0506C18.2408 88.0506 0.5 70.4109 0.5 48.6552Z" stroke="url(#paint3_radial_119_3831)"/>
</g>
<g filter="url(#filter1_f_119_3831)">
<ellipse cx="39.7435" cy="30.2419" rx="25.3846" ry="16.3673" fill="url(#paint4_radial_119_3831)" fill-opacity="0.2"/>
</g>
<path d="M35.022 36.3154C34.3619 36.3154 33.7289 36.5776 33.2621 37.0443C32.7954 37.5111 32.5331 38.1442 32.5331 38.8043C32.5331 39.4643 32.7954 40.0974 33.2621 40.5642C33.7289 41.0309 34.3619 41.2931 35.022 41.2931H48.925L45.7068 44.5113C45.2535 44.9807 45.0026 45.6094 45.0083 46.262C45.0139 46.9145 45.2757 47.5388 45.7371 48.0002C46.1986 48.4617 46.8228 48.7235 47.4754 48.7291C48.128 48.7348 48.7567 48.4839 49.2261 48.0306L56.6928 40.5639C57.1594 40.0972 57.4215 39.4642 57.4215 38.8043C57.4215 38.1443 57.1594 37.5113 56.6928 37.0446L49.2261 29.5779C48.9965 29.3402 48.7219 29.1506 48.4182 29.0202C48.1146 28.8897 47.788 28.8211 47.4575 28.8182C47.127 28.8153 46.7993 28.8783 46.4934 29.0035C46.1876 29.1286 45.9097 29.3134 45.676 29.5471C45.4423 29.7808 45.2575 30.0587 45.1323 30.3645C45.0072 30.6704 44.9442 30.9982 44.9471 31.3286C44.95 31.6591 45.0186 31.9857 45.1491 32.2893C45.2795 32.593 45.4691 32.8676 45.7068 33.0972L48.925 36.3154H35.022Z" fill="white"/>
<path d="M44.9776 61.2043C45.6377 61.2043 46.2707 60.942 46.7375 60.4753C47.2043 60.0085 47.4665 59.3755 47.4665 58.7154C47.4665 58.0553 47.2043 57.4222 46.7375 56.9555C46.2707 56.4887 45.6377 56.2265 44.9776 56.2265H31.0747L34.2928 53.0083C34.5305 52.7787 34.7201 52.5041 34.8506 52.2005C34.981 51.8968 35.0497 51.5702 35.0525 51.2397C35.0554 50.9093 34.9924 50.5815 34.8673 50.2757C34.7421 49.9698 34.5573 49.6919 34.3236 49.4582C34.09 49.2245 33.8121 49.0397 33.5062 48.9146C33.2003 48.7894 32.8726 48.7264 32.5421 48.7293C32.2116 48.7322 31.885 48.8008 31.5814 48.9313C31.2777 49.0617 31.0031 49.2513 30.7735 49.4891L23.3068 56.9557C22.8402 57.4225 22.5781 58.0554 22.5781 58.7154C22.5781 59.3753 22.8402 60.0083 23.3068 60.475L30.7735 67.9417C31.2429 68.395 31.8716 68.6459 32.5242 68.6402C33.1768 68.6346 33.801 68.3728 34.2625 67.9114C34.7239 67.4499 34.9857 66.8256 34.9914 66.1731C34.997 65.5205 34.7462 64.8918 34.2928 64.4224L31.0747 61.2043H44.9776Z" fill="white"/>
<defs>
<filter id="filter0_b_119_3831" x="-5" y="3.75977" width="90" height="89.7908" filterUnits="userSpaceOnUse" color-interpolation-filters="sRGB">
<feFlood flood-opacity="0" result="BackgroundImageFix"/>
<feGaussianBlur in="BackgroundImageFix" stdDeviation="2.5"/>
<feComposite in2="SourceAlpha" operator="in" result="effect1_backgroundBlur_119_3831"/>
<feBlend mode="normal" in="SourceGraphic" in2="effect1_backgroundBlur_119_3831" result="shape"/>
</filter>
<filter id="filter1_f_119_3831" x="1.40435" y="0.919977" width="76.6784" height="58.6437" filterUnits="userSpaceOnUse" color-interpolation-filters="sRGB">
<feFlood flood-opacity="0" result="BackgroundImageFix"/>
<feBlend mode="normal" in="SourceGraphic" in2="BackgroundImageFix" result="shape"/>
<feGaussianBlur stdDeviation="6.47727" result="effect1_foregroundBlur_119_3831"/>
</filter>
<radialGradient id="paint0_radial_119_3831" cx="0" cy="0" r="1" gradientUnits="userSpaceOnUse" gradientTransform="translate(6.69204 8.75977) rotate(47.9449) scale(119.431 86.7751)">
<stop stop-color="white" stop-opacity="0.36"/>
<stop offset="1" stop-color="white" stop-opacity="0"/>
</radialGradient>
<radialGradient id="paint1_radial_119_3831" cx="0" cy="0" r="1" gradientUnits="userSpaceOnUse" gradientTransform="translate(-42.5965 16.9226) rotate(35.0407) scale(92.1512 54.3882)">
<stop stop-color="white"/>
<stop offset="1" stop-color="white" stop-opacity="0.06"/>
</radialGradient>
<radialGradient id="paint2_radial_119_3831" cx="0" cy="0" r="1" gradientUnits="userSpaceOnUse" gradientTransform="translate(103.421 62.1605) rotate(161.385) scale(66.8428 45.1784)">
<stop stop-color="#8470FF"/>
<stop offset="1" stop-color="#865CFF" stop-opacity="0"/>
</radialGradient>
<radialGradient id="paint3_radial_119_3831" cx="0" cy="0" r="1" gradientUnits="userSpaceOnUse" gradientTransform="translate(40.871 -9.47616) rotate(47.2149) scale(44.643 32.0879)">
<stop/>
<stop offset="1" stop-color="white" stop-opacity="0"/>
</radialGradient>
<radialGradient id="paint4_radial_119_3831" cx="0" cy="0" r="1" gradientUnits="userSpaceOnUse" gradientTransform="translate(39.7435 13.8745) rotate(90) scale(24.2566 37.625)">
<stop stop-color="white"/>
<stop offset="1" stop-color="white" stop-opacity="0"/>
</radialGradient>
</defs>
</svg>
