<svg width="80" height="89" viewBox="0 0 80 89" fill="none" xmlns="http://www.w3.org/2000/svg">
<g filter="url(#filter0_b_119_3889)">
<path d="M0 48.6554C0 26.6218 17.9664 8.76001 40 8.76001C62.0336 8.76001 80 26.6218 80 48.6554C80 70.689 62.0336 88.5508 40 88.5508C17.9664 88.5508 0 70.689 0 48.6554Z" fill="url(#paint0_radial_119_3889)"/>
<path d="M0.5 48.6554C0.5 26.8996 18.2408 9.26001 40 9.26001C61.7592 9.26001 79.5 26.8996 79.5 48.6554C79.5 70.4112 61.7592 88.0508 40 88.0508C18.2408 88.0508 0.5 70.4112 0.5 48.6554Z" stroke="url(#paint1_radial_119_3889)"/>
<path d="M0.5 48.6554C0.5 26.8996 18.2408 9.26001 40 9.26001C61.7592 9.26001 79.5 26.8996 79.5 48.6554C79.5 70.4112 61.7592 88.0508 40 88.0508C18.2408 88.0508 0.5 70.4112 0.5 48.6554Z" stroke="url(#paint2_radial_119_3889)"/>
<path d="M0.5 48.6554C0.5 26.8996 18.2408 9.26001 40 9.26001C61.7592 9.26001 79.5 26.8996 79.5 48.6554C79.5 70.4112 61.7592 88.0508 40 88.0508C18.2408 88.0508 0.5 70.4112 0.5 48.6554Z" stroke="url(#paint3_radial_119_3889)"/>
</g>
<g filter="url(#filter1_f_119_3889)">
<ellipse cx="39.744" cy="30.2421" rx="25.3846" ry="16.3673" fill="url(#paint4_radial_119_3889)" fill-opacity="0.2"/>
</g>
<path fill-rule="evenodd" clip-rule="evenodd" d="M46.2225 32.1675C48.9313 32.1675 51.2376 33.8993 52.0921 36.3156H33.7781C31.0277 36.3156 28.3899 37.4082 26.4451 39.353C24.5003 41.2979 23.4077 43.9356 23.4077 46.686V56.7038C22.1942 56.2744 21.1437 55.4794 20.4008 54.4282C19.6579 53.377 19.2592 52.1214 19.2596 50.8341V38.3897C19.2596 36.7395 19.9151 35.1568 21.082 33.9899C22.2489 32.823 23.8315 32.1675 25.4818 32.1675H46.2225ZM54.5188 40.4638H33.7781C32.1278 40.4638 30.5452 41.1193 29.3783 42.2862C28.2114 43.4531 27.5558 45.0358 27.5558 46.686V59.1304C27.5558 60.7807 28.2114 62.3633 29.3783 63.5302C30.5452 64.6971 32.1278 65.3527 33.7781 65.3527H54.5188C56.169 65.3527 57.7517 64.6971 58.9186 63.5302C60.0855 62.3633 60.741 60.7807 60.741 59.1304V46.686C60.741 45.0358 60.0855 43.4531 58.9186 42.2862C57.7517 41.1193 56.169 40.4638 54.5188 40.4638ZM48.2966 52.9082C48.2966 54.0084 47.8596 55.0635 47.0816 55.8414C46.3037 56.6193 45.2486 57.0564 44.1484 57.0564C43.0483 57.0564 41.9932 56.6193 41.2153 55.8414C40.4373 55.0635 40.0003 54.0084 40.0003 52.9082C40.0003 51.8081 40.4373 50.753 41.2153 49.975C41.9932 49.1971 43.0483 48.7601 44.1484 48.7601C45.2486 48.7601 46.3037 49.1971 47.0816 49.975C47.8596 50.753 48.2966 51.8081 48.2966 52.9082Z" fill="white"/>
<defs>
<filter id="filter0_b_119_3889" x="-5" y="3.76001" width="90" height="89.7908" filterUnits="userSpaceOnUse" color-interpolation-filters="sRGB">
<feFlood flood-opacity="0" result="BackgroundImageFix"/>
<feGaussianBlur in="BackgroundImageFix" stdDeviation="2.5"/>
<feComposite in2="SourceAlpha" operator="in" result="effect1_backgroundBlur_119_3889"/>
<feBlend mode="normal" in="SourceGraphic" in2="effect1_backgroundBlur_119_3889" result="shape"/>
</filter>
<filter id="filter1_f_119_3889" x="1.40484" y="0.920221" width="76.6783" height="58.6437" filterUnits="userSpaceOnUse" color-interpolation-filters="sRGB">
<feFlood flood-opacity="0" result="BackgroundImageFix"/>
<feBlend mode="normal" in="SourceGraphic" in2="BackgroundImageFix" result="shape"/>
<feGaussianBlur stdDeviation="6.47727" result="effect1_foregroundBlur_119_3889"/>
</filter>
<radialGradient id="paint0_radial_119_3889" cx="0" cy="0" r="1" gradientUnits="userSpaceOnUse" gradientTransform="translate(6.69204 8.76001) rotate(47.9449) scale(119.431 86.7751)">
<stop stop-color="white" stop-opacity="0.36"/>
<stop offset="1" stop-color="white" stop-opacity="0"/>
</radialGradient>
<radialGradient id="paint1_radial_119_3889" cx="0" cy="0" r="1" gradientUnits="userSpaceOnUse" gradientTransform="translate(-42.5965 16.9228) rotate(35.0407) scale(92.1512 54.3882)">
<stop stop-color="white"/>
<stop offset="1" stop-color="white" stop-opacity="0.06"/>
</radialGradient>
<radialGradient id="paint2_radial_119_3889" cx="0" cy="0" r="1" gradientUnits="userSpaceOnUse" gradientTransform="translate(103.421 62.1608) rotate(161.385) scale(66.8428 45.1784)">
<stop stop-color="#8470FF"/>
<stop offset="1" stop-color="#865CFF" stop-opacity="0"/>
</radialGradient>
<radialGradient id="paint3_radial_119_3889" cx="0" cy="0" r="1" gradientUnits="userSpaceOnUse" gradientTransform="translate(40.871 -9.47592) rotate(47.2149) scale(44.643 32.0879)">
<stop/>
<stop offset="1" stop-color="white" stop-opacity="0"/>
</radialGradient>
<radialGradient id="paint4_radial_119_3889" cx="0" cy="0" r="1" gradientUnits="userSpaceOnUse" gradientTransform="translate(39.744 13.8748) rotate(90) scale(24.2566 37.625)">
<stop stop-color="white"/>
<stop offset="1" stop-color="white" stop-opacity="0"/>
</radialGradient>
</defs>
</svg>
