<svg width="98" height="108" viewBox="0 0 98 108" fill="none" xmlns="http://www.w3.org/2000/svg">
<g filter="url(#filter0_b_119_3860)">
<path d="M0.578979 58.7317C0.578979 32.0594 22.3277 10.4373 49 10.4373C75.6723 10.4373 97.4211 32.0594 97.4211 58.7317C97.4211 85.404 75.6723 107.026 49 107.026C22.3277 107.026 0.578979 85.404 0.578979 58.7317Z" fill="url(#paint0_radial_119_3860)"/>
<path d="M1.18424 58.7317C1.18424 32.3958 22.66 11.0425 49 11.0425C75.3401 11.0425 96.8158 32.3958 96.8158 58.7317C96.8158 85.0676 75.3401 106.421 49 106.421C22.66 106.421 1.18424 85.0676 1.18424 58.7317Z" stroke="url(#paint1_radial_119_3860)" stroke-width="1.21053"/>
<path d="M1.18424 58.7317C1.18424 32.3958 22.66 11.0425 49 11.0425C75.3401 11.0425 96.8158 32.3958 96.8158 58.7317C96.8158 85.0676 75.3401 106.421 49 106.421C22.66 106.421 1.18424 85.0676 1.18424 58.7317Z" stroke="url(#paint2_radial_119_3860)" stroke-width="1.21053"/>
<path d="M1.18424 58.7317C1.18424 32.3958 22.66 11.0425 49 11.0425C75.3401 11.0425 96.8158 32.3958 96.8158 58.7317C96.8158 85.0676 75.3401 106.421 49 106.421C22.66 106.421 1.18424 85.0676 1.18424 58.7317Z" stroke="url(#paint3_radial_119_3860)" stroke-width="1.21053"/>
</g>
<g filter="url(#filter1_f_119_3860)">
<ellipse cx="48.6896" cy="36.442" rx="30.7287" ry="19.8131" fill="url(#paint4_radial_119_3860)" fill-opacity="0.2"/>
</g>
<path d="M71.5004 50.9998C71.5011 50.1775 71.3087 49.3666 70.9386 48.6323C70.5685 47.898 70.0311 47.261 69.3697 46.7724C68.7084 46.2838 67.9415 45.9575 67.1308 45.8196C66.3202 45.6817 65.4885 45.7361 64.7028 45.9785C63.9171 46.2209 63.1993 46.6445 62.6072 47.2151C62.0151 47.7857 61.5654 48.4874 61.2942 49.2636C61.023 50.0399 60.9379 50.869 61.0458 51.6841C61.1537 52.4993 61.4516 53.2777 61.9154 53.9567L56.8923 60.1442L52.3754 49.7623C53.1992 49.069 53.7899 48.1391 54.0674 47.0987C54.3449 46.0584 54.2958 44.9578 53.9268 43.9463C53.5578 42.9348 52.8867 42.0612 52.0044 41.4439C51.1222 40.8267 50.0715 40.4956 48.9948 40.4956C47.918 40.4956 46.8673 40.8267 45.9851 41.4439C45.1029 42.0612 44.4317 42.9348 44.0627 43.9463C43.6937 44.9578 43.6446 46.0584 43.9221 47.0987C44.1997 48.1391 44.7904 49.069 45.6141 49.7623L41.1085 60.1386L36.0854 53.9511C36.7307 53.0056 37.0492 51.8751 36.9926 50.7318C36.936 49.5886 36.5072 48.4951 35.7717 47.618C35.0361 46.741 34.0341 46.1283 32.9182 45.8734C31.8022 45.6185 30.6335 45.7353 29.5901 46.206C28.5467 46.6767 27.6857 47.4756 27.1383 48.4809C26.5909 49.4862 26.387 50.6428 26.5578 51.7747C26.7285 52.9066 27.2645 53.9516 28.0841 54.7507C28.9037 55.5498 29.9621 56.0591 31.0979 56.2011L33.8129 72.4929C33.9296 73.1934 34.291 73.8297 34.8328 74.2887C35.3745 74.7477 36.0616 74.9997 36.7716 74.9998H61.2291C61.9392 74.9997 62.6263 74.7477 63.168 74.2887C63.7098 73.8297 64.0712 73.1934 64.1879 72.4929L66.901 56.2086C68.1707 56.05 69.3388 55.4332 70.1858 54.474C71.0327 53.5148 71.5002 52.2794 71.5004 50.9998ZM49.0004 43.4998C49.4454 43.4998 49.8804 43.6318 50.2504 43.879C50.6204 44.1262 50.9088 44.4776 51.0791 44.8888C51.2494 45.2999 51.294 45.7523 51.2072 46.1888C51.1203 46.6252 50.9061 47.0261 50.5914 47.3408C50.2767 47.6555 49.8758 47.8698 49.4394 47.9566C49.0029 48.0434 48.5505 47.9988 48.1394 47.8285C47.7282 47.6582 47.3768 47.3698 47.1296 46.9998C46.8824 46.6298 46.7504 46.1948 46.7504 45.7498C46.7504 45.1531 46.9874 44.5808 47.4094 44.1588C47.8314 43.7369 48.4037 43.4998 49.0004 43.4998ZM29.5004 50.9998C29.5004 50.5548 29.6324 50.1198 29.8796 49.7498C30.1268 49.3798 30.4782 49.0914 30.8894 48.9211C31.3005 48.7508 31.7529 48.7062 32.1893 48.793C32.6258 48.8799 33.0267 49.0941 33.3414 49.4088C33.6561 49.7235 33.8703 50.1244 33.9572 50.5609C34.044 50.9973 33.9994 51.4497 33.8291 51.8608C33.6588 52.272 33.3704 52.6234 33.0004 52.8706C32.6304 53.1178 32.1954 53.2498 31.7504 53.2498C31.1537 53.2498 30.5814 53.0128 30.1594 52.5908C29.7374 52.1688 29.5004 51.5965 29.5004 50.9998ZM61.2291 71.9998H36.7716L34.1616 56.3473L40.336 63.9373C40.4759 64.112 40.653 64.2531 40.8545 64.3505C41.056 64.4478 41.2766 64.4988 41.5004 64.4998C41.5681 64.5001 41.6358 64.4957 41.7029 64.4867C41.9584 64.4519 42.2007 64.3519 42.4063 64.1962C42.6119 64.0405 42.7739 63.8345 42.8766 63.5979L48.3704 50.9604C48.7888 51.0129 49.212 51.0129 49.6304 50.9604L55.1241 63.5979C55.2269 63.8345 55.3889 64.0405 55.5945 64.1962C55.8001 64.3519 56.0424 64.4519 56.2979 64.4867C56.365 64.4957 56.4327 64.5001 56.5004 64.4998C56.7241 64.4988 56.9448 64.4478 57.1463 64.3505C57.3478 64.2531 57.5249 64.112 57.6648 63.9373L63.8391 56.3398L61.2291 71.9998ZM66.2504 53.2498C65.8054 53.2498 65.3704 53.1178 65.0004 52.8706C64.6304 52.6234 64.342 52.272 64.1717 51.8608C64.0014 51.4497 63.9568 50.9973 64.0436 50.5609C64.1304 50.1244 64.3447 49.7235 64.6594 49.4088C64.9741 49.0941 65.375 48.8799 65.8114 48.793C66.2479 48.7062 66.7003 48.7508 67.1114 48.9211C67.5226 49.0914 67.874 49.3798 68.1212 49.7498C68.3684 50.1198 68.5004 50.5548 68.5004 50.9998C68.5004 51.5965 68.2633 52.1688 67.8414 52.5908C67.4194 53.0128 66.8471 53.2498 66.2504 53.2498Z" fill="white"/>
<defs>
<filter id="filter0_b_119_3860" x="-5.47365" y="4.38462" width="108.947" height="108.694" filterUnits="userSpaceOnUse" color-interpolation-filters="sRGB">
<feFlood flood-opacity="0" result="BackgroundImageFix"/>
<feGaussianBlur in="BackgroundImageFix" stdDeviation="3.02632"/>
<feComposite in2="SourceAlpha" operator="in" result="effect1_backgroundBlur_119_3860"/>
<feBlend mode="normal" in="SourceGraphic" in2="effect1_backgroundBlur_119_3860" result="shape"/>
</filter>
<filter id="filter1_f_119_3860" x="2.27907" y="0.9471" width="92.8211" height="70.9898" filterUnits="userSpaceOnUse" color-interpolation-filters="sRGB">
<feFlood flood-opacity="0" result="BackgroundImageFix"/>
<feBlend mode="normal" in="SourceGraphic" in2="BackgroundImageFix" result="shape"/>
<feGaussianBlur stdDeviation="7.8409" result="effect1_foregroundBlur_119_3860"/>
</filter>
<radialGradient id="paint0_radial_119_3860" cx="0" cy="0" r="1" gradientUnits="userSpaceOnUse" gradientTransform="translate(8.67987 10.4373) rotate(47.9449) scale(144.574 105.044)">
<stop stop-color="white" stop-opacity="0.36"/>
<stop offset="1" stop-color="white" stop-opacity="0"/>
</radialGradient>
<radialGradient id="paint1_radial_119_3860" cx="0" cy="0" r="1" gradientUnits="userSpaceOnUse" gradientTransform="translate(-50.9853 20.3185) rotate(35.0407) scale(111.551 65.8383)">
<stop stop-color="white"/>
<stop offset="1" stop-color="white" stop-opacity="0.06"/>
</radialGradient>
<radialGradient id="paint2_radial_119_3860" cx="0" cy="0" r="1" gradientUnits="userSpaceOnUse" gradientTransform="translate(125.773 75.0803) rotate(161.385) scale(80.915 54.6897)">
<stop stop-color="#8470FF"/>
<stop offset="1" stop-color="#865CFF" stop-opacity="0"/>
</radialGradient>
<radialGradient id="paint3_radial_119_3860" cx="0" cy="0" r="1" gradientUnits="userSpaceOnUse" gradientTransform="translate(50.0544 -11.6378) rotate(47.2149) scale(54.0415 38.8432)">
<stop/>
<stop offset="1" stop-color="white" stop-opacity="0"/>
</radialGradient>
<radialGradient id="paint4_radial_119_3860" cx="0" cy="0" r="1" gradientUnits="userSpaceOnUse" gradientTransform="translate(48.6896 16.6289) rotate(90) scale(29.3633 45.546)">
<stop stop-color="white"/>
<stop offset="1" stop-color="white" stop-opacity="0"/>
</radialGradient>
</defs>
</svg>
