<svg width="28" height="28" viewBox="0 0 28 28" fill="none" xmlns="http://www.w3.org/2000/svg">
<path d="M21.7945 14.6048L15.6049 12.3176L13.3249 6.12318C13.1899 5.75637 12.9456 5.43981 12.625 5.2162C12.3044 4.99259 11.9229 4.8727 11.5321 4.8727C11.1412 4.8727 10.7598 4.99259 10.4392 5.2162C10.1186 5.43981 9.8743 5.75637 9.73928 6.12318L7.44488 12.3176L1.25048 14.5976C0.883673 14.7326 0.56711 14.9769 0.343501 15.2975C0.119893 15.618 0 15.9995 0 16.3904C0 16.7812 0.119893 17.1627 0.343501 17.4833C0.56711 17.8039 0.883673 18.0482 1.25048 18.1832L7.44488 20.4776L9.72488 26.672C9.8599 27.0388 10.1042 27.3553 10.4248 27.579C10.7454 27.8026 11.1268 27.9225 11.5177 27.9225C11.9085 27.9225 12.29 27.8026 12.6106 27.579C12.9312 27.3553 13.1755 27.0388 13.3105 26.672L15.6049 20.4776L21.7993 18.1976C22.1661 18.0626 22.4826 17.8183 22.7063 17.4977C22.9299 17.1771 23.0498 16.7956 23.0498 16.4048C23.0498 16.0139 22.9299 15.6324 22.7063 15.3119C22.4826 14.9913 22.1661 14.747 21.7993 14.612L21.7945 14.6048ZM14.5249 18.824C14.3946 18.872 14.2762 18.9477 14.178 19.0459C14.0798 19.1441 14.0041 19.2625 13.9561 19.3928L11.5249 25.9796L9.09848 19.3976C9.05053 19.2659 8.97433 19.1463 8.87524 19.0472C8.77615 18.9481 8.65656 18.8719 8.52488 18.824L1.94288 16.3976L8.52488 13.9712C8.65656 13.9232 8.77615 13.847 8.87524 13.7479C8.97433 13.6488 9.05053 13.5293 9.09848 13.3976L11.5249 6.81558L13.9513 13.3976C13.9993 13.5279 14.075 13.6462 14.1732 13.7444C14.2714 13.8426 14.3898 13.9184 14.5201 13.9664L21.1069 16.3976L14.5249 18.824ZM15.3649 3.91758C15.3649 3.66297 15.466 3.41879 15.6461 3.23875C15.8261 3.05872 16.0703 2.95758 16.3249 2.95758H18.2449V1.03758C18.2449 0.782968 18.346 0.538788 18.5261 0.358753C18.7061 0.178718 18.9503 0.0775757 19.2049 0.0775757C19.4595 0.0775757 19.7037 0.178718 19.8837 0.358753C20.0637 0.538788 20.1649 0.782968 20.1649 1.03758V2.95758H22.0849C22.3395 2.95758 22.5837 3.05872 22.7637 3.23875C22.9437 3.41879 23.0449 3.66297 23.0449 3.91758C23.0449 4.17218 22.9437 4.41636 22.7637 4.5964C22.5837 4.77643 22.3395 4.87758 22.0849 4.87758H20.1649V6.79758C20.1649 7.05218 20.0637 7.29636 19.8837 7.4764C19.7037 7.65643 19.4595 7.75758 19.2049 7.75758C18.9503 7.75758 18.7061 7.65643 18.5261 7.4764C18.346 7.29636 18.2449 7.05218 18.2449 6.79758V4.87758H16.3249C16.0703 4.87758 15.8261 4.77643 15.6461 4.5964C15.466 4.41636 15.3649 4.17218 15.3649 3.91758ZM27.8449 9.67758C27.8449 9.93218 27.7437 10.1764 27.5637 10.3564C27.3837 10.5364 27.1395 10.6376 26.8849 10.6376H25.9249V11.5976C25.9249 11.8522 25.8237 12.0964 25.6437 12.2764C25.4637 12.4564 25.2195 12.5576 24.9649 12.5576C24.7103 12.5576 24.4661 12.4564 24.2861 12.2764C24.106 12.0964 24.0049 11.8522 24.0049 11.5976V10.6376H23.0449C22.7903 10.6376 22.5461 10.5364 22.3661 10.3564C22.186 10.1764 22.0849 9.93218 22.0849 9.67758C22.0849 9.42297 22.186 9.17879 22.3661 8.99875C22.5461 8.81872 22.7903 8.71758 23.0449 8.71758H24.0049V7.75758C24.0049 7.50297 24.106 7.25879 24.2861 7.07875C24.4661 6.89872 24.7103 6.79758 24.9649 6.79758C25.2195 6.79758 25.4637 6.89872 25.6437 7.07875C25.8237 7.25879 25.9249 7.50297 25.9249 7.75758V8.71758H26.8849C27.1395 8.71758 27.3837 8.81872 27.5637 8.99875C27.7437 9.17879 27.8449 9.42297 27.8449 9.67758Z" fill="black"/>
</svg>
