<svg width="166" height="48" viewBox="0 0 166 48" fill="none" xmlns="http://www.w3.org/2000/svg">
<path d="M0.390015 35.8529V13.6045H5.7346V35.8529H0.390015Z" fill="#121212"/>
<path d="M9.16968 35.8529V13.6045H16.1389L22.6377 29.8868H22.6998L29.2252 13.6045H36.1323V35.8529H31.2316V20.2275H31.1695L24.8217 35.8529H20.4803L14.1059 20.263H14.0437V35.8529H9.16968Z" fill="#121212"/>
<path d="M39.571 35.8529V13.6045H55.223V17.8482H44.7203V22.5713H53.9712V26.3534H44.7203V31.5737H55.5338V35.8529H39.571Z" fill="#121212"/>
<path d="M74.5627 36.4122C73.4618 36.4122 72.5407 36.1059 71.8016 35.4978C71.0603 34.883 70.5343 34.0551 70.2213 33.0119L69.2536 29.7625C69.0627 29.0945 68.7498 28.5418 68.3126 28.1023C67.8731 27.6651 67.3315 27.4454 66.6879 27.4454H63.2876V35.8529H57.943V13.6045H69.005C71.6507 13.6045 73.737 14.2215 75.2641 15.4511C76.7955 16.6763 77.5635 18.352 77.5635 20.4761C77.5635 21.9388 77.0974 23.2061 76.1696 24.2759C75.2463 25.3479 73.9501 26.0937 72.281 26.5132V26.5398C72.867 26.7706 73.3242 27.1058 73.6571 27.543C73.9878 27.9825 74.2475 28.5241 74.4384 29.1677L75.1575 31.7867C75.2641 32.1241 75.415 32.4082 75.6103 32.639C75.8101 32.8654 76.0764 32.9764 76.4093 32.9764C76.6979 32.9764 76.9797 32.8943 77.2527 32.7278C77.5235 32.5636 77.7632 32.3438 77.9719 32.0708L79.0994 34.6011C78.5534 35.1471 77.8853 35.5843 77.0929 35.915C76.305 36.2457 75.4616 36.4122 74.5627 36.4122ZM63.2876 23.7876H68.3126C69.5022 23.7876 70.4477 23.508 71.1535 22.9442C71.8638 22.3827 72.2189 21.6214 72.2189 20.6625C72.2189 19.7281 71.8638 18.9735 71.1535 18.3986C70.4477 17.826 69.5022 17.5375 68.3126 17.5375H63.2876V23.7876Z" fill="#121212"/>
<path d="M92.2456 36.6342C89.7886 36.6342 87.6579 36.1503 85.8534 35.187C84.0534 34.2171 82.6595 32.841 81.6718 31.0588C80.6819 29.2787 80.1892 27.168 80.1892 24.7287C80.1892 22.2917 80.6553 20.1809 81.5919 18.3987C82.5264 16.6186 83.8514 15.2447 85.5693 14.2792C87.2916 13.3093 89.3181 12.8232 91.6508 12.8232C93.4841 12.8232 95.1243 13.1584 96.5692 13.8265C98.0185 14.4901 99.2104 15.4378 100.147 16.6674C101.088 17.8926 101.685 19.353 101.94 21.0443L97.0575 22.2606C96.7912 20.758 96.1875 19.5706 95.2464 18.7005C94.3097 17.826 93.1112 17.3866 91.6508 17.3866C89.7797 17.3866 88.2904 18.0502 87.1851 19.3752C86.0842 20.6959 85.5338 22.4803 85.5338 24.7287C85.5516 26.9615 86.1686 28.7394 87.3893 30.0644C88.6078 31.385 90.248 32.0442 92.3077 32.0442C94.0168 32.0442 95.455 31.5249 96.6225 30.4817C97.7877 29.4407 98.5068 28.0447 98.7798 26.2912L103.778 26.9749C103.547 28.9347 102.921 30.6393 101.905 32.0886C100.886 33.5335 99.5522 34.6521 97.9009 35.4445C96.254 36.2369 94.3697 36.6342 92.2456 36.6342Z" fill="#121212"/>
<path d="M106.029 35.8529V13.6045H111.374V22.1984H120.465V13.6045H125.809V35.8529H120.465V26.4777H111.374V35.8529H106.029Z" fill="#121212"/>
<path d="M131.268 36.1989C130.456 36.1989 129.785 35.9436 129.253 35.4353C128.724 34.9204 128.463 34.259 128.463 33.4467C128.463 32.6543 128.724 32.004 129.253 31.4935C129.785 30.9852 130.456 30.73 131.268 30.73C132.103 30.73 132.786 30.9852 133.319 31.4935C133.852 32.004 134.118 32.6543 134.118 33.4467C134.118 34.259 133.852 34.9204 133.319 35.4353C132.786 35.9436 132.103 36.1989 131.268 36.1989Z" fill="#121212"/>
<path d="M135.211 35.8529L143.273 13.6045H149.798L157.833 35.8529H152.239L150.801 31.476H142.243L140.804 35.8529H135.211ZM143.21 27.694H149.833L146.549 17.8216H146.486L143.21 27.694Z" fill="#121212"/>
<path d="M159.708 35.8529V13.6045H165.052V35.8529H159.708Z" fill="#121212"/>
</svg>
