<svg width="803" height="274" viewBox="0 0 803 274" fill="none" xmlns="http://www.w3.org/2000/svg">
<g filter="url(#filter0_b_119_3796)">
<g clip-path="url(#clip0_119_3796)">
<rect width="820" height="274" rx="24" fill="white" fill-opacity="0.4"/>
<rect width="820" height="274" rx="24" fill="url(#paint0_linear_119_3796)"/>
<path d="M38.2816 43.96V48.16H43.9216V50.824H38.2816V55.264H44.6416V58H34.9216V41.224H44.6416V43.96H38.2816ZM53.7911 47.464H51.4631V58H48.0551V47.464H46.5431V44.704H48.0551V44.032C48.0551 42.4 48.5191 41.2 49.4471 40.432C50.3751 39.664 51.7751 39.304 53.6471 39.352V42.184C52.8311 42.168 52.2631 42.304 51.9431 42.592C51.6231 42.88 51.4631 43.4 51.4631 44.152V44.704H53.7911V47.464ZM62.0645 47.464H59.7365V58H56.3285V47.464H54.8165V44.704H56.3285V44.032C56.3285 42.4 56.7925 41.2 57.7205 40.432C58.6485 39.664 60.0485 39.304 61.9205 39.352V42.184C61.1045 42.168 60.5365 42.304 60.2165 42.592C59.8965 42.88 59.7365 43.4 59.7365 44.152V44.704H62.0645V47.464ZM70.1459 58.216C68.8659 58.216 67.7139 57.936 66.6899 57.376C65.6659 56.8 64.8579 55.992 64.2659 54.952C63.6899 53.912 63.4019 52.712 63.4019 51.352C63.4019 49.992 63.6979 48.792 64.2899 47.752C64.8979 46.712 65.7219 45.912 66.7619 45.352C67.8019 44.776 68.9619 44.488 70.2419 44.488C71.5219 44.488 72.6819 44.776 73.7219 45.352C74.7619 45.912 75.5779 46.712 76.1699 47.752C76.7779 48.792 77.0819 49.992 77.0819 51.352C77.0819 52.712 76.7699 53.912 76.1459 54.952C75.5379 55.992 74.7059 56.8 73.6499 57.376C72.6099 57.936 71.4419 58.216 70.1459 58.216ZM70.1459 55.288C70.7539 55.288 71.3219 55.144 71.8499 54.856C72.3939 54.552 72.8259 54.104 73.1459 53.512C73.4659 52.92 73.6259 52.2 73.6259 51.352C73.6259 50.088 73.2899 49.12 72.6179 48.448C71.9619 47.76 71.1539 47.416 70.1939 47.416C69.2339 47.416 68.4259 47.76 67.7699 48.448C67.1299 49.12 66.8099 50.088 66.8099 51.352C66.8099 52.616 67.1219 53.592 67.7459 54.28C68.3859 54.952 69.1859 55.288 70.1459 55.288ZM82.9066 46.768C83.3386 46.064 83.8986 45.512 84.5866 45.112C85.2906 44.712 86.0906 44.512 86.9866 44.512V48.04H86.0986C85.0426 48.04 84.2426 48.288 83.6986 48.784C83.1706 49.28 82.9066 50.144 82.9066 51.376V58H79.5466V44.704H82.9066V46.768ZM93.1618 47.464V53.896C93.1618 54.344 93.2658 54.672 93.4738 54.88C93.6978 55.072 94.0658 55.168 94.5778 55.168H96.1378V58H94.0258C91.1938 58 89.7778 56.624 89.7778 53.872V47.464H88.1938V44.704H89.7778V41.416H93.1618V44.704H96.1378V47.464H93.1618ZM101.914 40.24V58H98.5544V40.24H101.914ZM117.594 51.064C117.594 51.544 117.562 51.976 117.498 52.36H107.778C107.858 53.32 108.194 54.072 108.786 54.616C109.378 55.16 110.106 55.432 110.97 55.432C112.218 55.432 113.106 54.896 113.634 53.824H117.258C116.874 55.104 116.138 56.16 115.05 56.992C113.962 57.808 112.626 58.216 111.042 58.216C109.762 58.216 108.61 57.936 107.586 57.376C106.578 56.8 105.786 55.992 105.21 54.952C104.65 53.912 104.37 52.712 104.37 51.352C104.37 49.976 104.65 48.768 105.21 47.728C105.77 46.688 106.554 45.888 107.562 45.328C108.57 44.768 109.73 44.488 111.042 44.488C112.306 44.488 113.434 44.76 114.426 45.304C115.434 45.848 116.21 46.624 116.754 47.632C117.314 48.624 117.594 49.768 117.594 51.064ZM114.114 50.104C114.098 49.24 113.786 48.552 113.178 48.04C112.57 47.512 111.826 47.248 110.946 47.248C110.114 47.248 109.41 47.504 108.834 48.016C108.274 48.512 107.93 49.208 107.802 50.104H114.114ZM125.135 58.216C124.047 58.216 123.071 58.024 122.207 57.64C121.343 57.24 120.655 56.704 120.143 56.032C119.647 55.36 119.375 54.616 119.327 53.8H122.711C122.775 54.312 123.023 54.736 123.455 55.072C123.903 55.408 124.455 55.576 125.111 55.576C125.751 55.576 126.247 55.448 126.599 55.192C126.967 54.936 127.151 54.608 127.151 54.208C127.151 53.776 126.927 53.456 126.479 53.248C126.047 53.024 125.351 52.784 124.391 52.528C123.399 52.288 122.583 52.04 121.943 51.784C121.319 51.528 120.775 51.136 120.311 50.608C119.863 50.08 119.639 49.368 119.639 48.472C119.639 47.736 119.847 47.064 120.263 46.456C120.695 45.848 121.303 45.368 122.087 45.016C122.887 44.664 123.823 44.488 124.895 44.488C126.479 44.488 127.743 44.888 128.687 45.688C129.631 46.472 130.151 47.536 130.247 48.88H127.031C126.983 48.352 126.759 47.936 126.359 47.632C125.975 47.312 125.455 47.152 124.799 47.152C124.191 47.152 123.719 47.264 123.383 47.488C123.063 47.712 122.903 48.024 122.903 48.424C122.903 48.872 123.127 49.216 123.575 49.456C124.023 49.68 124.719 49.912 125.663 50.152C126.623 50.392 127.415 50.64 128.039 50.896C128.663 51.152 129.199 51.552 129.647 52.096C130.111 52.624 130.351 53.328 130.367 54.208C130.367 54.976 130.151 55.664 129.719 56.272C129.303 56.88 128.695 57.36 127.895 57.712C127.111 58.048 126.191 58.216 125.135 58.216ZM138.213 58.216C137.125 58.216 136.149 58.024 135.285 57.64C134.421 57.24 133.733 56.704 133.221 56.032C132.725 55.36 132.453 54.616 132.405 53.8H135.789C135.853 54.312 136.101 54.736 136.533 55.072C136.981 55.408 137.533 55.576 138.189 55.576C138.829 55.576 139.325 55.448 139.677 55.192C140.045 54.936 140.229 54.608 140.229 54.208C140.229 53.776 140.005 53.456 139.557 53.248C139.125 53.024 138.429 52.784 137.469 52.528C136.477 52.288 135.661 52.04 135.021 51.784C134.397 51.528 133.853 51.136 133.389 50.608C132.941 50.08 132.717 49.368 132.717 48.472C132.717 47.736 132.925 47.064 133.341 46.456C133.773 45.848 134.381 45.368 135.165 45.016C135.965 44.664 136.901 44.488 137.973 44.488C139.557 44.488 140.821 44.888 141.765 45.688C142.709 46.472 143.229 47.536 143.325 48.88H140.109C140.061 48.352 139.837 47.936 139.437 47.632C139.053 47.312 138.533 47.152 137.877 47.152C137.269 47.152 136.797 47.264 136.461 47.488C136.141 47.712 135.981 48.024 135.981 48.424C135.981 48.872 136.205 49.216 136.653 49.456C137.101 49.68 137.797 49.912 138.741 50.152C139.701 50.392 140.493 50.64 141.117 50.896C141.741 51.152 142.277 51.552 142.725 52.096C143.189 52.624 143.429 53.328 143.445 54.208C143.445 54.976 143.229 55.664 142.797 56.272C142.381 56.88 141.773 57.36 140.973 57.712C140.189 58.048 139.269 58.216 138.213 58.216ZM149.563 40.24V58H146.203V40.24H149.563ZM165.603 44.704L157.371 64.288H153.795L156.675 57.664L151.347 44.704H155.115L158.547 53.992L162.027 44.704H165.603ZM177.638 48.016V50.848H167.462V48.016H177.638ZM184.766 41.248V58H181.406V41.248H184.766ZM195.454 44.512C197.038 44.512 198.318 45.016 199.294 46.024C200.27 47.016 200.758 48.408 200.758 50.2V58H197.398V50.656C197.398 49.6 197.134 48.792 196.606 48.232C196.078 47.656 195.358 47.368 194.446 47.368C193.518 47.368 192.782 47.656 192.238 48.232C191.71 48.792 191.446 49.6 191.446 50.656V58H188.086V44.704H191.446V46.36C191.894 45.784 192.462 45.336 193.15 45.016C193.854 44.68 194.622 44.512 195.454 44.512ZM207.865 47.464V53.896C207.865 54.344 207.969 54.672 208.177 54.88C208.401 55.072 208.769 55.168 209.281 55.168H210.841V58H208.729C205.897 58 204.481 56.624 204.481 53.872V47.464H202.897V44.704H204.481V41.416H207.865V44.704H210.841V47.464H207.865ZM225.618 51.064C225.618 51.544 225.586 51.976 225.522 52.36H215.802C215.882 53.32 216.218 54.072 216.81 54.616C217.402 55.16 218.13 55.432 218.994 55.432C220.242 55.432 221.13 54.896 221.658 53.824H225.282C224.898 55.104 224.162 56.16 223.074 56.992C221.986 57.808 220.65 58.216 219.066 58.216C217.786 58.216 216.634 57.936 215.61 57.376C214.602 56.8 213.81 55.992 213.234 54.952C212.674 53.912 212.394 52.712 212.394 51.352C212.394 49.976 212.674 48.768 213.234 47.728C213.794 46.688 214.578 45.888 215.586 45.328C216.594 44.768 217.754 44.488 219.066 44.488C220.33 44.488 221.458 44.76 222.45 45.304C223.458 45.848 224.234 46.624 224.778 47.632C225.338 48.624 225.618 49.768 225.618 51.064ZM222.138 50.104C222.122 49.24 221.81 48.552 221.202 48.04C220.594 47.512 219.85 47.248 218.97 47.248C218.138 47.248 217.434 47.504 216.858 48.016C216.298 48.512 215.954 49.208 215.826 50.104H222.138ZM231.43 46.768C231.862 46.064 232.422 45.512 233.11 45.112C233.814 44.712 234.614 44.512 235.51 44.512V48.04H234.622C233.566 48.04 232.766 48.288 232.222 48.784C231.694 49.28 231.43 50.144 231.43 51.376V58H228.07V44.704H231.43V46.768ZM242.981 44.488C243.973 44.488 244.845 44.688 245.597 45.088C246.349 45.472 246.941 45.976 247.373 46.6V44.704H250.757V58.096C250.757 59.328 250.509 60.424 250.013 61.384C249.517 62.36 248.773 63.128 247.781 63.688C246.789 64.264 245.589 64.552 244.181 64.552C242.293 64.552 240.741 64.112 239.525 63.232C238.325 62.352 237.645 61.152 237.485 59.632H240.821C240.997 60.24 241.373 60.72 241.949 61.072C242.541 61.44 243.253 61.624 244.085 61.624C245.061 61.624 245.853 61.328 246.461 60.736C247.069 60.16 247.373 59.28 247.373 58.096V56.032C246.941 56.656 246.341 57.176 245.573 57.592C244.821 58.008 243.957 58.216 242.981 58.216C241.861 58.216 240.837 57.928 239.909 57.352C238.981 56.776 238.245 55.968 237.701 54.928C237.173 53.872 236.909 52.664 236.909 51.304C236.909 49.96 237.173 48.768 237.701 47.728C238.245 46.688 238.973 45.888 239.885 45.328C240.813 44.768 241.845 44.488 242.981 44.488ZM247.373 51.352C247.373 50.536 247.213 49.84 246.893 49.264C246.573 48.672 246.141 48.224 245.597 47.92C245.053 47.6 244.469 47.44 243.845 47.44C243.221 47.44 242.645 47.592 242.117 47.896C241.589 48.2 241.157 48.648 240.821 49.24C240.501 49.816 240.341 50.504 240.341 51.304C240.341 52.104 240.501 52.808 240.821 53.416C241.157 54.008 241.589 54.464 242.117 54.784C242.661 55.104 243.237 55.264 243.845 55.264C244.469 55.264 245.053 55.112 245.597 54.808C246.141 54.488 246.573 54.04 246.893 53.464C247.213 52.872 247.373 52.168 247.373 51.352ZM257.399 46.768C257.831 46.064 258.391 45.512 259.079 45.112C259.783 44.712 260.583 44.512 261.479 44.512V48.04H260.591C259.535 48.04 258.735 48.288 258.191 48.784C257.663 49.28 257.399 50.144 257.399 51.376V58H254.039V44.704H257.399V46.768ZM262.878 51.304C262.878 49.96 263.142 48.768 263.67 47.728C264.214 46.688 264.942 45.888 265.854 45.328C266.782 44.768 267.814 44.488 268.95 44.488C269.942 44.488 270.806 44.688 271.542 45.088C272.294 45.488 272.894 45.992 273.342 46.6V44.704H276.726V58H273.342V56.056C272.91 56.68 272.31 57.2 271.542 57.616C270.79 58.016 269.918 58.216 268.926 58.216C267.806 58.216 266.782 57.928 265.854 57.352C264.942 56.776 264.214 55.968 263.67 54.928C263.142 53.872 262.878 52.664 262.878 51.304ZM273.342 51.352C273.342 50.536 273.182 49.84 272.862 49.264C272.542 48.672 272.11 48.224 271.566 47.92C271.022 47.6 270.438 47.44 269.814 47.44C269.19 47.44 268.614 47.592 268.086 47.896C267.558 48.2 267.126 48.648 266.79 49.24C266.47 49.816 266.31 50.504 266.31 51.304C266.31 52.104 266.47 52.808 266.79 53.416C267.126 54.008 267.558 54.464 268.086 54.784C268.63 55.104 269.206 55.264 269.814 55.264C270.438 55.264 271.022 55.112 271.566 54.808C272.11 54.488 272.542 54.04 272.862 53.464C273.182 52.872 273.342 52.168 273.342 51.352ZM283.92 47.464V53.896C283.92 54.344 284.024 54.672 284.232 54.88C284.456 55.072 284.824 55.168 285.336 55.168H286.896V58H284.784C281.952 58 280.536 56.624 280.536 53.872V47.464H278.952V44.704H280.536V41.416H283.92V44.704H286.896V47.464H283.92ZM301.672 51.064C301.672 51.544 301.64 51.976 301.576 52.36H291.856C291.936 53.32 292.272 54.072 292.864 54.616C293.456 55.16 294.184 55.432 295.048 55.432C296.296 55.432 297.184 54.896 297.712 53.824H301.336C300.952 55.104 300.216 56.16 299.128 56.992C298.04 57.808 296.704 58.216 295.12 58.216C293.84 58.216 292.688 57.936 291.664 57.376C290.656 56.8 289.864 55.992 289.288 54.952C288.728 53.912 288.448 52.712 288.448 51.352C288.448 49.976 288.728 48.768 289.288 47.728C289.848 46.688 290.632 45.888 291.64 45.328C292.648 44.768 293.808 44.488 295.12 44.488C296.384 44.488 297.512 44.76 298.504 45.304C299.512 45.848 300.288 46.624 300.832 47.632C301.392 48.624 301.672 49.768 301.672 51.064ZM298.192 50.104C298.176 49.24 297.864 48.552 297.256 48.04C296.648 47.512 295.904 47.248 295.024 47.248C294.192 47.248 293.488 47.504 292.912 48.016C292.352 48.512 292.008 49.208 291.88 50.104H298.192ZM303.261 51.304C303.261 49.96 303.525 48.768 304.053 47.728C304.597 46.688 305.333 45.888 306.261 45.328C307.189 44.768 308.221 44.488 309.357 44.488C310.221 44.488 311.045 44.68 311.829 45.064C312.613 45.432 313.237 45.928 313.701 46.552V40.24H317.109V58H313.701V56.032C313.285 56.688 312.701 57.216 311.949 57.616C311.197 58.016 310.325 58.216 309.333 58.216C308.213 58.216 307.189 57.928 306.261 57.352C305.333 56.776 304.597 55.968 304.053 54.928C303.525 53.872 303.261 52.664 303.261 51.304ZM313.725 51.352C313.725 50.536 313.565 49.84 313.245 49.264C312.925 48.672 312.493 48.224 311.949 47.92C311.405 47.6 310.821 47.44 310.197 47.44C309.573 47.44 308.997 47.592 308.469 47.896C307.941 48.2 307.509 48.648 307.173 49.24C306.853 49.816 306.693 50.504 306.693 51.304C306.693 52.104 306.853 52.808 307.173 53.416C307.509 54.008 307.941 54.464 308.469 54.784C309.013 55.104 309.589 55.264 310.197 55.264C310.821 55.264 311.405 55.112 311.949 54.808C312.493 54.488 312.925 54.04 313.245 53.464C313.565 52.872 313.725 52.168 313.725 51.352Z" fill="url(#paint1_linear_119_3796)"/>
<path d="M36.768 94.112C36.032 94.112 35.3707 93.984 34.784 93.728C34.208 93.4613 33.7547 93.0987 33.424 92.64C33.0933 92.1707 32.9227 91.632 32.912 91.024H34.464C34.5173 91.5467 34.7307 91.9893 35.104 92.352C35.488 92.704 36.0427 92.88 36.768 92.88C37.4613 92.88 38.0053 92.7093 38.4 92.368C38.8053 92.016 39.008 91.568 39.008 91.024C39.008 90.5973 38.8907 90.2507 38.656 89.984C38.4213 89.7173 38.128 89.5147 37.776 89.376C37.424 89.2373 36.9493 89.088 36.352 88.928C35.616 88.736 35.024 88.544 34.576 88.352C34.1387 88.16 33.76 87.8613 33.44 87.456C33.1307 87.04 32.976 86.4853 32.976 85.792C32.976 85.184 33.1307 84.6453 33.44 84.176C33.7493 83.7067 34.1813 83.344 34.736 83.088C35.3013 82.832 35.9467 82.704 36.672 82.704C37.7173 82.704 38.5707 82.9653 39.232 83.488C39.904 84.0107 40.2827 84.704 40.368 85.568H38.768C38.7147 85.1413 38.4907 84.768 38.096 84.448C37.7013 84.1173 37.1787 83.952 36.528 83.952C35.92 83.952 35.424 84.112 35.04 84.432C34.656 84.7413 34.464 85.1787 34.464 85.744C34.464 86.1493 34.576 86.48 34.8 86.736C35.0347 86.992 35.3173 87.1893 35.648 87.328C35.9893 87.456 36.464 87.6053 37.072 87.776C37.808 87.9787 38.4 88.1813 38.848 88.384C39.296 88.576 39.68 88.88 40 89.296C40.32 89.7013 40.48 90.256 40.48 90.96C40.48 91.504 40.336 92.016 40.048 92.496C39.76 92.976 39.3333 93.3653 38.768 93.664C38.2027 93.9627 37.536 94.112 36.768 94.112ZM53.1666 85.072C53.8493 85.072 54.4573 85.216 54.9906 85.504C55.524 85.7813 55.9453 86.2027 56.2546 86.768C56.564 87.3333 56.7186 88.0213 56.7186 88.832V94H55.2786V89.04C55.2786 88.1653 55.06 87.4987 54.6226 87.04C54.196 86.5707 53.6146 86.336 52.8786 86.336C52.1213 86.336 51.5186 86.5813 51.0706 87.072C50.6226 87.552 50.3986 88.2507 50.3986 89.168V94H48.9586V89.04C48.9586 88.1653 48.74 87.4987 48.3026 87.04C47.876 86.5707 47.2946 86.336 46.5586 86.336C45.8013 86.336 45.1986 86.5813 44.7506 87.072C44.3026 87.552 44.0786 88.2507 44.0786 89.168V94H42.6226V85.232H44.0786V86.496C44.3666 86.0373 44.7506 85.6853 45.2306 85.44C45.7213 85.1947 46.26 85.072 46.8466 85.072C47.5826 85.072 48.2333 85.2373 48.7986 85.568C49.364 85.8987 49.7853 86.384 50.0626 87.024C50.308 86.4053 50.7133 85.9253 51.2786 85.584C51.844 85.2427 52.4733 85.072 53.1666 85.072ZM58.563 89.584C58.563 88.688 58.7443 87.904 59.107 87.232C59.4697 86.5493 59.9657 86.0213 60.595 85.648C61.235 85.2747 61.9443 85.088 62.723 85.088C63.491 85.088 64.1577 85.2533 64.723 85.584C65.2883 85.9147 65.7097 86.3307 65.987 86.832V85.232H67.459V94H65.987V92.368C65.699 92.88 65.267 93.3067 64.691 93.648C64.1257 93.9787 63.4643 94.144 62.707 94.144C61.9283 94.144 61.2243 93.952 60.595 93.568C59.9657 93.184 59.4697 92.6453 59.107 91.952C58.7443 91.2587 58.563 90.4693 58.563 89.584ZM65.987 89.6C65.987 88.9387 65.8537 88.3627 65.587 87.872C65.3203 87.3813 64.9577 87.008 64.499 86.752C64.051 86.4853 63.555 86.352 63.011 86.352C62.467 86.352 61.971 86.48 61.523 86.736C61.075 86.992 60.7177 87.3653 60.451 87.856C60.1843 88.3467 60.051 88.9227 60.051 89.584C60.051 90.256 60.1843 90.8427 60.451 91.344C60.7177 91.8347 61.075 92.2133 61.523 92.48C61.971 92.736 62.467 92.864 63.011 92.864C63.555 92.864 64.051 92.736 64.499 92.48C64.9577 92.2133 65.3203 91.8347 65.587 91.344C65.8537 90.8427 65.987 90.2613 65.987 89.6ZM71.3755 86.656C71.6315 86.1547 71.9942 85.7653 72.4635 85.488C72.9435 85.2107 73.5248 85.072 74.2075 85.072V86.576H73.8235C72.1915 86.576 71.3755 87.4613 71.3755 89.232V94H69.9195V85.232H71.3755V86.656ZM77.6643 86.432V91.6C77.6643 92.0267 77.7549 92.3307 77.9363 92.512C78.1176 92.6827 78.4323 92.768 78.8802 92.768H79.9523V94H78.6403C77.8296 94 77.2216 93.8133 76.8163 93.44C76.4109 93.0667 76.2083 92.4533 76.2083 91.6V86.432H75.0723V85.232H76.2083V83.024H77.6643V85.232H79.9523V86.432H77.6643ZM96.526 85.072C97.2087 85.072 97.8167 85.216 98.35 85.504C98.8833 85.7813 99.3047 86.2027 99.614 86.768C99.9233 87.3333 100.078 88.0213 100.078 88.832V94H98.638V89.04C98.638 88.1653 98.4193 87.4987 97.982 87.04C97.5553 86.5707 96.974 86.336 96.238 86.336C95.4807 86.336 94.878 86.5813 94.43 87.072C93.982 87.552 93.758 88.2507 93.758 89.168V94H92.318V89.04C92.318 88.1653 92.0993 87.4987 91.662 87.04C91.2353 86.5707 90.654 86.336 89.918 86.336C89.1607 86.336 88.558 86.5813 88.11 87.072C87.662 87.552 87.438 88.2507 87.438 89.168V94H85.982V85.232H87.438V86.496C87.726 86.0373 88.11 85.6853 88.59 85.44C89.0807 85.1947 89.6193 85.072 90.206 85.072C90.942 85.072 91.5927 85.2373 92.158 85.568C92.7233 85.8987 93.1447 86.384 93.422 87.024C93.6673 86.4053 94.0727 85.9253 94.638 85.584C95.2033 85.2427 95.8327 85.072 96.526 85.072ZM101.922 89.584C101.922 88.688 102.104 87.904 102.466 87.232C102.829 86.5493 103.325 86.0213 103.954 85.648C104.594 85.2747 105.304 85.088 106.082 85.088C106.85 85.088 107.517 85.2533 108.082 85.584C108.648 85.9147 109.069 86.3307 109.346 86.832V85.232H110.818V94H109.346V92.368C109.058 92.88 108.626 93.3067 108.05 93.648C107.485 93.9787 106.824 94.144 106.066 94.144C105.288 94.144 104.584 93.952 103.954 93.568C103.325 93.184 102.829 92.6453 102.466 91.952C102.104 91.2587 101.922 90.4693 101.922 89.584ZM109.346 89.6C109.346 88.9387 109.213 88.3627 108.946 87.872C108.68 87.3813 108.317 87.008 107.858 86.752C107.41 86.4853 106.914 86.352 106.37 86.352C105.826 86.352 105.33 86.48 104.882 86.736C104.434 86.992 104.077 87.3653 103.81 87.856C103.544 88.3467 103.41 88.9227 103.41 89.584C103.41 90.256 103.544 90.8427 103.81 91.344C104.077 91.8347 104.434 92.2133 104.882 92.48C105.33 92.736 105.826 92.864 106.37 92.864C106.914 92.864 107.41 92.736 107.858 92.48C108.317 92.2133 108.68 91.8347 108.946 91.344C109.213 90.8427 109.346 90.2613 109.346 89.6ZM117.551 85.072C118.618 85.072 119.482 85.3973 120.143 86.048C120.804 86.688 121.135 87.616 121.135 88.832V94H119.695V89.04C119.695 88.1653 119.476 87.4987 119.039 87.04C118.602 86.5707 118.004 86.336 117.247 86.336C116.479 86.336 115.866 86.576 115.407 87.056C114.959 87.536 114.735 88.2347 114.735 89.152V94H113.279V85.232H114.735V86.48C115.023 86.032 115.412 85.6853 115.903 85.44C116.404 85.1947 116.954 85.072 117.551 85.072ZM122.969 89.584C122.969 88.688 123.151 87.904 123.513 87.232C123.876 86.5493 124.372 86.0213 125.001 85.648C125.641 85.2747 126.351 85.088 127.129 85.088C127.897 85.088 128.564 85.2533 129.129 85.584C129.695 85.9147 130.116 86.3307 130.393 86.832V85.232H131.865V94H130.393V92.368C130.105 92.88 129.673 93.3067 129.097 93.648C128.532 93.9787 127.871 94.144 127.113 94.144C126.335 94.144 125.631 93.952 125.001 93.568C124.372 93.184 123.876 92.6453 123.513 91.952C123.151 91.2587 122.969 90.4693 122.969 89.584ZM130.393 89.6C130.393 88.9387 130.26 88.3627 129.993 87.872C129.727 87.3813 129.364 87.008 128.905 86.752C128.457 86.4853 127.961 86.352 127.417 86.352C126.873 86.352 126.377 86.48 125.929 86.736C125.481 86.992 125.124 87.3653 124.857 87.856C124.591 88.3467 124.457 88.9227 124.457 89.584C124.457 90.256 124.591 90.8427 124.857 91.344C125.124 91.8347 125.481 92.2133 125.929 92.48C126.377 92.736 126.873 92.864 127.417 92.864C127.961 92.864 128.457 92.736 128.905 92.48C129.364 92.2133 129.727 91.8347 129.993 91.344C130.26 90.8427 130.393 90.2613 130.393 89.6ZM137.942 85.088C138.699 85.088 139.36 85.2533 139.926 85.584C140.502 85.9147 140.928 86.3307 141.206 86.832V85.232H142.678V94.192C142.678 94.992 142.507 95.7013 142.166 96.32C141.824 96.9493 141.334 97.44 140.694 97.792C140.064 98.144 139.328 98.32 138.486 98.32C137.334 98.32 136.374 98.048 135.606 97.504C134.838 96.96 134.384 96.2187 134.246 95.28H135.686C135.846 95.8133 136.176 96.24 136.678 96.56C137.179 96.8907 137.782 97.056 138.486 97.056C139.286 97.056 139.936 96.8053 140.438 96.304C140.95 95.8027 141.206 95.0987 141.206 94.192V92.352C140.918 92.864 140.491 93.2907 139.926 93.632C139.36 93.9733 138.699 94.144 137.942 94.144C137.163 94.144 136.454 93.952 135.814 93.568C135.184 93.184 134.688 92.6453 134.326 91.952C133.963 91.2587 133.782 90.4693 133.782 89.584C133.782 88.688 133.963 87.904 134.326 87.232C134.688 86.5493 135.184 86.0213 135.814 85.648C136.454 85.2747 137.163 85.088 137.942 85.088ZM141.206 89.6C141.206 88.9387 141.072 88.3627 140.806 87.872C140.539 87.3813 140.176 87.008 139.718 86.752C139.27 86.4853 138.774 86.352 138.23 86.352C137.686 86.352 137.19 86.48 136.742 86.736C136.294 86.992 135.936 87.3653 135.67 87.856C135.403 88.3467 135.27 88.9227 135.27 89.584C135.27 90.256 135.403 90.8427 135.67 91.344C135.936 91.8347 136.294 92.2133 136.742 92.48C137.19 92.736 137.686 92.864 138.23 92.864C138.774 92.864 139.27 92.736 139.718 92.48C140.176 92.2133 140.539 91.8347 140.806 91.344C141.072 90.8427 141.206 90.2613 141.206 89.6ZM153.138 89.28C153.138 89.5573 153.122 89.8507 153.09 90.16H146.082C146.136 91.024 146.429 91.7013 146.962 92.192C147.506 92.672 148.162 92.912 148.93 92.912C149.56 92.912 150.082 92.768 150.498 92.48C150.925 92.1813 151.224 91.7867 151.394 91.296H152.962C152.728 92.1387 152.258 92.8267 151.554 93.36C150.85 93.8827 149.976 94.144 148.93 94.144C148.098 94.144 147.352 93.9573 146.69 93.584C146.04 93.2107 145.528 92.6827 145.154 92C144.781 91.3067 144.594 90.5067 144.594 89.6C144.594 88.6933 144.776 87.8987 145.138 87.216C145.501 86.5333 146.008 86.0107 146.658 85.648C147.32 85.2747 148.077 85.088 148.93 85.088C149.762 85.088 150.498 85.2693 151.138 85.632C151.778 85.9947 152.269 86.496 152.61 87.136C152.962 87.7653 153.138 88.48 153.138 89.28ZM151.634 88.976C151.634 88.4213 151.512 87.9467 151.266 87.552C151.021 87.1467 150.685 86.8427 150.258 86.64C149.842 86.4267 149.378 86.32 148.866 86.32C148.13 86.32 147.501 86.5547 146.978 87.024C146.466 87.4933 146.173 88.144 146.098 88.976H151.634ZM165.604 85.072C166.287 85.072 166.895 85.216 167.428 85.504C167.961 85.7813 168.383 86.2027 168.692 86.768C169.001 87.3333 169.156 88.0213 169.156 88.832V94H167.716V89.04C167.716 88.1653 167.497 87.4987 167.06 87.04C166.633 86.5707 166.052 86.336 165.316 86.336C164.559 86.336 163.956 86.5813 163.508 87.072C163.06 87.552 162.836 88.2507 162.836 89.168V94H161.396V89.04C161.396 88.1653 161.177 87.4987 160.74 87.04C160.313 86.5707 159.732 86.336 158.996 86.336C158.239 86.336 157.636 86.5813 157.188 87.072C156.74 87.552 156.516 88.2507 156.516 89.168V94H155.06V85.232H156.516V86.496C156.804 86.0373 157.188 85.6853 157.668 85.44C158.159 85.1947 158.697 85.072 159.284 85.072C160.02 85.072 160.671 85.2373 161.236 85.568C161.801 85.8987 162.223 86.384 162.5 87.024C162.745 86.4053 163.151 85.9253 163.716 85.584C164.281 85.2427 164.911 85.072 165.604 85.072ZM179.545 89.28C179.545 89.5573 179.529 89.8507 179.497 90.16H172.489C172.542 91.024 172.835 91.7013 173.369 92.192C173.913 92.672 174.569 92.912 175.337 92.912C175.966 92.912 176.489 92.768 176.905 92.48C177.331 92.1813 177.63 91.7867 177.801 91.296H179.369C179.134 92.1387 178.665 92.8267 177.961 93.36C177.257 93.8827 176.382 94.144 175.337 94.144C174.505 94.144 173.758 93.9573 173.097 93.584C172.446 93.2107 171.934 92.6827 171.561 92C171.187 91.3067 171.001 90.5067 171.001 89.6C171.001 88.6933 171.182 87.8987 171.545 87.216C171.907 86.5333 172.414 86.0107 173.065 85.648C173.726 85.2747 174.483 85.088 175.337 85.088C176.169 85.088 176.905 85.2693 177.545 85.632C178.185 85.9947 178.675 86.496 179.017 87.136C179.369 87.7653 179.545 88.48 179.545 89.28ZM178.041 88.976C178.041 88.4213 177.918 87.9467 177.673 87.552C177.427 87.1467 177.091 86.8427 176.665 86.64C176.249 86.4267 175.785 86.32 175.273 86.32C174.537 86.32 173.907 86.5547 173.385 87.024C172.873 87.4933 172.579 88.144 172.505 88.976H178.041ZM185.738 85.072C186.805 85.072 187.669 85.3973 188.33 86.048C188.992 86.688 189.322 87.616 189.322 88.832V94H187.882V89.04C187.882 88.1653 187.664 87.4987 187.226 87.04C186.789 86.5707 186.192 86.336 185.434 86.336C184.666 86.336 184.053 86.576 183.594 87.056C183.146 87.536 182.922 88.2347 182.922 89.152V94H181.466V85.232H182.922V86.48C183.21 86.032 183.6 85.6853 184.09 85.44C184.592 85.1947 185.141 85.072 185.738 85.072ZM193.477 86.432V91.6C193.477 92.0267 193.567 92.3307 193.749 92.512C193.93 92.6827 194.245 92.768 194.693 92.768H195.765V94H194.453C193.642 94 193.034 93.8133 192.629 93.44C192.223 93.0667 192.021 92.4533 192.021 91.6V86.432H190.885V85.232H192.021V83.024H193.477V85.232H195.765V86.432H193.477ZM204.899 94.144C204.227 94.144 203.624 94.032 203.091 93.808C202.557 93.5733 202.136 93.2533 201.827 92.848C201.517 92.432 201.347 91.9573 201.315 91.424H202.819C202.861 91.8613 203.064 92.2187 203.427 92.496C203.8 92.7733 204.285 92.912 204.883 92.912C205.437 92.912 205.875 92.7893 206.195 92.544C206.515 92.2987 206.675 91.9893 206.675 91.616C206.675 91.232 206.504 90.9493 206.163 90.768C205.821 90.576 205.293 90.3893 204.579 90.208C203.928 90.0373 203.395 89.8667 202.979 89.696C202.573 89.5147 202.221 89.2533 201.923 88.912C201.635 88.56 201.491 88.1013 201.491 87.536C201.491 87.088 201.624 86.6773 201.891 86.304C202.157 85.9307 202.536 85.6373 203.027 85.424C203.517 85.2 204.077 85.088 204.707 85.088C205.677 85.088 206.461 85.3333 207.059 85.824C207.656 86.3147 207.976 86.9867 208.019 87.84H206.563C206.531 87.3813 206.344 87.0133 206.003 86.736C205.672 86.4587 205.224 86.32 204.659 86.32C204.136 86.32 203.72 86.432 203.411 86.656C203.101 86.88 202.947 87.1733 202.947 87.536C202.947 87.824 203.037 88.064 203.219 88.256C203.411 88.4373 203.645 88.5867 203.923 88.704C204.211 88.8107 204.605 88.9333 205.107 89.072C205.736 89.2427 206.248 89.4133 206.643 89.584C207.037 89.744 207.373 89.9893 207.651 90.32C207.939 90.6507 208.088 91.0827 208.099 91.616C208.099 92.096 207.965 92.528 207.699 92.912C207.432 93.296 207.053 93.6 206.563 93.824C206.083 94.0373 205.528 94.144 204.899 94.144ZM217.706 85.232L212.426 98.128H210.922L212.65 93.904L209.114 85.232H210.73L213.482 92.336L216.202 85.232H217.706ZM222.274 94.144C221.602 94.144 220.999 94.032 220.466 93.808C219.932 93.5733 219.511 93.2533 219.202 92.848C218.892 92.432 218.722 91.9573 218.69 91.424H220.194C220.236 91.8613 220.439 92.2187 220.802 92.496C221.175 92.7733 221.66 92.912 222.258 92.912C222.812 92.912 223.25 92.7893 223.57 92.544C223.89 92.2987 224.05 91.9893 224.05 91.616C224.05 91.232 223.879 90.9493 223.538 90.768C223.196 90.576 222.668 90.3893 221.954 90.208C221.303 90.0373 220.77 89.8667 220.354 89.696C219.948 89.5147 219.596 89.2533 219.298 88.912C219.01 88.56 218.866 88.1013 218.866 87.536C218.866 87.088 218.999 86.6773 219.266 86.304C219.532 85.9307 219.911 85.6373 220.402 85.424C220.892 85.2 221.452 85.088 222.082 85.088C223.052 85.088 223.836 85.3333 224.434 85.824C225.031 86.3147 225.351 86.9867 225.394 87.84H223.938C223.906 87.3813 223.719 87.0133 223.378 86.736C223.047 86.4587 222.599 86.32 222.034 86.32C221.511 86.32 221.095 86.432 220.786 86.656C220.476 86.88 220.322 87.1733 220.322 87.536C220.322 87.824 220.412 88.064 220.594 88.256C220.786 88.4373 221.02 88.5867 221.298 88.704C221.586 88.8107 221.98 88.9333 222.482 89.072C223.111 89.2427 223.623 89.4133 224.018 89.584C224.412 89.744 224.748 89.9893 225.026 90.32C225.314 90.6507 225.463 91.0827 225.474 91.616C225.474 92.096 225.34 92.528 225.074 92.912C224.807 93.296 224.428 93.6 223.938 93.824C223.458 94.0373 222.903 94.144 222.274 94.144ZM229.305 86.432V91.6C229.305 92.0267 229.396 92.3307 229.577 92.512C229.758 92.6827 230.073 92.768 230.521 92.768H231.593V94H230.281C229.47 94 228.862 93.8133 228.457 93.44C228.052 93.0667 227.849 92.4533 227.849 91.6V86.432H226.713V85.232H227.849V83.024H229.305V85.232H231.593V86.432H229.305ZM241.357 89.28C241.357 89.5573 241.341 89.8507 241.309 90.16H234.301C234.354 91.024 234.648 91.7013 235.181 92.192C235.725 92.672 236.381 92.912 237.149 92.912C237.778 92.912 238.301 92.768 238.717 92.48C239.144 92.1813 239.442 91.7867 239.613 91.296H241.181C240.946 92.1387 240.477 92.8267 239.773 93.36C239.069 93.8827 238.194 94.144 237.149 94.144C236.317 94.144 235.57 93.9573 234.909 93.584C234.258 93.2107 233.746 92.6827 233.373 92C233 91.3067 232.813 90.5067 232.813 89.6C232.813 88.6933 232.994 87.8987 233.357 87.216C233.72 86.5333 234.226 86.0107 234.877 85.648C235.538 85.2747 236.296 85.088 237.149 85.088C237.981 85.088 238.717 85.2693 239.357 85.632C239.997 85.9947 240.488 86.496 240.829 87.136C241.181 87.7653 241.357 88.48 241.357 89.28ZM239.853 88.976C239.853 88.4213 239.73 87.9467 239.485 87.552C239.24 87.1467 238.904 86.8427 238.477 86.64C238.061 86.4267 237.597 86.32 237.085 86.32C236.349 86.32 235.72 86.5547 235.197 87.024C234.685 87.4933 234.392 88.144 234.317 88.976H239.853ZM253.823 85.072C254.506 85.072 255.114 85.216 255.647 85.504C256.18 85.7813 256.602 86.2027 256.911 86.768C257.22 87.3333 257.375 88.0213 257.375 88.832V94H255.935V89.04C255.935 88.1653 255.716 87.4987 255.279 87.04C254.852 86.5707 254.271 86.336 253.535 86.336C252.778 86.336 252.175 86.5813 251.727 87.072C251.279 87.552 251.055 88.2507 251.055 89.168V94H249.615V89.04C249.615 88.1653 249.396 87.4987 248.959 87.04C248.532 86.5707 247.951 86.336 247.215 86.336C246.458 86.336 245.855 86.5813 245.407 87.072C244.959 87.552 244.735 88.2507 244.735 89.168V94H243.279V85.232H244.735V86.496C245.023 86.0373 245.407 85.6853 245.887 85.44C246.378 85.1947 246.916 85.072 247.503 85.072C248.239 85.072 248.89 85.2373 249.455 85.568C250.02 85.8987 250.442 86.384 250.719 87.024C250.964 86.4053 251.37 85.9253 251.935 85.584C252.5 85.2427 253.13 85.072 253.823 85.072Z" fill="#898CA9"/>
<path d="M458.319 164.155C401.949 160.249 343.828 201.751 321.813 222.99L306 233.687L321.813 352.984H809V3H772.258C746.445 14.3948 691.517 48.4863 678.308 93.6935C661.798 150.202 599.475 127.878 561.802 131.366C524.129 134.854 528.78 169.039 458.319 164.155Z" fill="url(#paint2_linear_119_3796)"/>
<path d="M322.278 223.222C344.293 201.983 402.414 160.481 458.784 164.388C529.246 169.271 524.595 135.087 562.267 131.599C599.94 128.11 662.263 150.435 678.773 93.926C691.982 48.7188 746.91 14.6274 772.723 3.23254" stroke="#686EFF" stroke-width="1.86038"/>
<path d="M623 132V343" stroke="url(#paint3_linear_119_3796)" stroke-width="2" stroke-dasharray="9 9"/>
<circle cx="623" cy="133" r="4" fill="#686EFF" stroke="#F9FBFD" stroke-width="2"/>
<rect opacity="0.9" x="595" y="83" width="56" height="39" rx="7.55056" fill="#E8EFF7"/>
<path opacity="0.9" d="M622.73 121.87L625.068 121.883L622.735 128.079L620.392 121.857L622.73 121.87Z" fill="#E8EFF7"/>
<path d="M607.555 93.416C608.233 92.872 608.763 92.4267 609.147 92.08C609.531 91.728 609.854 91.3627 610.115 90.984C610.382 90.6 610.515 90.224 610.515 89.856C610.515 89.5093 610.43 89.2373 610.259 89.04C610.094 88.8373 609.825 88.736 609.451 88.736C609.089 88.736 608.806 88.8507 608.603 89.08C608.406 89.304 608.299 89.6053 608.283 89.984H607.579C607.601 89.3867 607.782 88.9253 608.123 88.6C608.465 88.2747 608.905 88.112 609.443 88.112C609.993 88.112 610.427 88.264 610.747 88.568C611.073 88.872 611.235 89.2907 611.235 89.824C611.235 90.2667 611.102 90.6987 610.835 91.12C610.574 91.536 610.275 91.904 609.939 92.224C609.603 92.5387 609.174 92.9067 608.651 93.328H611.403V93.936H607.555V93.416ZM612.319 92.712V92.16L615.127 88.272H615.999V92.08H616.799V92.712H615.999V94H615.279V92.712H612.319ZM615.311 89.032L613.159 92.08H615.311V89.032ZM618.128 94.048C617.99 94.048 617.872 94 617.776 93.904C617.68 93.808 617.632 93.6907 617.632 93.552C617.632 93.4133 617.68 93.296 617.776 93.2C617.872 93.104 617.99 93.056 618.128 93.056C618.262 93.056 618.374 93.104 618.464 93.2C618.56 93.296 618.608 93.4133 618.608 93.552C618.608 93.6907 618.56 93.808 618.464 93.904C618.374 94 618.262 94.048 618.128 94.048ZM627.865 88.464V94H627.137V89.872L625.297 94H624.785L622.937 89.864V94H622.209V88.464H622.993L625.041 93.04L627.089 88.464H627.865ZM629.077 91.792C629.077 91.344 629.168 90.952 629.349 90.616C629.531 90.2747 629.779 90.0107 630.093 89.824C630.413 89.6373 630.768 89.544 631.157 89.544C631.541 89.544 631.875 89.6267 632.157 89.792C632.44 89.9573 632.651 90.1653 632.789 90.416V89.616H633.525V94H632.789V93.184C632.645 93.44 632.429 93.6533 632.141 93.824C631.859 93.9893 631.528 94.072 631.149 94.072C630.76 94.072 630.408 93.976 630.093 93.784C629.779 93.592 629.531 93.3227 629.349 92.976C629.168 92.6293 629.077 92.2347 629.077 91.792ZM632.789 91.8C632.789 91.4693 632.723 91.1813 632.589 90.936C632.456 90.6907 632.275 90.504 632.045 90.376C631.821 90.2427 631.573 90.176 631.301 90.176C631.029 90.176 630.781 90.24 630.557 90.368C630.333 90.496 630.155 90.6827 630.021 90.928C629.888 91.1733 629.821 91.4613 629.821 91.792C629.821 92.128 629.888 92.4213 630.021 92.672C630.155 92.9173 630.333 93.1067 630.557 93.24C630.781 93.368 631.029 93.432 631.301 93.432C631.573 93.432 631.821 93.368 632.045 93.24C632.275 93.1067 632.456 92.9173 632.589 92.672C632.723 92.4213 632.789 92.1307 632.789 91.8ZM638.782 89.616L636.142 96.064H635.39L636.254 93.952L634.486 89.616H635.294L636.67 93.168L638.03 89.616H638.782Z" fill="#082567" fill-opacity="0.5"/>
<path d="M603.728 104.912C603.78 103.864 604.147 103.056 604.829 102.49C605.521 101.913 606.428 101.625 607.55 101.625C608.316 101.625 608.971 101.761 609.516 102.034C610.062 102.296 610.471 102.658 610.743 103.119C611.027 103.57 611.168 104.084 611.168 104.661C611.168 105.321 610.995 105.882 610.649 106.344C610.313 106.795 609.91 107.099 609.438 107.256V107.319C610.046 107.508 610.518 107.843 610.854 108.326C611.2 108.808 611.373 109.427 611.373 110.182C611.373 110.811 611.226 111.372 610.932 111.865C610.649 112.358 610.224 112.746 609.658 113.029C609.102 113.302 608.431 113.438 607.645 113.438C606.46 113.438 605.495 113.139 604.75 112.542C604.006 111.944 603.612 111.063 603.57 109.899H605.71C605.731 110.413 605.904 110.827 606.229 111.142C606.564 111.446 607.021 111.598 607.597 111.598C608.132 111.598 608.541 111.451 608.824 111.157C609.118 110.853 609.265 110.465 609.265 109.993C609.265 109.364 609.066 108.913 608.667 108.64C608.269 108.368 607.65 108.231 606.811 108.231H606.355V106.422H606.811C608.3 106.422 609.045 105.924 609.045 104.928C609.045 104.477 608.908 104.126 608.636 103.874C608.373 103.622 607.991 103.497 607.487 103.497C606.994 103.497 606.612 103.633 606.339 103.906C606.077 104.168 605.925 104.503 605.883 104.912H603.728ZM613.363 107.476C613.363 105.662 613.688 104.241 614.338 103.213C614.999 102.186 616.09 101.672 617.61 101.672C619.131 101.672 620.216 102.186 620.866 103.213C621.527 104.241 621.857 105.662 621.857 107.476C621.857 109.301 621.527 110.733 620.866 111.771C620.216 112.809 619.131 113.328 617.61 113.328C616.09 113.328 614.999 112.809 614.338 111.771C613.688 110.733 613.363 109.301 613.363 107.476ZM619.687 107.476C619.687 106.7 619.634 106.05 619.529 105.526C619.435 104.991 619.236 104.556 618.931 104.22C618.638 103.885 618.197 103.717 617.61 103.717C617.023 103.717 616.577 103.885 616.273 104.22C615.979 104.556 615.78 104.991 615.675 105.526C615.581 106.05 615.534 106.7 615.534 107.476C615.534 108.273 615.581 108.945 615.675 109.49C615.77 110.025 615.969 110.46 616.273 110.796C616.577 111.121 617.023 111.283 617.61 111.283C618.197 111.283 618.643 111.121 618.947 110.796C619.251 110.46 619.451 110.025 619.545 109.49C619.639 108.945 619.687 108.273 619.687 107.476ZM631.49 103.796H626.394V106.485C626.614 106.213 626.928 105.993 627.337 105.825C627.746 105.646 628.182 105.557 628.643 105.557C629.482 105.557 630.169 105.741 630.704 106.108C631.239 106.475 631.627 106.947 631.868 107.524C632.109 108.09 632.23 108.698 632.23 109.348C632.23 110.554 631.883 111.524 631.191 112.258C630.51 112.993 629.534 113.36 628.265 113.36C627.07 113.36 626.116 113.061 625.403 112.463C624.689 111.865 624.286 111.084 624.191 110.119H626.331C626.425 110.539 626.635 110.874 626.96 111.126C627.295 111.378 627.72 111.503 628.234 111.503C628.853 111.503 629.319 111.309 629.634 110.921C629.949 110.533 630.106 110.019 630.106 109.38C630.106 108.73 629.943 108.237 629.618 107.901C629.304 107.555 628.837 107.382 628.218 107.382C627.778 107.382 627.411 107.492 627.117 107.712C626.824 107.933 626.614 108.226 626.488 108.593H624.38V101.861H631.49V103.796ZM639.567 113.36L636.61 109.647V113.36H634.407V101.719H636.61V108.342L639.535 104.645H642.398L638.56 109.018L642.43 113.36H639.567Z" fill="#082567"/>
<path d="M43.319 210V160.72L48.709 166.11H32.539V156.1H55.793V210H43.319ZM89.5892 210.924C84.6612 210.924 80.3749 209.897 76.7302 207.844C73.1369 205.791 70.3649 202.788 68.4142 198.835C66.4635 194.882 65.4882 190.006 65.4882 184.205C65.4882 177.994 66.6432 172.732 68.9532 168.42C71.3146 164.108 74.5486 160.823 78.6552 158.564C82.8132 156.305 87.5872 155.176 92.9772 155.176C95.8519 155.176 98.5982 155.484 101.216 156.1C103.834 156.716 106.093 157.64 107.992 158.872L103.372 168.035C101.884 167.008 100.292 166.315 98.5982 165.956C96.9042 165.545 95.1332 165.34 93.2852 165.34C88.6139 165.34 84.9179 166.752 82.1972 169.575C79.4766 172.398 78.1162 176.582 78.1162 182.126C78.1162 183.05 78.1162 184.077 78.1162 185.206C78.1676 186.335 78.3216 187.465 78.5782 188.594L75.1132 185.36C76.0886 183.358 77.3462 181.69 78.8862 180.355C80.4262 178.969 82.2486 177.942 84.3532 177.275C86.5092 176.556 88.8706 176.197 91.4372 176.197C94.9279 176.197 98.0592 176.89 100.831 178.276C103.603 179.662 105.811 181.613 107.453 184.128C109.147 186.643 109.994 189.595 109.994 192.983C109.994 196.628 109.07 199.81 107.222 202.531C105.426 205.2 102.987 207.279 99.9072 208.768C96.8786 210.205 93.4392 210.924 89.5892 210.924ZM88.8962 201.607C90.6416 201.607 92.1816 201.299 93.5162 200.683C94.9022 200.016 95.9802 199.066 96.7502 197.834C97.5202 196.602 97.9052 195.19 97.9052 193.599C97.9052 191.135 97.0582 189.184 95.3642 187.747C93.7216 186.258 91.5142 185.514 88.7422 185.514C86.8942 185.514 85.2772 185.873 83.8912 186.592C82.5052 187.259 81.4016 188.209 80.5802 189.441C79.8102 190.622 79.4252 192.008 79.4252 193.599C79.4252 195.139 79.8102 196.525 80.5802 197.757C81.3502 198.938 82.4282 199.887 83.8142 200.606C85.2002 201.273 86.8942 201.607 88.8962 201.607ZM122.683 210.616C120.63 210.616 118.859 209.923 117.37 208.537C115.933 207.1 115.214 205.277 115.214 203.07C115.214 200.863 115.933 199.092 117.37 197.757C118.859 196.371 120.63 195.678 122.683 195.678C124.788 195.678 126.559 196.371 127.996 197.757C129.434 199.092 130.152 200.863 130.152 203.07C130.152 205.277 129.434 207.1 127.996 208.537C126.559 209.923 124.788 210.616 122.683 210.616ZM136.374 210V201.915L157.164 182.28C158.806 180.791 160.013 179.457 160.783 178.276C161.553 177.095 162.066 176.017 162.323 175.042C162.631 174.067 162.785 173.168 162.785 172.347C162.785 170.191 162.04 168.548 160.552 167.419C159.114 166.238 156.984 165.648 154.161 165.648C151.902 165.648 149.797 166.084 147.847 166.957C145.947 167.83 144.33 169.19 142.996 171.038L133.91 165.186C135.963 162.106 138.838 159.668 142.534 157.871C146.23 156.074 150.49 155.176 155.316 155.176C159.32 155.176 162.81 155.843 165.788 157.178C168.816 158.461 171.152 160.284 172.795 162.645C174.489 165.006 175.336 167.83 175.336 171.115C175.336 172.86 175.105 174.606 174.643 176.351C174.232 178.045 173.359 179.842 172.025 181.741C170.741 183.64 168.842 185.771 166.327 188.132L149.079 204.379L146.692 199.836H177.107V210H136.374ZM195.059 201.53L195.367 186.9L214.694 168.574H229.016L210.459 187.439L204.222 192.521L195.059 201.53ZM185.126 210V152.866H197.138V210H185.126ZM216.003 210L201.989 192.598L209.535 183.281L230.556 210H216.003Z" fill="#272830"/>
<path d="M35.872 236V228.8H37.584V236H35.872ZM33.04 233.2V231.6H40.416V233.2H33.04ZM46.8875 238.16C45.9595 238.16 45.1542 238.021 44.4715 237.744C43.7888 237.467 43.2608 237.077 42.8875 236.576C42.5142 236.064 42.3275 235.467 42.3275 234.784C42.3275 234.101 42.5088 233.525 42.8715 233.056C43.2342 232.587 43.7568 232.229 44.4395 231.984C45.1222 231.739 45.9382 231.616 46.8875 231.616C47.8368 231.616 48.6528 231.739 49.3355 231.984C50.0288 232.229 50.5568 232.592 50.9195 233.072C51.2928 233.541 51.4795 234.112 51.4795 234.784C51.4795 235.467 51.2875 236.064 50.9035 236.576C50.5302 237.077 49.9968 237.467 49.3035 237.744C48.6208 238.021 47.8155 238.16 46.8875 238.16ZM46.8875 236.528C47.6555 236.528 48.2635 236.368 48.7115 236.048C49.1595 235.728 49.3835 235.285 49.3835 234.72C49.3835 234.165 49.1595 233.728 48.7115 233.408C48.2635 233.088 47.6555 232.928 46.8875 232.928C46.1195 232.928 45.5168 233.088 45.0795 233.408C44.6422 233.728 44.4235 234.165 44.4235 234.72C44.4235 235.285 44.6422 235.728 45.0795 236.048C45.5168 236.368 46.1195 236.528 46.8875 236.528ZM46.8875 232.704C46.0235 232.704 45.2822 232.592 44.6635 232.368C44.0448 232.133 43.5648 231.797 43.2235 231.36C42.8928 230.912 42.7275 230.379 42.7275 229.76C42.7275 229.12 42.8982 228.571 43.2395 228.112C43.5915 227.643 44.0822 227.28 44.7115 227.024C45.3408 226.768 46.0662 226.64 46.8875 226.64C47.7195 226.64 48.4502 226.768 49.0795 227.024C49.7088 227.28 50.1995 227.643 50.5515 228.112C50.9035 228.571 51.0795 229.12 51.0795 229.76C51.0795 230.379 50.9088 230.912 50.5675 231.36C50.2368 231.797 49.7568 232.133 49.1275 232.368C48.4982 232.592 47.7515 232.704 46.8875 232.704ZM46.8875 231.424C47.5488 231.424 48.0715 231.285 48.4555 231.008C48.8395 230.72 49.0315 230.336 49.0315 229.856C49.0315 229.355 48.8342 228.965 48.4395 228.688C48.0448 228.411 47.5275 228.272 46.8875 228.272C46.2475 228.272 45.7355 228.411 45.3515 228.688C44.9675 228.965 44.7755 229.355 44.7755 229.856C44.7755 230.336 44.9622 230.72 45.3355 231.008C45.7195 231.285 46.2368 231.424 46.8875 231.424ZM54.4833 238.112C54.1206 238.112 53.8113 237.989 53.5553 237.744C53.2993 237.488 53.1713 237.168 53.1713 236.784C53.1713 236.379 53.2993 236.059 53.5553 235.824C53.8113 235.579 54.1206 235.456 54.4833 235.456C54.8459 235.456 55.1553 235.579 55.4113 235.824C55.6673 236.059 55.7953 236.379 55.7953 236.784C55.7953 237.168 55.6673 237.488 55.4113 237.744C55.1553 237.989 54.8459 238.112 54.4833 238.112ZM61.1035 238.16C60.3142 238.16 59.5408 238.048 58.7835 237.824C58.0368 237.589 57.4075 237.269 56.8955 236.864L57.7755 235.248C58.1808 235.579 58.6715 235.845 59.2475 236.048C59.8342 236.251 60.4422 236.352 61.0715 236.352C61.8075 236.352 62.3835 236.197 62.7995 235.888C63.2262 235.579 63.4395 235.163 63.4395 234.64C63.4395 234.288 63.3488 233.979 63.1675 233.712C62.9968 233.445 62.6875 233.243 62.2395 233.104C61.8022 232.965 61.1995 232.896 60.4315 232.896H57.7275L58.3035 226.8H64.8795V228.544H59.0715L60.1595 227.552L59.7275 232.112L58.6395 231.136H60.8955C62.0048 231.136 62.8955 231.285 63.5675 231.584C64.2502 231.872 64.7462 232.277 65.0555 232.8C65.3755 233.312 65.5355 233.899 65.5355 234.56C65.5355 235.211 65.3755 235.808 65.0555 236.352C64.7355 236.896 64.2448 237.333 63.5835 237.664C62.9328 237.995 62.1062 238.16 61.1035 238.16ZM68.397 238L76.045 226.8H77.613L69.965 238H68.397ZM69.325 232.832C68.8023 232.832 68.3383 232.704 67.933 232.448C67.5277 232.192 67.213 231.835 66.989 231.376C66.765 230.917 66.653 230.379 66.653 229.76C66.653 229.141 66.765 228.603 66.989 228.144C67.213 227.685 67.5277 227.328 67.933 227.072C68.3383 226.816 68.8023 226.688 69.325 226.688C69.869 226.688 70.3383 226.816 70.733 227.072C71.1383 227.328 71.453 227.685 71.677 228.144C71.901 228.603 72.013 229.141 72.013 229.76C72.013 230.379 71.901 230.917 71.677 231.376C71.453 231.835 71.1383 232.192 70.733 232.448C70.3383 232.704 69.869 232.832 69.325 232.832ZM69.341 231.712C69.7677 231.712 70.0983 231.547 70.333 231.216C70.5783 230.875 70.701 230.389 70.701 229.76C70.701 229.131 70.5783 228.651 70.333 228.32C70.0983 227.979 69.7677 227.808 69.341 227.808C68.9143 227.808 68.573 227.979 68.317 228.32C68.0717 228.661 67.949 229.141 67.949 229.76C67.949 230.379 68.0717 230.859 68.317 231.2C68.573 231.541 68.9143 231.712 69.341 231.712ZM76.669 238.112C76.1463 238.112 75.6823 237.984 75.277 237.728C74.8717 237.472 74.557 237.115 74.333 236.656C74.109 236.197 73.997 235.659 73.997 235.04C73.997 234.421 74.109 233.883 74.333 233.424C74.557 232.965 74.8717 232.608 75.277 232.352C75.6823 232.096 76.1463 231.968 76.669 231.968C77.213 231.968 77.6823 232.096 78.077 232.352C78.4823 232.608 78.797 232.965 79.021 233.424C79.245 233.883 79.357 234.421 79.357 235.04C79.357 235.659 79.245 236.197 79.021 236.656C78.797 237.115 78.4823 237.472 78.077 237.728C77.6823 237.984 77.213 238.112 76.669 238.112ZM76.669 236.992C77.0957 236.992 77.4317 236.821 77.677 236.48C77.9223 236.139 78.045 235.659 78.045 235.04C78.045 234.421 77.9223 233.941 77.677 233.6C77.4317 233.259 77.0957 233.088 76.669 233.088C76.253 233.088 75.917 233.259 75.661 233.6C75.4157 233.931 75.293 234.411 75.293 235.04C75.293 235.669 75.4157 236.155 75.661 236.496C75.917 236.827 76.253 236.992 76.669 236.992Z" fill="#A8B3F2"/>
<path fill-rule="evenodd" clip-rule="evenodd" d="M88.2972 226.001C88.1226 226.009 87.9504 226.084 87.8247 226.228L83.1646 231.562C82.9224 231.839 82.9508 232.26 83.228 232.502C83.5053 232.745 83.9264 232.716 84.1687 232.439L87.6667 228.436V237.333C87.6667 237.702 87.9652 238 88.3333 238C88.7015 238 89 237.702 89 237.333V228.447L92.4986 232.44C92.7413 232.717 93.1624 232.744 93.4394 232.502C93.7163 232.259 93.7441 231.838 93.5014 231.561L88.886 226.294C88.7662 226.117 88.5634 226 88.3333 226C88.3212 226 88.3092 226 88.2972 226.001Z" fill="#A8B3F2"/>
</g>
<rect x="1.27372" y="1.27372" width="817.453" height="271.453" rx="22.7263" stroke="url(#paint4_linear_119_3796)" stroke-width="2.54743"/>
</g>
<defs>
<filter id="filter0_b_119_3796" x="-5.09487" y="-5.09487" width="830.19" height="284.19" filterUnits="userSpaceOnUse" color-interpolation-filters="sRGB">
<feFlood flood-opacity="0" result="BackgroundImageFix"/>
<feGaussianBlur in="BackgroundImageFix" stdDeviation="2.54743"/>
<feComposite in2="SourceAlpha" operator="in" result="effect1_backgroundBlur_119_3796"/>
<feBlend mode="normal" in="SourceGraphic" in2="effect1_backgroundBlur_119_3796" result="shape"/>
</filter>
<linearGradient id="paint0_linear_119_3796" x1="410" y1="0" x2="410" y2="274" gradientUnits="userSpaceOnUse">
<stop stop-color="white" stop-opacity="0.2"/>
<stop offset="1" stop-color="white" stop-opacity="0"/>
</linearGradient>
<linearGradient id="paint1_linear_119_3796" x1="33" y1="38.5" x2="270.571" y2="-59.4555" gradientUnits="userSpaceOnUse">
<stop stop-color="#FFAC9B"/>
<stop offset="1" stop-color="#686EFF"/>
</linearGradient>
<linearGradient id="paint2_linear_119_3796" x1="611.5" y1="13" x2="605.5" y2="353" gradientUnits="userSpaceOnUse">
<stop stop-color="#A8B3F2"/>
<stop offset="1" stop-color="white" stop-opacity="0"/>
</linearGradient>
<linearGradient id="paint3_linear_119_3796" x1="623.5" y1="132" x2="623.5" y2="343" gradientUnits="userSpaceOnUse">
<stop stop-color="#A8B3F2"/>
<stop offset="1" stop-color="white" stop-opacity="0"/>
</linearGradient>
<linearGradient id="paint4_linear_119_3796" x1="-172.747" y1="-19.7401" x2="-143.013" y2="321.915" gradientUnits="userSpaceOnUse">
<stop stop-color="white"/>
<stop offset="1" stop-color="white" stop-opacity="0"/>
</linearGradient>
<clipPath id="clip0_119_3796">
<rect width="820" height="274" rx="24" fill="white"/>
</clipPath>
</defs>
</svg>
